{
	"asset":{
		"generator":"Khronos glTF Blender I/O v4.1.63",
		"version":"2.0"
	},
	"scene":0,
	"scenes":[
		{
			"name":"Scene",
			"nodes":[
				0
			]
		}
	],
	"nodes":[
		{
			"mesh":0,
			"name":"\u5186\u9310"
		}
	],
	"animations":[
		{
			"channels":[
				{
					"sampler":0,
					"target":{
						"node":0,
						"path":"translation"
					}
				},
				{
					"sampler":1,
					"target":{
						"node":0,
						"path":"rotation"
					}
				}
			],
			"name":"Action",
			"samplers":[
				{
					"input":24,
					"interpolation":"LINEAR",
					"output":25
				},
				{
					"input":26,
					"interpolation":"STEP",
					"output":27
				}
			]
		}
	],
	"materials":[
		{
			"doubleSided":true,
			"name":"\u30de\u30c6\u30ea\u30a2\u30eb",
			"normalTexture":{
				"index":0
			},
			"pbrMetallicRoughness":{
				"baseColorTexture":{
					"index":1
				},
				"metallicFactor":0.9266055226325989,
				"roughnessFactor":0.07339449226856232
			}
		}
	],
	"meshes":[
		{
			"extras":{
				"targetNames":[
					"\u30ad\u30fc",
					"\u30ad\u30fc 2"
				]
			},
			"name":"\u5186\u9310",
			"primitives":[
				{
					"attributes":{
						"POSITION":0,
						"NORMAL":1,
						"TEXCOORD_0":2
					},
					"indices":3,
					"material":0,
					"targets":[
						{
							"POSITION":4,
							"NORMAL":5
						},
						{
							"POSITION":6,
							"NORMAL":7
						}
					]
				},
				{
					"attributes":{
						"POSITION":8,
						"NORMAL":9,
						"TEXCOORD_0":10
					},
					"indices":11,
					"material":0,
					"targets":[
						{
							"POSITION":12,
							"NORMAL":13
						},
						{
							"POSITION":14,
							"NORMAL":15
						}
					]
				},
				{
					"attributes":{
						"POSITION":16,
						"NORMAL":17,
						"TEXCOORD_0":18
					},
					"indices":19,
					"material":0,
					"targets":[
						{
							"POSITION":20,
							"NORMAL":21
						},
						{
							"POSITION":22,
							"NORMAL":23
						}
					]
				}
			],
			"weights":[
				0,
				0
			]
		}
	],
	"textures":[
		{
			"sampler":0,
			"source":0
		},
		{
			"sampler":0,
			"source":1
		}
	],
	"images":[
		{
			"mimeType":"image/png",
			"name":"normalstone2",
			"uri":"normalstone2.png"
		},
		{
			"mimeType":"image/jpeg",
			"name":"stone2",
			"uri":"stone2.jpg"
		}
	],
	"accessors":[
		{
			"bufferView":0,
			"componentType":5126,
			"count":4608,
			"max":[
				0.6167256832122803,
				1,
				2.0469250679016113
			],
			"min":[
				-1.054327368736267,
				-1,
				-2.0551297664642334
			],
			"type":"VEC3"
		},
		{
			"bufferView":1,
			"componentType":5126,
			"count":4608,
			"type":"VEC3"
		},
		{
			"bufferView":2,
			"componentType":5126,
			"count":4608,
			"type":"VEC2"
		},
		{
			"bufferView":3,
			"componentType":5123,
			"count":6696,
			"type":"SCALAR"
		},
		{
			"bufferView":4,
			"componentType":5126,
			"count":4608,
			"max":[
				0,
				1.0155410766601562,
				0
			],
			"min":[
				0,
				1.0155410766601562,
				0
			],
			"type":"VEC3"
		},
		{
			"componentType":5126,
			"count":4608,
			"sparse":{
				"count":3456,
				"indices":{
					"bufferView":5,
					"componentType":5123
				},
				"values":{
					"bufferView":6
				}
			},
			"type":"VEC3"
		},
		{
			"componentType":5126,
			"count":4608,
			"max":[
				0,
				0,
				0
			],
			"min":[
				0,
				0,
				0
			],
			"sparse":{
				"count":1,
				"indices":{
					"bufferView":7,
					"componentType":5121
				},
				"values":{
					"bufferView":8
				}
			},
			"type":"VEC3"
		},
		{
			"componentType":5126,
			"count":4608,
			"sparse":{
				"count":3456,
				"indices":{
					"bufferView":9,
					"componentType":5123
				},
				"values":{
					"bufferView":10
				}
			},
			"type":"VEC3"
		},
		{
			"bufferView":11,
			"componentType":5126,
			"count":1536,
			"max":[
				0.6167256832122803,
				1,
				-2.323935031890869
			],
			"min":[
				-1.054327368736267,
				-1,
				-3.5573863983154297
			],
			"type":"VEC3"
		},
		{
			"bufferView":12,
			"componentType":5126,
			"count":1536,
			"type":"VEC3"
		},
		{
			"bufferView":13,
			"componentType":5126,
			"count":1536,
			"type":"VEC2"
		},
		{
			"bufferView":14,
			"componentType":5123,
			"count":2232,
			"type":"SCALAR"
		},
		{
			"bufferView":15,
			"componentType":5126,
			"count":1536,
			"max":[
				0,
				1.0155410766601562,
				0
			],
			"min":[
				0,
				1.0155410766601562,
				0
			],
			"type":"VEC3"
		},
		{
			"componentType":5126,
			"count":1536,
			"sparse":{
				"count":1152,
				"indices":{
					"bufferView":16,
					"componentType":5123
				},
				"values":{
					"bufferView":17
				}
			},
			"type":"VEC3"
		},
		{
			"componentType":5126,
			"count":1536,
			"max":[
				0,
				0,
				0
			],
			"min":[
				0,
				0,
				0
			],
			"sparse":{
				"count":1,
				"indices":{
					"bufferView":18,
					"componentType":5121
				},
				"values":{
					"bufferView":19
				}
			},
			"type":"VEC3"
		},
		{
			"componentType":5126,
			"count":1536,
			"sparse":{
				"count":1152,
				"indices":{
					"bufferView":20,
					"componentType":5123
				},
				"values":{
					"bufferView":21
				}
			},
			"type":"VEC3"
		},
		{
			"bufferView":22,
			"componentType":5126,
			"count":1536,
			"max":[
				0.6167256832122803,
				1,
				3.562493085861206
			],
			"min":[
				-1.054327368736267,
				-1,
				2.3290417194366455
			],
			"type":"VEC3"
		},
		{
			"bufferView":23,
			"componentType":5126,
			"count":1536,
			"type":"VEC3"
		},
		{
			"bufferView":24,
			"componentType":5126,
			"count":1536,
			"type":"VEC2"
		},
		{
			"bufferView":25,
			"componentType":5123,
			"count":2232,
			"type":"SCALAR"
		},
		{
			"bufferView":26,
			"componentType":5126,
			"count":1536,
			"max":[
				0,
				1.0155410766601562,
				0
			],
			"min":[
				0,
				1.0155410766601562,
				0
			],
			"type":"VEC3"
		},
		{
			"componentType":5126,
			"count":1536,
			"sparse":{
				"count":1152,
				"indices":{
					"bufferView":27,
					"componentType":5123
				},
				"values":{
					"bufferView":28
				}
			},
			"type":"VEC3"
		},
		{
			"componentType":5126,
			"count":1536,
			"max":[
				0,
				0,
				0
			],
			"min":[
				0,
				0,
				0
			],
			"sparse":{
				"count":1,
				"indices":{
					"bufferView":29,
					"componentType":5121
				},
				"values":{
					"bufferView":30
				}
			},
			"type":"VEC3"
		},
		{
			"componentType":5126,
			"count":1536,
			"sparse":{
				"count":1152,
				"indices":{
					"bufferView":31,
					"componentType":5123
				},
				"values":{
					"bufferView":32
				}
			},
			"type":"VEC3"
		},
		{
			"bufferView":33,
			"componentType":5126,
			"count":60,
			"max":[
				2.5
			],
			"min":[
				0.041666666666666664
			],
			"type":"SCALAR"
		},
		{
			"bufferView":34,
			"componentType":5126,
			"count":60,
			"type":"VEC3"
		},
		{
			"bufferView":35,
			"componentType":5126,
			"count":2,
			"max":[
				2.5
			],
			"min":[
				0.041666666666666664
			],
			"type":"SCALAR"
		},
		{
			"bufferView":36,
			"componentType":5126,
			"count":2,
			"type":"VEC4"
		}
	],
	"bufferViews":[
		{
			"buffer":0,
			"byteLength":55296,
			"byteOffset":0,
			"target":34962
		},
		{
			"buffer":0,
			"byteLength":55296,
			"byteOffset":55296,
			"target":34962
		},
		{
			"buffer":0,
			"byteLength":36864,
			"byteOffset":110592,
			"target":34962
		},
		{
			"buffer":0,
			"byteLength":13392,
			"byteOffset":147456,
			"target":34963
		},
		{
			"buffer":0,
			"byteLength":55296,
			"byteOffset":160848,
			"target":34962
		},
		{
			"buffer":0,
			"byteLength":6912,
			"byteOffset":216144
		},
		{
			"buffer":0,
			"byteLength":41472,
			"byteOffset":223056
		},
		{
			"buffer":0,
			"byteLength":1,
			"byteOffset":264528
		},
		{
			"buffer":0,
			"byteLength":12,
			"byteOffset":264532
		},
		{
			"buffer":0,
			"byteLength":6912,
			"byteOffset":264544
		},
		{
			"buffer":0,
			"byteLength":41472,
			"byteOffset":271456
		},
		{
			"buffer":0,
			"byteLength":18432,
			"byteOffset":312928,
			"target":34962
		},
		{
			"buffer":0,
			"byteLength":18432,
			"byteOffset":331360,
			"target":34962
		},
		{
			"buffer":0,
			"byteLength":12288,
			"byteOffset":349792,
			"target":34962
		},
		{
			"buffer":0,
			"byteLength":4464,
			"byteOffset":362080,
			"target":34963
		},
		{
			"buffer":0,
			"byteLength":18432,
			"byteOffset":366544,
			"target":34962
		},
		{
			"buffer":0,
			"byteLength":2304,
			"byteOffset":384976
		},
		{
			"buffer":0,
			"byteLength":13824,
			"byteOffset":387280
		},
		{
			"buffer":0,
			"byteLength":1,
			"byteOffset":401104
		},
		{
			"buffer":0,
			"byteLength":12,
			"byteOffset":401108
		},
		{
			"buffer":0,
			"byteLength":2304,
			"byteOffset":401120
		},
		{
			"buffer":0,
			"byteLength":13824,
			"byteOffset":403424
		},
		{
			"buffer":0,
			"byteLength":18432,
			"byteOffset":417248,
			"target":34962
		},
		{
			"buffer":0,
			"byteLength":18432,
			"byteOffset":435680,
			"target":34962
		},
		{
			"buffer":0,
			"byteLength":12288,
			"byteOffset":454112,
			"target":34962
		},
		{
			"buffer":0,
			"byteLength":4464,
			"byteOffset":466400,
			"target":34963
		},
		{
			"buffer":0,
			"byteLength":18432,
			"byteOffset":470864,
			"target":34962
		},
		{
			"buffer":0,
			"byteLength":2304,
			"byteOffset":489296
		},
		{
			"buffer":0,
			"byteLength":13824,
			"byteOffset":491600
		},
		{
			"buffer":0,
			"byteLength":1,
			"byteOffset":505424
		},
		{
			"buffer":0,
			"byteLength":12,
			"byteOffset":505428
		},
		{
			"buffer":0,
			"byteLength":2304,
			"byteOffset":505440
		},
		{
			"buffer":0,
			"byteLength":13824,
			"byteOffset":507744
		},
		{
			"buffer":0,
			"byteLength":240,
			"byteOffset":521568
		},
		{
			"buffer":0,
			"byteLength":720,
			"byteOffset":521808
		},
		{
			"buffer":0,
			"byteLength":8,
			"byteOffset":522528
		},
		{
			"buffer":0,
			"byteLength":32,
			"byteOffset":522536
		}
	],
	"samplers":[
		{
			"magFilter":9729,
			"minFilter":9987
		}
	],
	"buffers":[
		{
			"byteLength":522568,
			"uri":"Nidle.bin"
		}
	]
}
