{
	"asset":{
		"generator":"Khronos glTF Blender I/O v4.1.63",
		"version":"2.0"
	},
	"scene":0,
	"scenes":[
		{
			"name":"Scene",
			"nodes":[
				0,
				1,
				2
			]
		}
	],
	"nodes":[
		{
			"mesh":0,
			"name":"\u7acb\u65b9\u4f53.001",
			"scale":[
				0.7033272981643677,
				0.45130372047424316,
				0.3769165277481079
			],
			"translation":[
				-0.1451951116323471,
				0.6465266942977905,
				0
			]
		},
		{
			"mesh":1,
			"name":"\u5186\u67f1",
			"translation":[
				0.2481582760810852,
				0.18213358521461487,
				0
			]
		},
		{
			"mesh":2,
			"name":"\u5186\u67f1.001",
			"translation":[
				0,
				0.9844508767127991,
				-2.1264138221740723
			]
		}
	],
	"animations":[
		{
			"channels":[
				{
					"sampler":0,
					"target":{
						"node":1,
						"path":"rotation"
					}
				}
			],
			"name":"RebarAction",
			"samplers":[
				{
					"input":12,
					"interpolation":"LINEAR",
					"output":13
				}
			]
		},
		{
			"channels":[
				{
					"sampler":0,
					"target":{
						"node":2,
						"path":"rotation"
					}
				}
			],
			"name":"Action",
			"samplers":[
				{
					"input":14,
					"interpolation":"LINEAR",
					"output":15
				}
			]
		}
	],
	"materials":[
		{
			"doubleSided":true,
			"name":"\u30de\u30c6\u30ea\u30a2\u30eb.001",
			"pbrMetallicRoughness":{
				"baseColorFactor":[
					0.8017555475234985,
					0.2134075164794922,
					0.026765897870063782,
					1
				],
				"metallicFactor":0.03669724613428116,
				"roughnessFactor":0.7385321259498596
			}
		},
		{
			"doubleSided":true,
			"name":"\u30de\u30c6\u30ea\u30a2\u30eb",
			"pbrMetallicRoughness":{
				"baseColorFactor":[
					0,
					0.21071799099445343,
					0.7728434205055237,
					1
				],
				"metallicFactor":0.4706881642341614,
				"roughnessFactor":0.3094428777694702
			}
		}
	],
	"meshes":[
		{
			"name":"\u7acb\u65b9\u4f53.001",
			"primitives":[
				{
					"attributes":{
						"POSITION":0,
						"NORMAL":1,
						"TEXCOORD_0":2
					},
					"indices":3
				}
			]
		},
		{
			"name":"\u5186\u67f1.001",
			"primitives":[
				{
					"attributes":{
						"POSITION":4,
						"NORMAL":5,
						"TEXCOORD_0":6
					},
					"indices":7,
					"material":0
				}
			]
		},
		{
			"name":"\u5186\u67f1",
			"primitives":[
				{
					"attributes":{
						"POSITION":8,
						"NORMAL":9,
						"TEXCOORD_0":10
					},
					"indices":11,
					"material":1
				}
			]
		}
	],
	"accessors":[
		{
			"bufferView":0,
			"componentType":5126,
			"count":172,
			"max":[
				2.529439687728882,
				-0.5730991363525391,
				1.4600187540054321
			],
			"min":[
				-1.616252064704895,
				-1.8313438892364502,
				-1.4600187540054321
			],
			"type":"VEC3"
		},
		{
			"bufferView":1,
			"componentType":5126,
			"count":172,
			"type":"VEC3"
		},
		{
			"bufferView":2,
			"componentType":5126,
			"count":172,
			"type":"VEC2"
		},
		{
			"bufferView":3,
			"componentType":5123,
			"count":444,
			"type":"SCALAR"
		},
		{
			"bufferView":4,
			"componentType":5126,
			"count":320,
			"max":[
				0.14084883034229279,
				1.2187089920043945,
				0.14084886014461517
			],
			"min":[
				-0.14084886014461517,
				-0.3155924081802368,
				-0.14084886014461517
			],
			"type":"VEC3"
		},
		{
			"bufferView":5,
			"componentType":5126,
			"count":320,
			"type":"VEC3"
		},
		{
			"bufferView":6,
			"componentType":5126,
			"count":320,
			"type":"VEC2"
		},
		{
			"bufferView":7,
			"componentType":5123,
			"count":564,
			"type":"SCALAR"
		},
		{
			"bufferView":8,
			"componentType":5126,
			"count":5184,
			"max":[
				0.992195725440979,
				11.521389961242676,
				0.992195725440979
			],
			"min":[
				-0.9921957850456238,
				-1,
				-0.9921957850456238
			],
			"type":"VEC3"
		},
		{
			"bufferView":9,
			"componentType":5126,
			"count":5184,
			"type":"VEC3"
		},
		{
			"bufferView":10,
			"componentType":5126,
			"count":5184,
			"type":"VEC2"
		},
		{
			"bufferView":11,
			"componentType":5123,
			"count":9180,
			"type":"SCALAR"
		},
		{
			"bufferView":12,
			"componentType":5126,
			"count":40,
			"max":[
				1.6666666666666667
			],
			"min":[
				0.041666666666666664
			],
			"type":"SCALAR"
		},
		{
			"bufferView":13,
			"componentType":5126,
			"count":40,
			"type":"VEC4"
		},
		{
			"bufferView":14,
			"componentType":5126,
			"count":80,
			"max":[
				3.3333333333333335
			],
			"min":[
				0.041666666666666664
			],
			"type":"SCALAR"
		},
		{
			"bufferView":15,
			"componentType":5126,
			"count":80,
			"type":"VEC4"
		}
	],
	"bufferViews":[
		{
			"buffer":0,
			"byteLength":2064,
			"byteOffset":0,
			"target":34962
		},
		{
			"buffer":0,
			"byteLength":2064,
			"byteOffset":2064,
			"target":34962
		},
		{
			"buffer":0,
			"byteLength":1376,
			"byteOffset":4128,
			"target":34962
		},
		{
			"buffer":0,
			"byteLength":888,
			"byteOffset":5504,
			"target":34963
		},
		{
			"buffer":0,
			"byteLength":3840,
			"byteOffset":6392,
			"target":34962
		},
		{
			"buffer":0,
			"byteLength":3840,
			"byteOffset":10232,
			"target":34962
		},
		{
			"buffer":0,
			"byteLength":2560,
			"byteOffset":14072,
			"target":34962
		},
		{
			"buffer":0,
			"byteLength":1128,
			"byteOffset":16632,
			"target":34963
		},
		{
			"buffer":0,
			"byteLength":62208,
			"byteOffset":17760,
			"target":34962
		},
		{
			"buffer":0,
			"byteLength":62208,
			"byteOffset":79968,
			"target":34962
		},
		{
			"buffer":0,
			"byteLength":41472,
			"byteOffset":142176,
			"target":34962
		},
		{
			"buffer":0,
			"byteLength":18360,
			"byteOffset":183648,
			"target":34963
		},
		{
			"buffer":0,
			"byteLength":160,
			"byteOffset":202008
		},
		{
			"buffer":0,
			"byteLength":640,
			"byteOffset":202168
		},
		{
			"buffer":0,
			"byteLength":320,
			"byteOffset":202808
		},
		{
			"buffer":0,
			"byteLength":1280,
			"byteOffset":203128
		}
	],
	"buffers":[
		{
			"byteLength":204408,
			"uri":"Pillar.bin"
		}
	]
}
