{
	"asset":{
		"generator":"Khronos glTF Blender I/O v4.1.63",
		"version":"2.0"
	},
	"scene":0,
	"scenes":[
		{
			"name":"Scene",
			"nodes":[
				0,
				1,
				2,
				3,
				4,
				5
			]
		}
	],
	"nodes":[
		{
			"mesh":0,
			"name":"Circle.001",
			"rotation":[
				0.18744982779026031,
				-0.17846542596817017,
				0.6995711326599121,
				0.6660428047180176
			],
			"scale":[
				0.24051004648208618,
				0.3261275887489319,
				0.24051004648208618
			],
			"translation":[
				-0.1861797422170639,
				0.23624861240386963,
				0.010660052299499512
			]
		},
		{
			"mesh":1,
			"name":"Circle.003",
			"rotation":[
				0.18238945305347443,
				-0.1718435436487198,
				0.704612672328949,
				0.663871169090271
			],
			"scale":[
				0.24051012098789215,
				0.32612770795822144,
				0.240510031580925
			],
			"translation":[
				11.688677787780762,
				2.0129477977752686,
				0.004951551556587219
			]
		},
		{
			"mesh":2,
			"name":"Circle.004",
			"rotation":[
				0.18744982779026031,
				-0.17846542596817017,
				0.6995711326599121,
				0.6660428047180176
			],
			"scale":[
				0.24051004648208618,
				0.3261275887489319,
				0.24051004648208618
			],
			"translation":[
				-1.7229591608047485,
				0.14466363191604614,
				0.010660052299499512
			]
		},
		{
			"mesh":3,
			"name":"Circle.005",
			"rotation":[
				0.18744982779026031,
				-0.17846542596817017,
				0.6995711326599121,
				0.6660428047180176
			],
			"scale":[
				0.24051004648208618,
				0.3261275887489319,
				0.24051004648208618
			],
			"translation":[
				-1.5434699058532715,
				0.15536051988601685,
				0.010660052299499512
			]
		},
		{
			"mesh":4,
			"name":"Circle.006",
			"rotation":[
				0.18744982779026031,
				-0.17846542596817017,
				0.6995711326599121,
				0.6660428047180176
			],
			"scale":[
				0.24051004648208618,
				0.3261275887489319,
				0.24051004648208618
			],
			"translation":[
				-2.8869740962982178,
				0.07529383897781372,
				0.010660052299499512
			]
		},
		{
			"mesh":5,
			"name":"Circle.007",
			"rotation":[
				0.18744982779026031,
				-0.17846542596817017,
				0.6995711326599121,
				0.6660428047180176
			],
			"scale":[
				0.24051004648208618,
				0.3261275887489319,
				0.24051004648208618
			],
			"translation":[
				-4.211776256561279,
				-0.003657996654510498,
				0.010660052299499512
			]
		}
	],
	"animations":[
		{
			"channels":[
				{
					"sampler":0,
					"target":{
						"node":1,
						"path":"translation"
					}
				},
				{
					"sampler":1,
					"target":{
						"node":1,
						"path":"rotation"
					}
				},
				{
					"sampler":2,
					"target":{
						"node":2,
						"path":"translation"
					}
				},
				{
					"sampler":3,
					"target":{
						"node":2,
						"path":"rotation"
					}
				},
				{
					"sampler":4,
					"target":{
						"node":2,
						"path":"scale"
					}
				}
			],
			"name":"Action",
			"samplers":[
				{
					"input":24,
					"interpolation":"LINEAR",
					"output":25
				},
				{
					"input":24,
					"interpolation":"LINEAR",
					"output":26
				},
				{
					"input":24,
					"interpolation":"LINEAR",
					"output":27
				},
				{
					"input":28,
					"interpolation":"STEP",
					"output":29
				},
				{
					"input":28,
					"interpolation":"STEP",
					"output":30
				}
			]
		}
	],
	"materials":[
		{
			"doubleSided":true,
			"name":"\u30de\u30c6\u30ea\u30a2\u30eb",
			"pbrMetallicRoughness":{
				"metallicFactor":0,
				"roughnessFactor":0.5
			}
		},
		{
			"doubleSided":true,
			"name":"\u30de\u30c6\u30ea\u30a2\u30eb.001",
			"pbrMetallicRoughness":{
				"metallicFactor":0,
				"roughnessFactor":0.5
			}
		},
		{
			"doubleSided":true,
			"name":"\u30de\u30c6\u30ea\u30a2\u30eb.002",
			"pbrMetallicRoughness":{
				"metallicFactor":0,
				"roughnessFactor":0.5
			}
		},
		{
			"doubleSided":true,
			"name":"\u30de\u30c6\u30ea\u30a2\u30eb.003",
			"pbrMetallicRoughness":{
				"metallicFactor":0,
				"roughnessFactor":0.5
			}
		}
	],
	"meshes":[
		{
			"name":"Circle.001",
			"primitives":[
				{
					"attributes":{
						"POSITION":0,
						"NORMAL":1,
						"TEXCOORD_0":2
					},
					"indices":3,
					"material":0
				}
			]
		},
		{
			"name":"Circle.003",
			"primitives":[
				{
					"attributes":{
						"POSITION":4,
						"NORMAL":5,
						"TEXCOORD_0":6
					},
					"indices":7,
					"material":0
				}
			]
		},
		{
			"name":"Circle.004",
			"primitives":[
				{
					"attributes":{
						"POSITION":8,
						"NORMAL":9,
						"TEXCOORD_0":10
					},
					"indices":11,
					"material":0
				}
			]
		},
		{
			"name":"Circle.005",
			"primitives":[
				{
					"attributes":{
						"POSITION":12,
						"NORMAL":13,
						"TEXCOORD_0":14
					},
					"indices":15,
					"material":1
				}
			]
		},
		{
			"name":"Circle.006",
			"primitives":[
				{
					"attributes":{
						"POSITION":16,
						"NORMAL":17,
						"TEXCOORD_0":18
					},
					"indices":19,
					"material":2
				}
			]
		},
		{
			"name":"Circle.007",
			"primitives":[
				{
					"attributes":{
						"POSITION":20,
						"NORMAL":21,
						"TEXCOORD_0":22
					},
					"indices":23,
					"material":3
				}
			]
		}
	],
	"accessors":[
		{
			"bufferView":0,
			"componentType":5126,
			"count":74,
			"max":[
				3.9833462238311768,
				-34.77469253540039,
				3.20986270904541
			],
			"min":[
				-6.568852424621582,
				-39.487491607666016,
				-7.6880011558532715
			],
			"type":"VEC3"
		},
		{
			"bufferView":1,
			"componentType":5126,
			"count":74,
			"type":"VEC3"
		},
		{
			"bufferView":2,
			"componentType":5126,
			"count":74,
			"type":"VEC2"
		},
		{
			"bufferView":3,
			"componentType":5123,
			"count":144,
			"type":"SCALAR"
		},
		{
			"bufferView":4,
			"componentType":5126,
			"count":114,
			"max":[
				5.5145416259765625,
				20.961750030517578,
				3.266619920730591
			],
			"min":[
				-7.202233791351318,
				-6.473304271697998,
				-7.693477630615234
			],
			"type":"VEC3"
		},
		{
			"bufferView":5,
			"componentType":5126,
			"count":114,
			"type":"VEC3"
		},
		{
			"bufferView":6,
			"componentType":5126,
			"count":114,
			"type":"VEC2"
		},
		{
			"bufferView":7,
			"componentType":5123,
			"count":162,
			"type":"SCALAR"
		},
		{
			"bufferView":8,
			"componentType":5126,
			"count":108,
			"max":[
				0.44907623529434204,
				-27.38351821899414,
				5.605328559875488
			],
			"min":[
				-12.310896873474121,
				-43.69746398925781,
				-5.292397499084473
			],
			"type":"VEC3"
		},
		{
			"bufferView":9,
			"componentType":5126,
			"count":108,
			"type":"VEC3"
		},
		{
			"bufferView":10,
			"componentType":5126,
			"count":108,
			"type":"VEC2"
		},
		{
			"bufferView":11,
			"componentType":5123,
			"count":150,
			"type":"SCALAR"
		},
		{
			"bufferView":12,
			"componentType":5126,
			"count":74,
			"max":[
				3.9833462238311768,
				-34.77469253540039,
				3.20986270904541
			],
			"min":[
				-6.568852424621582,
				-39.487491607666016,
				-7.6880011558532715
			],
			"type":"VEC3"
		},
		{
			"bufferView":13,
			"componentType":5126,
			"count":74,
			"type":"VEC3"
		},
		{
			"bufferView":14,
			"componentType":5126,
			"count":74,
			"type":"VEC2"
		},
		{
			"bufferView":15,
			"componentType":5123,
			"count":144,
			"type":"SCALAR"
		},
		{
			"bufferView":16,
			"componentType":5126,
			"count":74,
			"max":[
				3.9833462238311768,
				-34.77469253540039,
				3.20986270904541
			],
			"min":[
				-6.568852424621582,
				-39.487491607666016,
				-7.6880011558532715
			],
			"type":"VEC3"
		},
		{
			"bufferView":17,
			"componentType":5126,
			"count":74,
			"type":"VEC3"
		},
		{
			"bufferView":18,
			"componentType":5126,
			"count":74,
			"type":"VEC2"
		},
		{
			"bufferView":19,
			"componentType":5123,
			"count":144,
			"type":"SCALAR"
		},
		{
			"bufferView":20,
			"componentType":5126,
			"count":74,
			"max":[
				3.9833462238311768,
				-34.77469253540039,
				3.20986270904541
			],
			"min":[
				-6.568852424621582,
				-39.487491607666016,
				-7.6880011558532715
			],
			"type":"VEC3"
		},
		{
			"bufferView":21,
			"componentType":5126,
			"count":74,
			"type":"VEC3"
		},
		{
			"bufferView":22,
			"componentType":5126,
			"count":74,
			"type":"VEC2"
		},
		{
			"bufferView":23,
			"componentType":5123,
			"count":144,
			"type":"SCALAR"
		},
		{
			"bufferView":24,
			"componentType":5126,
			"count":41,
			"max":[
				1.6666666666666667
			],
			"min":[
				0
			],
			"type":"SCALAR"
		},
		{
			"bufferView":25,
			"componentType":5126,
			"count":41,
			"type":"VEC3"
		},
		{
			"bufferView":26,
			"componentType":5126,
			"count":41,
			"type":"VEC4"
		},
		{
			"bufferView":27,
			"componentType":5126,
			"count":41,
			"type":"VEC3"
		},
		{
			"bufferView":28,
			"componentType":5126,
			"count":2,
			"max":[
				1.6666666666666667
			],
			"min":[
				0
			],
			"type":"SCALAR"
		},
		{
			"bufferView":29,
			"componentType":5126,
			"count":2,
			"type":"VEC4"
		},
		{
			"bufferView":30,
			"componentType":5126,
			"count":2,
			"type":"VEC3"
		}
	],
	"bufferViews":[
		{
			"buffer":0,
			"byteLength":888,
			"byteOffset":0,
			"target":34962
		},
		{
			"buffer":0,
			"byteLength":888,
			"byteOffset":888,
			"target":34962
		},
		{
			"buffer":0,
			"byteLength":592,
			"byteOffset":1776,
			"target":34962
		},
		{
			"buffer":0,
			"byteLength":288,
			"byteOffset":2368,
			"target":34963
		},
		{
			"buffer":0,
			"byteLength":1368,
			"byteOffset":2656,
			"target":34962
		},
		{
			"buffer":0,
			"byteLength":1368,
			"byteOffset":4024,
			"target":34962
		},
		{
			"buffer":0,
			"byteLength":912,
			"byteOffset":5392,
			"target":34962
		},
		{
			"buffer":0,
			"byteLength":324,
			"byteOffset":6304,
			"target":34963
		},
		{
			"buffer":0,
			"byteLength":1296,
			"byteOffset":6628,
			"target":34962
		},
		{
			"buffer":0,
			"byteLength":1296,
			"byteOffset":7924,
			"target":34962
		},
		{
			"buffer":0,
			"byteLength":864,
			"byteOffset":9220,
			"target":34962
		},
		{
			"buffer":0,
			"byteLength":300,
			"byteOffset":10084,
			"target":34963
		},
		{
			"buffer":0,
			"byteLength":888,
			"byteOffset":10384,
			"target":34962
		},
		{
			"buffer":0,
			"byteLength":888,
			"byteOffset":11272,
			"target":34962
		},
		{
			"buffer":0,
			"byteLength":592,
			"byteOffset":12160,
			"target":34962
		},
		{
			"buffer":0,
			"byteLength":288,
			"byteOffset":12752,
			"target":34963
		},
		{
			"buffer":0,
			"byteLength":888,
			"byteOffset":13040,
			"target":34962
		},
		{
			"buffer":0,
			"byteLength":888,
			"byteOffset":13928,
			"target":34962
		},
		{
			"buffer":0,
			"byteLength":592,
			"byteOffset":14816,
			"target":34962
		},
		{
			"buffer":0,
			"byteLength":288,
			"byteOffset":15408,
			"target":34963
		},
		{
			"buffer":0,
			"byteLength":888,
			"byteOffset":15696,
			"target":34962
		},
		{
			"buffer":0,
			"byteLength":888,
			"byteOffset":16584,
			"target":34962
		},
		{
			"buffer":0,
			"byteLength":592,
			"byteOffset":17472,
			"target":34962
		},
		{
			"buffer":0,
			"byteLength":288,
			"byteOffset":18064,
			"target":34963
		},
		{
			"buffer":0,
			"byteLength":164,
			"byteOffset":18352
		},
		{
			"buffer":0,
			"byteLength":492,
			"byteOffset":18516
		},
		{
			"buffer":0,
			"byteLength":656,
			"byteOffset":19008
		},
		{
			"buffer":0,
			"byteLength":492,
			"byteOffset":19664
		},
		{
			"buffer":0,
			"byteLength":8,
			"byteOffset":20156
		},
		{
			"buffer":0,
			"byteLength":32,
			"byteOffset":20164
		},
		{
			"buffer":0,
			"byteLength":24,
			"byteOffset":20196
		}
	],
	"buffers":[
		{
			"byteLength":20220,
			"uri":"axe.bin"
		}
	]
}
