{
	"asset":{
		"generator":"Khronos glTF Blender I/O v4.1.63",
		"version":"2.0"
	},
	"scene":0,
	"scenes":[
		{
			"name":"Scene",
			"nodes":[
				0,
				1
			]
		}
	],
	"nodes":[
		{
			"mesh":0,
			"name":"\u5186\u67f1",
			"translation":[
				0,
				0.9069646000862122,
				0
			]
		},
		{
			"mesh":1,
			"name":"COL"
		}
	],
	"materials":[
		{
			"doubleSided":true,
			"name":"\u30de\u30c6\u30ea\u30a2\u30eb",
			"pbrMetallicRoughness":{
				"baseColorTexture":{
					"index":0
				},
				"metallicFactor":0.5452800989151001,
				"roughnessFactor":0.22023318707942963
			}
		}
	],
	"meshes":[
		{
			"name":"\u5186\u67f1",
			"primitives":[
				{
					"attributes":{
						"POSITION":0,
						"NORMAL":1,
						"TEXCOORD_0":2
					},
					"indices":3,
					"material":0
				}
			]
		},
		{
			"name":"\u7acb\u65b9\u4f53",
			"primitives":[
				{
					"attributes":{
						"POSITION":4,
						"NORMAL":5,
						"TEXCOORD_0":6
					},
					"indices":7
				}
			]
		}
	],
	"textures":[
		{
			"sampler":0,
			"source":0
		}
	],
	"images":[
		{
			"mimeType":"image/jpeg",
			"name":"sunahekiL03",
			"uri":"sunahekiL03.jpg"
		}
	],
	"accessors":[
		{
			"bufferView":0,
			"componentType":5126,
			"count":1696,
			"max":[
				0.992195725440979,
				3.542980432510376,
				0.992195725440979
			],
			"min":[
				-0.9921957850456238,
				-0.9679967164993286,
				-0.9921957850456238
			],
			"type":"VEC3"
		},
		{
			"bufferView":1,
			"componentType":5126,
			"count":1696,
			"type":"VEC3"
		},
		{
			"bufferView":2,
			"componentType":5126,
			"count":1696,
			"type":"VEC2"
		},
		{
			"bufferView":3,
			"componentType":5123,
			"count":3060,
			"type":"SCALAR"
		},
		{
			"bufferView":4,
			"componentType":5126,
			"count":24,
			"max":[
				1,
				11.443411827087402,
				1
			],
			"min":[
				-1,
				-1,
				-1
			],
			"type":"VEC3"
		},
		{
			"bufferView":5,
			"componentType":5126,
			"count":24,
			"type":"VEC3"
		},
		{
			"bufferView":6,
			"componentType":5126,
			"count":24,
			"type":"VEC2"
		},
		{
			"bufferView":7,
			"componentType":5123,
			"count":36,
			"type":"SCALAR"
		}
	],
	"bufferViews":[
		{
			"buffer":0,
			"byteLength":20352,
			"byteOffset":0,
			"target":34962
		},
		{
			"buffer":0,
			"byteLength":20352,
			"byteOffset":20352,
			"target":34962
		},
		{
			"buffer":0,
			"byteLength":13568,
			"byteOffset":40704,
			"target":34962
		},
		{
			"buffer":0,
			"byteLength":6120,
			"byteOffset":54272,
			"target":34963
		},
		{
			"buffer":0,
			"byteLength":288,
			"byteOffset":60392,
			"target":34962
		},
		{
			"buffer":0,
			"byteLength":288,
			"byteOffset":60680,
			"target":34962
		},
		{
			"buffer":0,
			"byteLength":192,
			"byteOffset":60968,
			"target":34962
		},
		{
			"buffer":0,
			"byteLength":72,
			"byteOffset":61160,
			"target":34963
		}
	],
	"samplers":[
		{
			"magFilter":9729,
			"minFilter":9987
		}
	],
	"buffers":[
		{
			"byteLength":61232,
			"uri":"Granite.bin"
		}
	]
}
