{
	"asset":{
		"generator":"Khronos glTF Blender I/O v4.1.63",
		"version":"2.0"
	},
	"scene":0,
	"scenes":[
		{
			"name":"Scene",
			"nodes":[
				0
			]
		}
	],
	"nodes":[
		{
			"mesh":0,
			"name":"\u7403",
			"scale":[
				347.0960388183594,
				347.0960388183594,
				347.0960388183594
			]
		}
	],
	"materials":[
		{
			"doubleSided":true,
			"name":"\u30de\u30c6\u30ea\u30a2\u30eb",
			"pbrMetallicRoughness":{
				"baseColorTexture":{
					"index":0
				},
				"metallicFactor":0,
				"roughnessFactor":0.5
			}
		},
		{
			"doubleSided":true,
			"name":"\u30de\u30c6\u30ea\u30a2\u30eb.001",
			"pbrMetallicRoughness":{
				"baseColorTexture":{
					"index":1
				},
				"metallicFactor":0,
				"roughnessFactor":0.5
			}
		}
	],
	"meshes":[
		{
			"name":"\u7403",
			"primitives":[
				{
					"attributes":{
						"POSITION":0,
						"NORMAL":1,
						"TEXCOORD_0":2
					},
					"indices":3,
					"material":0
				},
				{
					"attributes":{
						"POSITION":4,
						"NORMAL":5,
						"TEXCOORD_0":6
					},
					"indices":7,
					"material":1
				}
			]
		}
	],
	"textures":[
		{
			"sampler":0,
			"source":0
		},
		{
			"sampler":0,
			"source":0
		}
	],
	"images":[
		{
			"mimeType":"image/jpeg",
			"name":"download",
			"uri":"download.jpg"
		}
	],
	"accessors":[
		{
			"bufferView":0,
			"componentType":5126,
			"count":497,
			"max":[
				0.9999997019767761,
				1,
				0.9999993443489075
			],
			"min":[
				-0.9999990463256836,
				0,
				-1
			],
			"type":"VEC3"
		},
		{
			"bufferView":1,
			"componentType":5126,
			"count":497,
			"type":"VEC3"
		},
		{
			"bufferView":2,
			"componentType":5126,
			"count":497,
			"type":"VEC2"
		},
		{
			"bufferView":3,
			"componentType":5123,
			"count":765,
			"type":"SCALAR"
		},
		{
			"bufferView":4,
			"componentType":5126,
			"count":527,
			"max":[
				0.9999997019767761,
				1,
				0.9999993443489075
			],
			"min":[
				-0.19508962333202362,
				0,
				-1
			],
			"type":"VEC3"
		},
		{
			"bufferView":5,
			"componentType":5126,
			"count":527,
			"type":"VEC3"
		},
		{
			"bufferView":6,
			"componentType":5126,
			"count":527,
			"type":"VEC2"
		},
		{
			"bufferView":7,
			"componentType":5123,
			"count":765,
			"type":"SCALAR"
		}
	],
	"bufferViews":[
		{
			"buffer":0,
			"byteLength":5964,
			"byteOffset":0,
			"target":34962
		},
		{
			"buffer":0,
			"byteLength":5964,
			"byteOffset":5964,
			"target":34962
		},
		{
			"buffer":0,
			"byteLength":3976,
			"byteOffset":11928,
			"target":34962
		},
		{
			"buffer":0,
			"byteLength":1530,
			"byteOffset":15904,
			"target":34963
		},
		{
			"buffer":0,
			"byteLength":6324,
			"byteOffset":17436,
			"target":34962
		},
		{
			"buffer":0,
			"byteLength":6324,
			"byteOffset":23760,
			"target":34962
		},
		{
			"buffer":0,
			"byteLength":4216,
			"byteOffset":30084,
			"target":34962
		},
		{
			"buffer":0,
			"byteLength":1530,
			"byteOffset":34300,
			"target":34963
		}
	],
	"samplers":[
		{
			"magFilter":9729,
			"minFilter":9987
		}
	],
	"buffers":[
		{
			"byteLength":35832,
			"uri":"Cage.bin"
		}
	]
}
