{
	"asset":{
		"generator":"Khronos glTF Blender I/O v4.1.63",
		"version":"2.0"
	},
	"scene":0,
	"scenes":[
		{
			"name":"Scene",
			"nodes":[
				0
			]
		}
	],
	"nodes":[
		{
			"mesh":0,
			"name":"\u5186\u67f1"
		}
	],
	"materials":[
		{
			"doubleSided":true,
			"name":"\u30de\u30c6\u30ea\u30a2\u30eb.002",
			"pbrMetallicRoughness":{
				"baseColorFactor":[
					0.012187434360384941,
					0.15810897946357727,
					0.8019354939460754,
					1
				],
				"metallicFactor":0.47706422209739685,
				"roughnessFactor":0
			}
		},
		{
			"doubleSided":true,
			"name":"\u30de\u30c6\u30ea\u30a2\u30eb.003",
			"pbrMetallicRoughness":{
				"baseColorFactor":[
					0.753566324710846,
					0.8005210161209106,
					0.7760834693908691,
					1
				],
				"metallicFactor":0.15000000596046448,
				"roughnessFactor":0
			}
		}
	],
	"meshes":[
		{
			"name":"\u5186\u67f1.002",
			"primitives":[
				{
					"attributes":{
						"POSITION":0,
						"NORMAL":1,
						"TEXCOORD_0":2
					},
					"indices":3,
					"material":0
				},
				{
					"attributes":{
						"POSITION":4,
						"NORMAL":5,
						"TEXCOORD_0":6
					},
					"indices":7,
					"material":1
				}
			]
		}
	],
	"accessors":[
		{
			"bufferView":0,
			"componentType":5126,
			"count":4977,
			"max":[
				0.9510565400123596,
				1,
				0.8090164661407471
			],
			"min":[
				-0.9510565400123596,
				-0.61687833070755,
				-0.999999463558197
			],
			"type":"VEC3"
		},
		{
			"bufferView":1,
			"componentType":5126,
			"count":4977,
			"type":"VEC3"
		},
		{
			"bufferView":2,
			"componentType":5126,
			"count":4977,
			"type":"VEC2"
		},
		{
			"bufferView":3,
			"componentType":5123,
			"count":8196,
			"type":"SCALAR"
		},
		{
			"bufferView":4,
			"componentType":5126,
			"count":1130,
			"max":[
				0.6914650201797485,
				0.7363495230674744,
				0.7395066618919373
			],
			"min":[
				-0.6971551179885864,
				-0.34313100576400757,
				-0.7176269888877869
			],
			"type":"VEC3"
		},
		{
			"bufferView":5,
			"componentType":5126,
			"count":1130,
			"type":"VEC3"
		},
		{
			"bufferView":6,
			"componentType":5126,
			"count":1130,
			"type":"VEC2"
		},
		{
			"bufferView":7,
			"componentType":5123,
			"count":2610,
			"type":"SCALAR"
		}
	],
	"bufferViews":[
		{
			"buffer":0,
			"byteLength":59724,
			"byteOffset":0,
			"target":34962
		},
		{
			"buffer":0,
			"byteLength":59724,
			"byteOffset":59724,
			"target":34962
		},
		{
			"buffer":0,
			"byteLength":39816,
			"byteOffset":119448,
			"target":34962
		},
		{
			"buffer":0,
			"byteLength":16392,
			"byteOffset":159264,
			"target":34963
		},
		{
			"buffer":0,
			"byteLength":13560,
			"byteOffset":175656,
			"target":34962
		},
		{
			"buffer":0,
			"byteLength":13560,
			"byteOffset":189216,
			"target":34962
		},
		{
			"buffer":0,
			"byteLength":9040,
			"byteOffset":202776,
			"target":34962
		},
		{
			"buffer":0,
			"byteLength":5220,
			"byteOffset":211816,
			"target":34963
		}
	],
	"buffers":[
		{
			"byteLength":217036,
			"uri":"blueDice.bin"
		}
	]
}
