{
	"asset":{
		"generator":"Khronos glTF Blender I/O v4.1.63",
		"version":"2.0"
	},
	"scene":0,
	"scenes":[
		{
			"name":"Scene",
			"nodes":[
				0
			]
		}
	],
	"nodes":[
		{
			"mesh":0,
			"name":"\u5186\u67f1",
			"rotation":[
				-0.0020919519010931253,
				0.0009618564508855343,
				-0.0012352115008980036,
				0.9999966025352478
			]
		}
	],
	"materials":[
		{
			"doubleSided":true,
			"name":"\u30de\u30c6\u30ea\u30a2\u30eb",
			"pbrMetallicRoughness":{
				"baseColorFactor":[
					0.012187434360384941,
					0.15810897946357727,
					0.8019354939460754,
					1
				],
				"metallicFactor":0.47706422209739685,
				"roughnessFactor":0
			}
		},
		{
			"doubleSided":true,
			"name":"\u30de\u30c6\u30ea\u30a2\u30eb.001",
			"pbrMetallicRoughness":{
				"baseColorFactor":[
					0.753566324710846,
					0.8005210161209106,
					0.7760834693908691,
					1
				],
				"metallicFactor":0.15000000596046448,
				"roughnessFactor":0
			}
		}
	],
	"meshes":[
		{
			"name":"\u5186\u67f1.001",
			"primitives":[
				{
					"attributes":{
						"POSITION":0,
						"NORMAL":1,
						"TEXCOORD_0":2
					},
					"indices":3,
					"material":0
				},
				{
					"attributes":{
						"POSITION":4,
						"NORMAL":5,
						"TEXCOORD_0":6
					},
					"indices":7,
					"material":1
				}
			]
		}
	],
	"accessors":[
		{
			"bufferView":0,
			"componentType":5126,
			"count":4529,
			"max":[
				0.9510565400123596,
				1,
				0.8090164661407471
			],
			"min":[
				-0.9510565400123596,
				-0.61687833070755,
				-0.999999463558197
			],
			"type":"VEC3"
		},
		{
			"bufferView":1,
			"componentType":5126,
			"count":4529,
			"type":"VEC3"
		},
		{
			"bufferView":2,
			"componentType":5126,
			"count":4529,
			"type":"VEC2"
		},
		{
			"bufferView":3,
			"componentType":5123,
			"count":8199,
			"type":"SCALAR"
		},
		{
			"bufferView":4,
			"componentType":5126,
			"count":1124,
			"max":[
				0.6914650201797485,
				0.7363495230674744,
				0.7395066618919373
			],
			"min":[
				-0.6971551179885864,
				-0.34313100576400757,
				-0.7176269888877869
			],
			"type":"VEC3"
		},
		{
			"bufferView":5,
			"componentType":5126,
			"count":1124,
			"type":"VEC3"
		},
		{
			"bufferView":6,
			"componentType":5126,
			"count":1124,
			"type":"VEC2"
		},
		{
			"bufferView":7,
			"componentType":5123,
			"count":2607,
			"type":"SCALAR"
		}
	],
	"bufferViews":[
		{
			"buffer":0,
			"byteLength":54348,
			"byteOffset":0,
			"target":34962
		},
		{
			"buffer":0,
			"byteLength":54348,
			"byteOffset":54348,
			"target":34962
		},
		{
			"buffer":0,
			"byteLength":36232,
			"byteOffset":108696,
			"target":34962
		},
		{
			"buffer":0,
			"byteLength":16398,
			"byteOffset":144928,
			"target":34963
		},
		{
			"buffer":0,
			"byteLength":13488,
			"byteOffset":161328,
			"target":34962
		},
		{
			"buffer":0,
			"byteLength":13488,
			"byteOffset":174816,
			"target":34962
		},
		{
			"buffer":0,
			"byteLength":8992,
			"byteOffset":188304,
			"target":34962
		},
		{
			"buffer":0,
			"byteLength":5214,
			"byteOffset":197296,
			"target":34963
		}
	],
	"buffers":[
		{
			"byteLength":202512,
			"uri":"blueDice.bin"
		}
	]
}
