{
	"asset":{
		"generator":"Khronos glTF Blender I/O v4.1.63",
		"version":"2.0"
	},
	"scene":0,
	"scenes":[
		{
			"name":"Scene",
			"nodes":[
				0,
				1,
				2,
				3,
				4,
				5,
				6,
				7,
				8,
				9
			]
		}
	],
	"nodes":[
		{
			"mesh":0,
			"name":"Cube",
			"scale":[
				1.2862703800201416,
				1.2862703800201416,
				0.8923275470733643
			],
			"translation":[
				-2.0269508361816406,
				8.485339164733887,
				-0.40658608078956604
			]
		},
		{
			"mesh":1,
			"name":"\u5186",
			"rotation":[
				0.5,
				0.5,
				0.5,
				0.4999999701976776
			],
			"scale":[
				2.304727077484131,
				2.304727077484131,
				4.952414512634277
			],
			"translation":[
				3.2195677757263184,
				4.997577667236328,
				-3.654256582260132
			]
		},
		{
			"mesh":2,
			"name":"\u7acb\u65b9\u4f53",
			"translation":[
				2.9744606018066406,
				7.409887790679932,
				-3.0789968967437744
			]
		},
		{
			"mesh":3,
			"name":"\u7acb\u65b9\u4f53.001",
			"scale":[
				5.985755443572998,
				0.1278182566165924,
				0.1278182566165924
			],
			"translation":[
				3.3809621334075928,
				7.713261604309082,
				-6.156521797180176
			]
		},
		{
			"mesh":4,
			"name":"COL",
			"scale":[
				0.5835058689117432,
				3.8784542083740234,
				1.135976791381836
			],
			"translation":[
				-1.098156213760376,
				3.9203286170959473,
				-3.620396614074707
			]
		},
		{
			"mesh":5,
			"name":"COL.001",
			"scale":[
				0.5835058689117432,
				3.8784542083740234,
				1.135976791381836
			],
			"translation":[
				7.513307571411133,
				3.9203286170959473,
				-3.620396614074707
			]
		},
		{
			"mesh":6,
			"name":"COL.002",
			"rotation":[
				0,
				0,
				-0.7071068286895752,
				0.7071068286895752
			],
			"scale":[
				0.5835058689117432,
				4.288067817687988,
				1.135976791381836
			],
			"translation":[
				3.6578569412231445,
				6.192471504211426,
				-3.5022709369659424
			]
		},
		{
			"mesh":7,
			"name":"COL.003",
			"rotation":[
				0,
				0,
				-0.7071068286895752,
				0.7071068286895752
			],
			"scale":[
				0.5835058689117432,
				4.288067817687988,
				1.135976791381836
			],
			"translation":[
				3.6578569412231445,
				7.5406694412231445,
				-3.5022709369659424
			]
		},
		{
			"mesh":8,
			"name":"COL.007",
			"translation":[
				-2.0173521041870117,
				8.517985343933105,
				-0.411399245262146
			]
		},
		{
			"mesh":9,
			"name":"COL.004",
			"translation":[
				-2.0173521041870117,
				8.517985343933105,
				-7.012086868286133
			]
		}
	],
	"materials":[
		{
			"doubleSided":true,
			"name":"\u30de\u30c6\u30ea\u30a2\u30eb.002",
			"normalTexture":{
				"index":0
			},
			"pbrMetallicRoughness":{
				"baseColorTexture":{
					"index":1
				},
				"metallicFactor":0,
				"roughnessFactor":0.5
			}
		},
		{
			"doubleSided":true,
			"name":"\u30de\u30c6\u30ea\u30a2\u30eb.001",
			"normalTexture":{
				"index":2
			},
			"pbrMetallicRoughness":{
				"baseColorTexture":{
					"index":3
				},
				"metallicFactor":0,
				"roughnessFactor":0.5
			}
		}
	],
	"meshes":[
		{
			"name":"Cube",
			"primitives":[
				{
					"attributes":{
						"POSITION":0,
						"NORMAL":1,
						"TEXCOORD_0":2
					},
					"indices":3,
					"material":0
				}
			]
		},
		{
			"name":"\u5186",
			"primitives":[
				{
					"attributes":{
						"POSITION":4,
						"NORMAL":5,
						"TEXCOORD_0":6
					},
					"indices":7,
					"material":0
				}
			]
		},
		{
			"name":"\u7acb\u65b9\u4f53",
			"primitives":[
				{
					"attributes":{
						"POSITION":8,
						"NORMAL":9,
						"TEXCOORD_0":10
					},
					"indices":11,
					"material":1
				}
			]
		},
		{
			"name":"\u7acb\u65b9\u4f53.001",
			"primitives":[
				{
					"attributes":{
						"POSITION":12,
						"NORMAL":13,
						"TEXCOORD_0":14
					},
					"indices":15,
					"material":1
				}
			]
		},
		{
			"name":"\u7acb\u65b9\u4f53.002",
			"primitives":[
				{
					"attributes":{
						"POSITION":16,
						"NORMAL":17,
						"TEXCOORD_0":18
					},
					"indices":19
				}
			]
		},
		{
			"name":"\u7acb\u65b9\u4f53.003",
			"primitives":[
				{
					"attributes":{
						"POSITION":20,
						"NORMAL":21,
						"TEXCOORD_0":22
					},
					"indices":19
				}
			]
		},
		{
			"name":"\u7acb\u65b9\u4f53.004",
			"primitives":[
				{
					"attributes":{
						"POSITION":23,
						"NORMAL":24,
						"TEXCOORD_0":25
					},
					"indices":19
				}
			]
		},
		{
			"name":"\u7acb\u65b9\u4f53.005",
			"primitives":[
				{
					"attributes":{
						"POSITION":26,
						"NORMAL":27,
						"TEXCOORD_0":28
					},
					"indices":29,
					"material":1
				}
			]
		},
		{
			"name":"\u7acb\u65b9\u4f53.009",
			"primitives":[
				{
					"attributes":{
						"POSITION":30,
						"NORMAL":31,
						"TEXCOORD_0":32
					},
					"indices":33
				}
			]
		},
		{
			"name":"\u7acb\u65b9\u4f53.014",
			"primitives":[
				{
					"attributes":{
						"POSITION":34,
						"NORMAL":35,
						"TEXCOORD_0":36
					},
					"indices":33
				}
			]
		}
	],
	"textures":[
		{
			"sampler":0,
			"source":0
		},
		{
			"sampler":0,
			"source":1
		},
		{
			"sampler":0,
			"source":2
		},
		{
			"sampler":0,
			"source":3
		}
	],
	"images":[
		{
			"mimeType":"image/png",
			"name":"normalS3",
			"uri":"normalS3.png"
		},
		{
			"mimeType":"image/jpeg",
			"name":"sunahekiL03",
			"uri":"sunahekiL03.jpg"
		},
		{
			"mimeType":"image/png",
			"name":"normalstone1",
			"uri":"normalstone1.png"
		},
		{
			"mimeType":"image/jpeg",
			"name":"stone1",
			"uri":"stone1.jpg"
		}
	],
	"accessors":[
		{
			"bufferView":0,
			"componentType":5126,
			"count":1888,
			"max":[
				8.401739120483398,
				0.590732991695404,
				0.23452264070510864
			],
			"min":[
				-0.7501551508903503,
				-0.5908318758010864,
				-7.675001621246338
			],
			"type":"VEC3"
		},
		{
			"bufferView":1,
			"componentType":5126,
			"count":1888,
			"type":"VEC3"
		},
		{
			"bufferView":2,
			"componentType":5126,
			"count":1888,
			"type":"VEC2"
		},
		{
			"bufferView":3,
			"componentType":5123,
			"count":3456,
			"type":"SCALAR"
		},
		{
			"bufferView":4,
			"componentType":5126,
			"count":160,
			"max":[
				0.8256970643997192,
				0.513136088848114,
				0.9807852506637573
			],
			"min":[
				-2.174302816390991,
				-0.5131349563598633,
				-0.9807853698730469
			],
			"type":"VEC3"
		},
		{
			"bufferView":5,
			"componentType":5126,
			"count":160,
			"type":"VEC3"
		},
		{
			"bufferView":6,
			"componentType":5126,
			"count":160,
			"type":"VEC2"
		},
		{
			"bufferView":7,
			"componentType":5123,
			"count":420,
			"type":"SCALAR"
		},
		{
			"bufferView":8,
			"componentType":5126,
			"count":195,
			"max":[
				6.78621244430542,
				0.4000946283340454,
				3.866255521774292
			],
			"min":[
				-6.0799150466918945,
				-0.5500940084457397,
				-4.980184555053711
			],
			"type":"VEC3"
		},
		{
			"bufferView":9,
			"componentType":5126,
			"count":195,
			"type":"VEC3"
		},
		{
			"bufferView":10,
			"componentType":5126,
			"count":195,
			"type":"VEC2"
		},
		{
			"bufferView":11,
			"componentType":5123,
			"count":360,
			"type":"SCALAR"
		},
		{
			"bufferView":12,
			"componentType":5126,
			"count":96,
			"max":[
				1,
				2.4000000953674316,
				53.889835357666016
			],
			"min":[
				-1,
				-1,
				-14.399998664855957
			],
			"type":"VEC3"
		},
		{
			"bufferView":13,
			"componentType":5126,
			"count":96,
			"type":"VEC3"
		},
		{
			"bufferView":14,
			"componentType":5126,
			"count":96,
			"type":"VEC2"
		},
		{
			"bufferView":15,
			"componentType":5123,
			"count":144,
			"type":"SCALAR"
		},
		{
			"bufferView":16,
			"componentType":5126,
			"count":24,
			"max":[
				1,
				0.7729060649871826,
				1
			],
			"min":[
				-1,
				-1,
				-1
			],
			"type":"VEC3"
		},
		{
			"bufferView":17,
			"componentType":5126,
			"count":24,
			"type":"VEC3"
		},
		{
			"bufferView":18,
			"componentType":5126,
			"count":24,
			"type":"VEC2"
		},
		{
			"bufferView":19,
			"componentType":5123,
			"count":36,
			"type":"SCALAR"
		},
		{
			"bufferView":20,
			"componentType":5126,
			"count":24,
			"max":[
				1,
				0.7729060649871826,
				1
			],
			"min":[
				-1,
				-1,
				-1
			],
			"type":"VEC3"
		},
		{
			"bufferView":21,
			"componentType":5126,
			"count":24,
			"type":"VEC3"
		},
		{
			"bufferView":22,
			"componentType":5126,
			"count":24,
			"type":"VEC2"
		},
		{
			"bufferView":23,
			"componentType":5126,
			"count":24,
			"max":[
				1,
				0.7729060649871826,
				1
			],
			"min":[
				-1,
				-1,
				-1
			],
			"type":"VEC3"
		},
		{
			"bufferView":24,
			"componentType":5126,
			"count":24,
			"type":"VEC3"
		},
		{
			"bufferView":25,
			"componentType":5126,
			"count":24,
			"type":"VEC2"
		},
		{
			"bufferView":26,
			"componentType":5126,
			"count":56,
			"max":[
				1.000000238418579,
				1.4176697731018066,
				3.777435541152954
			],
			"min":[
				-0.24659617245197296,
				-1.5783472061157227,
				-4.011692047119141
			],
			"type":"VEC3"
		},
		{
			"bufferView":27,
			"componentType":5126,
			"count":56,
			"type":"VEC3"
		},
		{
			"bufferView":28,
			"componentType":5126,
			"count":56,
			"type":"VEC2"
		},
		{
			"bufferView":29,
			"componentType":5123,
			"count":108,
			"type":"SCALAR"
		},
		{
			"bufferView":30,
			"componentType":5126,
			"count":272,
			"max":[
				10.748345375061035,
				0.7357004880905151,
				0.20692208409309387
			],
			"min":[
				-0.9633215069770813,
				-0.7348737120628357,
				-0.20692205429077148
			],
			"type":"VEC3"
		},
		{
			"bufferView":31,
			"componentType":5126,
			"count":272,
			"type":"VEC3"
		},
		{
			"bufferView":32,
			"componentType":5126,
			"count":272,
			"type":"VEC2"
		},
		{
			"bufferView":33,
			"componentType":5123,
			"count":528,
			"type":"SCALAR"
		},
		{
			"bufferView":34,
			"componentType":5126,
			"count":272,
			"max":[
				10.748345375061035,
				0.7357004880905151,
				0.20692208409309387
			],
			"min":[
				-0.9633215069770813,
				-0.7348737120628357,
				-0.20692205429077148
			],
			"type":"VEC3"
		},
		{
			"bufferView":35,
			"componentType":5126,
			"count":272,
			"type":"VEC3"
		},
		{
			"bufferView":36,
			"componentType":5126,
			"count":272,
			"type":"VEC2"
		}
	],
	"bufferViews":[
		{
			"buffer":0,
			"byteLength":22656,
			"byteOffset":0,
			"target":34962
		},
		{
			"buffer":0,
			"byteLength":22656,
			"byteOffset":22656,
			"target":34962
		},
		{
			"buffer":0,
			"byteLength":15104,
			"byteOffset":45312,
			"target":34962
		},
		{
			"buffer":0,
			"byteLength":6912,
			"byteOffset":60416,
			"target":34963
		},
		{
			"buffer":0,
			"byteLength":1920,
			"byteOffset":67328,
			"target":34962
		},
		{
			"buffer":0,
			"byteLength":1920,
			"byteOffset":69248,
			"target":34962
		},
		{
			"buffer":0,
			"byteLength":1280,
			"byteOffset":71168,
			"target":34962
		},
		{
			"buffer":0,
			"byteLength":840,
			"byteOffset":72448,
			"target":34963
		},
		{
			"buffer":0,
			"byteLength":2340,
			"byteOffset":73288,
			"target":34962
		},
		{
			"buffer":0,
			"byteLength":2340,
			"byteOffset":75628,
			"target":34962
		},
		{
			"buffer":0,
			"byteLength":1560,
			"byteOffset":77968,
			"target":34962
		},
		{
			"buffer":0,
			"byteLength":720,
			"byteOffset":79528,
			"target":34963
		},
		{
			"buffer":0,
			"byteLength":1152,
			"byteOffset":80248,
			"target":34962
		},
		{
			"buffer":0,
			"byteLength":1152,
			"byteOffset":81400,
			"target":34962
		},
		{
			"buffer":0,
			"byteLength":768,
			"byteOffset":82552,
			"target":34962
		},
		{
			"buffer":0,
			"byteLength":288,
			"byteOffset":83320,
			"target":34963
		},
		{
			"buffer":0,
			"byteLength":288,
			"byteOffset":83608,
			"target":34962
		},
		{
			"buffer":0,
			"byteLength":288,
			"byteOffset":83896,
			"target":34962
		},
		{
			"buffer":0,
			"byteLength":192,
			"byteOffset":84184,
			"target":34962
		},
		{
			"buffer":0,
			"byteLength":72,
			"byteOffset":84376,
			"target":34963
		},
		{
			"buffer":0,
			"byteLength":288,
			"byteOffset":84448,
			"target":34962
		},
		{
			"buffer":0,
			"byteLength":288,
			"byteOffset":84736,
			"target":34962
		},
		{
			"buffer":0,
			"byteLength":192,
			"byteOffset":85024,
			"target":34962
		},
		{
			"buffer":0,
			"byteLength":288,
			"byteOffset":85216,
			"target":34962
		},
		{
			"buffer":0,
			"byteLength":288,
			"byteOffset":85504,
			"target":34962
		},
		{
			"buffer":0,
			"byteLength":192,
			"byteOffset":85792,
			"target":34962
		},
		{
			"buffer":0,
			"byteLength":672,
			"byteOffset":85984,
			"target":34962
		},
		{
			"buffer":0,
			"byteLength":672,
			"byteOffset":86656,
			"target":34962
		},
		{
			"buffer":0,
			"byteLength":448,
			"byteOffset":87328,
			"target":34962
		},
		{
			"buffer":0,
			"byteLength":216,
			"byteOffset":87776,
			"target":34963
		},
		{
			"buffer":0,
			"byteLength":3264,
			"byteOffset":87992,
			"target":34962
		},
		{
			"buffer":0,
			"byteLength":3264,
			"byteOffset":91256,
			"target":34962
		},
		{
			"buffer":0,
			"byteLength":2176,
			"byteOffset":94520,
			"target":34962
		},
		{
			"buffer":0,
			"byteLength":1056,
			"byteOffset":96696,
			"target":34963
		},
		{
			"buffer":0,
			"byteLength":3264,
			"byteOffset":97752,
			"target":34962
		},
		{
			"buffer":0,
			"byteLength":3264,
			"byteOffset":101016,
			"target":34962
		},
		{
			"buffer":0,
			"byteLength":2176,
			"byteOffset":104280,
			"target":34962
		}
	],
	"samplers":[
		{
			"magFilter":9729,
			"minFilter":9987
		}
	],
	"buffers":[
		{
			"byteLength":106456,
			"uri":"Bridge.bin"
		}
	]
}
