{
	"asset":{
		"generator":"Khronos glTF Blender I/O v4.1.63",
		"version":"2.0"
	},
	"scene":0,
	"scenes":[
		{
			"name":"Scene",
			"nodes":[
				0,
				1,
				2
			]
		}
	],
	"nodes":[
		{
			"mesh":0,
			"name":"\u5186",
			"rotation":[
				-0.6536388993263245,
				0.6643755435943604,
				-0.25836148858070374,
				0.2541862726211548
			],
			"scale":[
				0.7567824721336365,
				1.4182565212249756,
				1.4730743169784546
			],
			"translation":[
				0.002711375942453742,
				0.010512113571166992,
				-0.0464368537068367
			]
		},
		{
			"mesh":1,
			"name":"\u7403",
			"scale":[
				0.07677610963582993,
				0.07677610963582993,
				0.07677610963582993
			],
			"translation":[
				-0.0010551195591688156,
				-0.005916595458984375,
				0.03598637878894806
			]
		},
		{
			"name":"ShotPoint",
			"scale":[
				2.367447853088379,
				2.367447853088379,
				2.367447853088379
			],
			"translation":[
				-0.0005569683853536844,
				-0.00854945182800293,
				-0.04755978286266327
			]
		}
	],
	"materials":[
		{
			"doubleSided":true,
			"name":"Material",
			"normalTexture":{
				"index":0
			},
			"pbrMetallicRoughness":{
				"baseColorTexture":{
					"index":1
				},
				"metallicFactor":0,
				"roughnessFactor":0.5
			}
		},
		{
			"doubleSided":true,
			"emissiveFactor":[
				0.05025123804807663,
				1,
				0.13496026396751404
			],
			"name":"\u30de\u30c6\u30ea\u30a2\u30eb",
			"pbrMetallicRoughness":{
				"baseColorTexture":{
					"index":2
				},
				"metallicFactor":0,
				"roughnessFactor":0.5
			}
		}
	],
	"meshes":[
		{
			"name":"\u5186.001",
			"primitives":[
				{
					"attributes":{
						"POSITION":0,
						"NORMAL":1,
						"TEXCOORD_0":2
					},
					"indices":3,
					"material":0
				}
			]
		},
		{
			"name":"\u7403",
			"primitives":[
				{
					"attributes":{
						"POSITION":4,
						"NORMAL":5,
						"TEXCOORD_0":6
					},
					"indices":7,
					"material":1
				}
			]
		}
	],
	"textures":[
		{
			"sampler":0,
			"source":0
		},
		{
			"sampler":0,
			"source":1
		},
		{
			"sampler":0,
			"source":1
		}
	],
	"images":[
		{
			"mimeType":"image/png",
			"name":"normalstone2",
			"uri":"normalstone2.png"
		},
		{
			"mimeType":"image/jpeg",
			"name":"stone2",
			"uri":"stone2.jpg"
		}
	],
	"accessors":[
		{
			"bufferView":0,
			"componentType":5126,
			"count":128,
			"max":[
				0.42230531573295593,
				0.14283226430416107,
				0.13599500060081482
			],
			"min":[
				-0.4220603108406067,
				-0.28176504373550415,
				-0.28465941548347473
			],
			"type":"VEC3"
		},
		{
			"bufferView":1,
			"componentType":5126,
			"count":128,
			"type":"VEC3"
		},
		{
			"bufferView":2,
			"componentType":5126,
			"count":128,
			"type":"VEC2"
		},
		{
			"bufferView":3,
			"componentType":5123,
			"count":192,
			"type":"SCALAR"
		},
		{
			"bufferView":4,
			"componentType":5126,
			"count":480,
			"max":[
				1,
				1,
				1
			],
			"min":[
				-0.9999999403953552,
				-1,
				-1
			],
			"type":"VEC3"
		},
		{
			"bufferView":5,
			"componentType":5126,
			"count":480,
			"type":"VEC3"
		},
		{
			"bufferView":6,
			"componentType":5126,
			"count":480,
			"type":"VEC2"
		},
		{
			"bufferView":7,
			"componentType":5123,
			"count":672,
			"type":"SCALAR"
		}
	],
	"bufferViews":[
		{
			"buffer":0,
			"byteLength":1536,
			"byteOffset":0,
			"target":34962
		},
		{
			"buffer":0,
			"byteLength":1536,
			"byteOffset":1536,
			"target":34962
		},
		{
			"buffer":0,
			"byteLength":1024,
			"byteOffset":3072,
			"target":34962
		},
		{
			"buffer":0,
			"byteLength":384,
			"byteOffset":4096,
			"target":34963
		},
		{
			"buffer":0,
			"byteLength":5760,
			"byteOffset":4480,
			"target":34962
		},
		{
			"buffer":0,
			"byteLength":5760,
			"byteOffset":10240,
			"target":34962
		},
		{
			"buffer":0,
			"byteLength":3840,
			"byteOffset":16000,
			"target":34962
		},
		{
			"buffer":0,
			"byteLength":1344,
			"byteOffset":19840,
			"target":34963
		}
	],
	"samplers":[
		{
			"magFilter":9729,
			"minFilter":9987
		}
	],
	"buffers":[
		{
			"byteLength":21184,
			"uri":"Turret.bin"
		}
	]
}
