{
	"asset":{
		"generator":"Khronos glTF Blender I/O v4.1.63",
		"version":"2.0"
	},
	"scene":0,
	"scenes":[
		{
			"name":"Scene",
			"nodes":[
				0,
				1,
				2,
				3
			]
		}
	],
	"nodes":[
		{
			"mesh":0,
			"name":"\u5186\u9310",
			"translation":[
				0,
				1.001773476600647,
				0
			]
		},
		{
			"mesh":1,
			"name":"\u5186",
			"rotation":[
				-0.6536388993263245,
				0.6643755435943604,
				-0.25836148858070374,
				0.2541862726211548
			],
			"scale":[
				0.3196616768836975,
				0.5990654826164246,
				0.6222203373908997
			],
			"translation":[
				0.0013569248840212822,
				1.0488969087600708,
				-0.030783720314502716
			]
		},
		{
			"mesh":2,
			"name":"\u7403",
			"scale":[
				0.032429903745651245,
				0.032429903745651245,
				0.032429903745651245
			],
			"translation":[
				-0.0002340269275009632,
				1.0419574975967407,
				0.004031505435705185
			]
		},
		{
			"name":"ShotPoint",
			"translation":[
				-2.3609958589076996e-05,
				1.0408453941345215,
				-0.03125803917646408
			]
		}
	],
	"materials":[
		{
			"doubleSided":true,
			"name":"Material",
			"normalTexture":{
				"index":0
			},
			"pbrMetallicRoughness":{
				"baseColorTexture":{
					"index":1
				},
				"metallicFactor":0,
				"roughnessFactor":0.5
			}
		},
		{
			"doubleSided":true,
			"emissiveFactor":[
				0.05025123804807663,
				1,
				0.13496026396751404
			],
			"name":"\u30de\u30c6\u30ea\u30a2\u30eb",
			"pbrMetallicRoughness":{
				"baseColorTexture":{
					"index":2
				},
				"metallicFactor":0,
				"roughnessFactor":0.5
			}
		}
	],
	"meshes":[
		{
			"name":"\u5186\u9310",
			"primitives":[
				{
					"attributes":{
						"POSITION":0,
						"NORMAL":1,
						"TEXCOORD_0":2
					},
					"indices":3,
					"material":0
				}
			]
		},
		{
			"name":"\u5186.001",
			"primitives":[
				{
					"attributes":{
						"POSITION":4,
						"NORMAL":5,
						"TEXCOORD_0":6
					},
					"indices":7,
					"material":0
				}
			]
		},
		{
			"name":"\u7403",
			"primitives":[
				{
					"attributes":{
						"POSITION":8,
						"NORMAL":9,
						"TEXCOORD_0":10
					},
					"indices":11,
					"material":1
				}
			]
		}
	],
	"textures":[
		{
			"sampler":0,
			"source":0
		},
		{
			"sampler":0,
			"source":1
		},
		{
			"sampler":0,
			"source":1
		}
	],
	"images":[
		{
			"mimeType":"image/png",
			"name":"normalstone2",
			"uri":"normalstone2.png"
		},
		{
			"mimeType":"image/jpeg",
			"name":"stone2",
			"uri":"stone2.jpg"
		}
	],
	"accessors":[
		{
			"bufferView":0,
			"componentType":5126,
			"count":48,
			"max":[
				0.30174630880355835,
				-0.11199033260345459,
				0.30174630880355835
			],
			"min":[
				-0.30174630880355835,
				-1,
				-0.30174630880355835
			],
			"type":"VEC3"
		},
		{
			"bufferView":1,
			"componentType":5126,
			"count":48,
			"type":"VEC3"
		},
		{
			"bufferView":2,
			"componentType":5126,
			"count":48,
			"type":"VEC2"
		},
		{
			"bufferView":3,
			"componentType":5123,
			"count":84,
			"type":"SCALAR"
		},
		{
			"bufferView":4,
			"componentType":5126,
			"count":128,
			"max":[
				0.42230531573295593,
				0.14283226430416107,
				0.13599500060081482
			],
			"min":[
				-0.4220603108406067,
				-0.28176504373550415,
				-0.28465941548347473
			],
			"type":"VEC3"
		},
		{
			"bufferView":5,
			"componentType":5126,
			"count":128,
			"type":"VEC3"
		},
		{
			"bufferView":6,
			"componentType":5126,
			"count":128,
			"type":"VEC2"
		},
		{
			"bufferView":7,
			"componentType":5123,
			"count":192,
			"type":"SCALAR"
		},
		{
			"bufferView":8,
			"componentType":5126,
			"count":480,
			"max":[
				1,
				1,
				1
			],
			"min":[
				-0.9999999403953552,
				-1,
				-1
			],
			"type":"VEC3"
		},
		{
			"bufferView":9,
			"componentType":5126,
			"count":480,
			"type":"VEC3"
		},
		{
			"bufferView":10,
			"componentType":5126,
			"count":480,
			"type":"VEC2"
		},
		{
			"bufferView":11,
			"componentType":5123,
			"count":672,
			"type":"SCALAR"
		}
	],
	"bufferViews":[
		{
			"buffer":0,
			"byteLength":576,
			"byteOffset":0,
			"target":34962
		},
		{
			"buffer":0,
			"byteLength":576,
			"byteOffset":576,
			"target":34962
		},
		{
			"buffer":0,
			"byteLength":384,
			"byteOffset":1152,
			"target":34962
		},
		{
			"buffer":0,
			"byteLength":168,
			"byteOffset":1536,
			"target":34963
		},
		{
			"buffer":0,
			"byteLength":1536,
			"byteOffset":1704,
			"target":34962
		},
		{
			"buffer":0,
			"byteLength":1536,
			"byteOffset":3240,
			"target":34962
		},
		{
			"buffer":0,
			"byteLength":1024,
			"byteOffset":4776,
			"target":34962
		},
		{
			"buffer":0,
			"byteLength":384,
			"byteOffset":5800,
			"target":34963
		},
		{
			"buffer":0,
			"byteLength":5760,
			"byteOffset":6184,
			"target":34962
		},
		{
			"buffer":0,
			"byteLength":5760,
			"byteOffset":11944,
			"target":34962
		},
		{
			"buffer":0,
			"byteLength":3840,
			"byteOffset":17704,
			"target":34962
		},
		{
			"buffer":0,
			"byteLength":1344,
			"byteOffset":21544,
			"target":34963
		}
	],
	"samplers":[
		{
			"magFilter":9729,
			"minFilter":9987
		}
	],
	"buffers":[
		{
			"byteLength":22888,
			"uri":"Turret.bin"
		}
	]
}
