{
	"asset":{
		"generator":"Khronos glTF Blender I/O v4.1.63",
		"version":"2.0"
	},
	"scene":0,
	"scenes":[
		{
			"name":"Scene",
			"nodes":[
				0,
				1,
				2,
				3,
				4
			]
		}
	],
	"nodes":[
		{
			"mesh":0,
			"name":"COL01",
			"scale":[
				1.8124127388000488,
				1,
				1.9225163459777832
			]
		},
		{
			"mesh":1,
			"name":"Pedestal.001",
			"translation":[
				0,
				0,
				-15.019359588623047
			]
		},
		{
			"mesh":2,
			"name":"Pedestal"
		},
		{
			"mesh":3,
			"name":"\u5186",
			"rotation":[
				0,
				0,
				-0.7071068286895752,
				0.7071068286895752
			],
			"scale":[
				7.812150478363037,
				7.254964351654053,
				7.812150478363037
			],
			"translation":[
				-2.066293954849243,
				18.198564529418945,
				-7.60711669921875
			]
		},
		{
			"mesh":4,
			"name":"\u7acb\u65b9\u4f53.001",
			"scale":[
				1,
				14.928547859191895,
				7.813387393951416
			],
			"translation":[
				-14.974567413330078,
				13.326857566833496,
				-7.644392490386963
			]
		}
	],
	"materials":[
		{
			"doubleSided":true,
			"name":"\u30de\u30c6\u30ea\u30a2\u30eb.001",
			"normalTexture":{
				"index":0
			},
			"pbrMetallicRoughness":{
				"baseColorTexture":{
					"index":1
				},
				"metallicFactor":0,
				"roughnessFactor":0.5
			}
		}
	],
	"meshes":[
		{
			"name":"\u7acb\u65b9\u4f53.003",
			"primitives":[
				{
					"attributes":{
						"POSITION":0,
						"NORMAL":1,
						"TEXCOORD_0":2
					},
					"indices":3
				}
			]
		},
		{
			"name":"Cube.001",
			"primitives":[
				{
					"attributes":{
						"POSITION":4,
						"NORMAL":5,
						"TEXCOORD_0":6,
						"TEXCOORD_1":7
					},
					"indices":8,
					"material":0
				}
			]
		},
		{
			"name":"Cube",
			"primitives":[
				{
					"attributes":{
						"POSITION":9,
						"NORMAL":10,
						"TEXCOORD_0":11,
						"TEXCOORD_1":12
					},
					"indices":13,
					"material":0
				}
			]
		},
		{
			"name":"\u5186",
			"primitives":[
				{
					"attributes":{
						"POSITION":14,
						"NORMAL":15,
						"TEXCOORD_0":16
					},
					"indices":17,
					"material":0
				}
			]
		},
		{
			"name":"\u7acb\u65b9\u4f53.006",
			"primitives":[
				{
					"attributes":{
						"POSITION":18,
						"NORMAL":19,
						"TEXCOORD_0":20
					},
					"indices":21,
					"material":0
				}
			]
		}
	],
	"textures":[
		{
			"sampler":0,
			"source":0
		},
		{
			"sampler":0,
			"source":1
		}
	],
	"images":[
		{
			"mimeType":"image/png",
			"name":"normalstone2",
			"uri":"normalstone2.png"
		},
		{
			"mimeType":"image/jpeg",
			"name":"stone2",
			"uri":"stone2.jpg"
		}
	],
	"accessors":[
		{
			"bufferView":0,
			"componentType":5126,
			"count":131,
			"max":[
				1.261998176574707,
				28.390636444091797,
				1
			],
			"min":[
				-8.90640640258789,
				-1.4779852628707886,
				-8.719340324401855
			],
			"type":"VEC3"
		},
		{
			"bufferView":1,
			"componentType":5126,
			"count":131,
			"type":"VEC3"
		},
		{
			"bufferView":2,
			"componentType":5126,
			"count":131,
			"type":"VEC2"
		},
		{
			"bufferView":3,
			"componentType":5123,
			"count":216,
			"type":"SCALAR"
		},
		{
			"bufferView":4,
			"componentType":5126,
			"count":1798,
			"max":[
				2.0648839473724365,
				18.26296615600586,
				2.0865705013275146
			],
			"min":[
				-2.0648839473724365,
				-0.9918712973594666,
				-2.0723838806152344
			],
			"type":"VEC3"
		},
		{
			"bufferView":5,
			"componentType":5126,
			"count":1798,
			"type":"VEC3"
		},
		{
			"bufferView":6,
			"componentType":5126,
			"count":1798,
			"type":"VEC2"
		},
		{
			"bufferView":7,
			"componentType":5126,
			"count":1798,
			"type":"VEC2"
		},
		{
			"bufferView":8,
			"componentType":5123,
			"count":4356,
			"type":"SCALAR"
		},
		{
			"bufferView":9,
			"componentType":5126,
			"count":1984,
			"max":[
				2.0648839473724365,
				18.26296615600586,
				2.086568832397461
			],
			"min":[
				-2.0648839473724365,
				-0.9918714761734009,
				-2.0723841190338135
			],
			"type":"VEC3"
		},
		{
			"bufferView":10,
			"componentType":5126,
			"count":1984,
			"type":"VEC3"
		},
		{
			"bufferView":11,
			"componentType":5126,
			"count":1984,
			"type":"VEC2"
		},
		{
			"bufferView":12,
			"componentType":5126,
			"count":1984,
			"type":"VEC2"
		},
		{
			"bufferView":13,
			"componentType":5123,
			"count":4788,
			"type":"SCALAR"
		},
		{
			"bufferView":14,
			"componentType":5126,
			"count":284,
			"max":[
				6.336928493055893e-08,
				0.5746148824691772,
				1
			],
			"min":[
				-1.2884693145751953,
				-5.632077915151967e-08,
				-1
			],
			"type":"VEC3"
		},
		{
			"bufferView":15,
			"componentType":5126,
			"count":284,
			"type":"VEC3"
		},
		{
			"bufferView":16,
			"componentType":5126,
			"count":284,
			"type":"VEC2"
		},
		{
			"bufferView":17,
			"componentType":5123,
			"count":804,
			"type":"SCALAR"
		},
		{
			"bufferView":18,
			"componentType":5126,
			"count":44,
			"max":[
				12.93172550201416,
				0.9999999403953552,
				1
			],
			"min":[
				-0.9999990463256836,
				-0.9208207130432129,
				-0.9999999403953552
			],
			"type":"VEC3"
		},
		{
			"bufferView":19,
			"componentType":5126,
			"count":44,
			"type":"VEC3"
		},
		{
			"bufferView":20,
			"componentType":5126,
			"count":44,
			"type":"VEC2"
		},
		{
			"bufferView":21,
			"componentType":5123,
			"count":84,
			"type":"SCALAR"
		}
	],
	"bufferViews":[
		{
			"buffer":0,
			"byteLength":1572,
			"byteOffset":0,
			"target":34962
		},
		{
			"buffer":0,
			"byteLength":1572,
			"byteOffset":1572,
			"target":34962
		},
		{
			"buffer":0,
			"byteLength":1048,
			"byteOffset":3144,
			"target":34962
		},
		{
			"buffer":0,
			"byteLength":432,
			"byteOffset":4192,
			"target":34963
		},
		{
			"buffer":0,
			"byteLength":21576,
			"byteOffset":4624,
			"target":34962
		},
		{
			"buffer":0,
			"byteLength":21576,
			"byteOffset":26200,
			"target":34962
		},
		{
			"buffer":0,
			"byteLength":14384,
			"byteOffset":47776,
			"target":34962
		},
		{
			"buffer":0,
			"byteLength":14384,
			"byteOffset":62160,
			"target":34962
		},
		{
			"buffer":0,
			"byteLength":8712,
			"byteOffset":76544,
			"target":34963
		},
		{
			"buffer":0,
			"byteLength":23808,
			"byteOffset":85256,
			"target":34962
		},
		{
			"buffer":0,
			"byteLength":23808,
			"byteOffset":109064,
			"target":34962
		},
		{
			"buffer":0,
			"byteLength":15872,
			"byteOffset":132872,
			"target":34962
		},
		{
			"buffer":0,
			"byteLength":15872,
			"byteOffset":148744,
			"target":34962
		},
		{
			"buffer":0,
			"byteLength":9576,
			"byteOffset":164616,
			"target":34963
		},
		{
			"buffer":0,
			"byteLength":3408,
			"byteOffset":174192,
			"target":34962
		},
		{
			"buffer":0,
			"byteLength":3408,
			"byteOffset":177600,
			"target":34962
		},
		{
			"buffer":0,
			"byteLength":2272,
			"byteOffset":181008,
			"target":34962
		},
		{
			"buffer":0,
			"byteLength":1608,
			"byteOffset":183280,
			"target":34963
		},
		{
			"buffer":0,
			"byteLength":528,
			"byteOffset":184888,
			"target":34962
		},
		{
			"buffer":0,
			"byteLength":528,
			"byteOffset":185416,
			"target":34962
		},
		{
			"buffer":0,
			"byteLength":352,
			"byteOffset":185944,
			"target":34962
		},
		{
			"buffer":0,
			"byteLength":168,
			"byteOffset":186296,
			"target":34963
		}
	],
	"samplers":[
		{
			"magFilter":9729,
			"minFilter":9987
		}
	],
	"buffers":[
		{
			"byteLength":186464,
			"uri":"Wall.bin"
		}
	]
}
