{
	"asset":{
		"generator":"Khronos glTF Blender I/O v4.1.63",
		"version":"2.0"
	},
	"scene":0,
	"scenes":[
		{
			"name":"Scene",
			"nodes":[
				0,
				1,
				2,
				3,
				4,
				5,
				6,
				7,
				8,
				9,
				10
			]
		}
	],
	"nodes":[
		{
			"mesh":0,
			"name":"COL.001",
			"scale":[
				1.8124127388000488,
				1,
				1.9225163459777832
			],
			"translation":[
				-14.970955848693848,
				-0.4779854416847229,
				-7.59370231628418
			]
		},
		{
			"mesh":1,
			"name":"COL",
			"scale":[
				1.8124127388000488,
				1,
				1.9225163459777832
			]
		},
		{
			"mesh":2,
			"name":"COL.002",
			"scale":[
				1.8124127388000488,
				1,
				1.9225163459777832
			],
			"translation":[
				0,
				0,
				-14.840558052062988
			]
		},
		{
			"mesh":3,
			"name":"Pedestal.001",
			"translation":[
				0,
				0,
				-15.019359588623047
			]
		},
		{
			"mesh":4,
			"name":"Top.001",
			"scale":[
				2.0648837089538574,
				2.0648837089538574,
				2.0648837089538574
			],
			"translation":[
				0,
				16.71544075012207,
				-14.997673034667969
			]
		},
		{
			"mesh":5,
			"name":"\u5186\u67f1.001",
			"translation":[
				0,
				4.531583786010742,
				-15.019359588623047
			]
		},
		{
			"mesh":6,
			"name":"Pedestal"
		},
		{
			"mesh":7,
			"name":"Top",
			"scale":[
				2.0648837089538574,
				2.0648837089538574,
				2.0648837089538574
			],
			"translation":[
				0,
				16.71544075012207,
				0.021684937179088593
			]
		},
		{
			"mesh":8,
			"name":"\u5186\u67f1",
			"translation":[
				0,
				4.531583786010742,
				0
			]
		},
		{
			"mesh":9,
			"name":"\u5186",
			"rotation":[
				0,
				0,
				-0.7071068286895752,
				0.7071068286895752
			],
			"scale":[
				7.812150478363037,
				7.254964351654053,
				7.812150478363037
			],
			"translation":[
				-2.066293954849243,
				18.198564529418945,
				-7.60711669921875
			]
		},
		{
			"mesh":10,
			"name":"\u7acb\u65b9\u4f53.001",
			"scale":[
				1,
				14.928547859191895,
				7.813387393951416
			],
			"translation":[
				-14.974567413330078,
				13.326857566833496,
				-7.644392490386963
			]
		}
	],
	"materials":[
		{
			"doubleSided":true,
			"name":"\u30de\u30c6\u30ea\u30a2\u30eb.001",
			"pbrMetallicRoughness":{
				"baseColorTexture":{
					"index":0
				},
				"metallicFactor":0,
				"roughnessFactor":0.5
			}
		}
	],
	"meshes":[
		{
			"name":"\u7acb\u65b9\u4f53.002",
			"primitives":[
				{
					"attributes":{
						"POSITION":0,
						"NORMAL":1,
						"TEXCOORD_0":2
					},
					"indices":3
				}
			]
		},
		{
			"name":"\u7acb\u65b9\u4f53.003",
			"primitives":[
				{
					"attributes":{
						"POSITION":4,
						"NORMAL":5,
						"TEXCOORD_0":6
					},
					"indices":7
				}
			]
		},
		{
			"name":"\u7acb\u65b9\u4f53.004",
			"primitives":[
				{
					"attributes":{
						"POSITION":8,
						"NORMAL":9,
						"TEXCOORD_0":10
					},
					"indices":7
				}
			]
		},
		{
			"name":"Cube.001",
			"primitives":[
				{
					"attributes":{
						"POSITION":11,
						"NORMAL":12,
						"TEXCOORD_0":13
					},
					"indices":14,
					"material":0
				}
			]
		},
		{
			"name":"\u7acb\u65b9\u4f53.001",
			"primitives":[
				{
					"attributes":{
						"POSITION":15,
						"NORMAL":16,
						"TEXCOORD_0":17
					},
					"indices":18,
					"material":0
				}
			]
		},
		{
			"name":"\u5186\u67f1.001",
			"primitives":[
				{
					"attributes":{
						"POSITION":19,
						"NORMAL":20,
						"TEXCOORD_0":21
					},
					"indices":22,
					"material":0
				}
			]
		},
		{
			"name":"Cube",
			"primitives":[
				{
					"attributes":{
						"POSITION":23,
						"NORMAL":24,
						"TEXCOORD_0":25
					},
					"indices":26,
					"material":0
				}
			]
		},
		{
			"name":"\u7acb\u65b9\u4f53",
			"primitives":[
				{
					"attributes":{
						"POSITION":27,
						"NORMAL":28,
						"TEXCOORD_0":29
					},
					"indices":18,
					"material":0
				}
			]
		},
		{
			"name":"\u5186\u67f1",
			"primitives":[
				{
					"attributes":{
						"POSITION":30,
						"NORMAL":31,
						"TEXCOORD_0":32
					},
					"indices":22,
					"material":0
				}
			]
		},
		{
			"name":"\u5186",
			"primitives":[
				{
					"attributes":{
						"POSITION":33,
						"NORMAL":34,
						"TEXCOORD_0":35
					},
					"indices":36,
					"material":0
				}
			]
		},
		{
			"name":"\u7acb\u65b9\u4f53.006",
			"primitives":[
				{
					"attributes":{
						"POSITION":37,
						"NORMAL":38,
						"TEXCOORD_0":39
					},
					"indices":40,
					"material":0
				}
			]
		}
	],
	"textures":[
		{
			"sampler":0,
			"source":0
		}
	],
	"images":[
		{
			"mimeType":"image/jpeg",
			"name":"keisodoL02",
			"uri":"keisodoL02.jpg"
		}
	],
	"accessors":[
		{
			"bufferView":0,
			"componentType":5126,
			"count":85,
			"max":[
				9.522233963012695,
				28.868623733520508,
				4.046586990356445
			],
			"min":[
				-0.6461719870567322,
				-0.9999999403953552,
				-4.106934547424316
			],
			"type":"VEC3"
		},
		{
			"bufferView":1,
			"componentType":5126,
			"count":85,
			"type":"VEC3"
		},
		{
			"bufferView":2,
			"componentType":5126,
			"count":85,
			"type":"VEC2"
		},
		{
			"bufferView":3,
			"componentType":5123,
			"count":144,
			"type":"SCALAR"
		},
		{
			"bufferView":4,
			"componentType":5126,
			"count":24,
			"max":[
				1,
				18.51056480407715,
				1
			],
			"min":[
				-1,
				-1,
				-1
			],
			"type":"VEC3"
		},
		{
			"bufferView":5,
			"componentType":5126,
			"count":24,
			"type":"VEC3"
		},
		{
			"bufferView":6,
			"componentType":5126,
			"count":24,
			"type":"VEC2"
		},
		{
			"bufferView":7,
			"componentType":5123,
			"count":36,
			"type":"SCALAR"
		},
		{
			"bufferView":8,
			"componentType":5126,
			"count":24,
			"max":[
				1,
				18.51056480407715,
				1
			],
			"min":[
				-1,
				-1,
				-1
			],
			"type":"VEC3"
		},
		{
			"bufferView":9,
			"componentType":5126,
			"count":24,
			"type":"VEC3"
		},
		{
			"bufferView":10,
			"componentType":5126,
			"count":24,
			"type":"VEC2"
		},
		{
			"bufferView":11,
			"componentType":5126,
			"count":96,
			"max":[
				2.0248570442199707,
				3.48231840133667,
				2.0723838806152344
			],
			"min":[
				-2.0248570442199707,
				-0.9918712973594666,
				-2.0723838806152344
			],
			"type":"VEC3"
		},
		{
			"bufferView":12,
			"componentType":5126,
			"count":96,
			"type":"VEC3"
		},
		{
			"bufferView":13,
			"componentType":5126,
			"count":96,
			"type":"VEC2"
		},
		{
			"bufferView":14,
			"componentType":5123,
			"count":144,
			"type":"SCALAR"
		},
		{
			"bufferView":15,
			"componentType":5126,
			"count":1510,
			"max":[
				1.0000001192092896,
				0.7494487166404724,
				1.0000001192092896
			],
			"min":[
				-1.0000001192092896,
				0.023343466222286224,
				-1.0000001192092896
			],
			"type":"VEC3"
		},
		{
			"bufferView":16,
			"componentType":5126,
			"count":1510,
			"type":"VEC3"
		},
		{
			"bufferView":17,
			"componentType":5126,
			"count":1510,
			"type":"VEC2"
		},
		{
			"bufferView":18,
			"componentType":5123,
			"count":3840,
			"type":"SCALAR"
		},
		{
			"bufferView":19,
			"componentType":5126,
			"count":192,
			"max":[
				1,
				12.21717357635498,
				1
			],
			"min":[
				-1,
				-1,
				-1
			],
			"type":"VEC3"
		},
		{
			"bufferView":20,
			"componentType":5126,
			"count":192,
			"type":"VEC3"
		},
		{
			"bufferView":21,
			"componentType":5126,
			"count":192,
			"type":"VEC2"
		},
		{
			"bufferView":22,
			"componentType":5123,
			"count":372,
			"type":"SCALAR"
		},
		{
			"bufferView":23,
			"componentType":5126,
			"count":282,
			"max":[
				2.02485728263855,
				3.482318878173828,
				2.0723841190338135
			],
			"min":[
				-2.02485728263855,
				-0.9918714761734009,
				-2.0723841190338135
			],
			"type":"VEC3"
		},
		{
			"bufferView":24,
			"componentType":5126,
			"count":282,
			"type":"VEC3"
		},
		{
			"bufferView":25,
			"componentType":5126,
			"count":282,
			"type":"VEC2"
		},
		{
			"bufferView":26,
			"componentType":5123,
			"count":576,
			"type":"SCALAR"
		},
		{
			"bufferView":27,
			"componentType":5126,
			"count":1510,
			"max":[
				1.0000001192092896,
				0.7494487166404724,
				1.0000001192092896
			],
			"min":[
				-1.0000001192092896,
				0.023343466222286224,
				-1.0000001192092896
			],
			"type":"VEC3"
		},
		{
			"bufferView":28,
			"componentType":5126,
			"count":1510,
			"type":"VEC3"
		},
		{
			"bufferView":29,
			"componentType":5126,
			"count":1510,
			"type":"VEC2"
		},
		{
			"bufferView":30,
			"componentType":5126,
			"count":192,
			"max":[
				1,
				12.21717357635498,
				1
			],
			"min":[
				-1,
				-1,
				-1
			],
			"type":"VEC3"
		},
		{
			"bufferView":31,
			"componentType":5126,
			"count":192,
			"type":"VEC3"
		},
		{
			"bufferView":32,
			"componentType":5126,
			"count":192,
			"type":"VEC2"
		},
		{
			"bufferView":33,
			"componentType":5126,
			"count":284,
			"max":[
				6.336928493055893e-08,
				0.5746148824691772,
				1
			],
			"min":[
				-1.2884693145751953,
				-5.632077915151967e-08,
				-1
			],
			"type":"VEC3"
		},
		{
			"bufferView":34,
			"componentType":5126,
			"count":284,
			"type":"VEC3"
		},
		{
			"bufferView":35,
			"componentType":5126,
			"count":284,
			"type":"VEC2"
		},
		{
			"bufferView":36,
			"componentType":5123,
			"count":804,
			"type":"SCALAR"
		},
		{
			"bufferView":37,
			"componentType":5126,
			"count":44,
			"max":[
				12.93172550201416,
				0.9999999403953552,
				1
			],
			"min":[
				-0.9999990463256836,
				-0.9208207130432129,
				-0.9999999403953552
			],
			"type":"VEC3"
		},
		{
			"bufferView":38,
			"componentType":5126,
			"count":44,
			"type":"VEC3"
		},
		{
			"bufferView":39,
			"componentType":5126,
			"count":44,
			"type":"VEC2"
		},
		{
			"bufferView":40,
			"componentType":5123,
			"count":84,
			"type":"SCALAR"
		}
	],
	"bufferViews":[
		{
			"buffer":0,
			"byteLength":1020,
			"byteOffset":0,
			"target":34962
		},
		{
			"buffer":0,
			"byteLength":1020,
			"byteOffset":1020,
			"target":34962
		},
		{
			"buffer":0,
			"byteLength":680,
			"byteOffset":2040,
			"target":34962
		},
		{
			"buffer":0,
			"byteLength":288,
			"byteOffset":2720,
			"target":34963
		},
		{
			"buffer":0,
			"byteLength":288,
			"byteOffset":3008,
			"target":34962
		},
		{
			"buffer":0,
			"byteLength":288,
			"byteOffset":3296,
			"target":34962
		},
		{
			"buffer":0,
			"byteLength":192,
			"byteOffset":3584,
			"target":34962
		},
		{
			"buffer":0,
			"byteLength":72,
			"byteOffset":3776,
			"target":34963
		},
		{
			"buffer":0,
			"byteLength":288,
			"byteOffset":3848,
			"target":34962
		},
		{
			"buffer":0,
			"byteLength":288,
			"byteOffset":4136,
			"target":34962
		},
		{
			"buffer":0,
			"byteLength":192,
			"byteOffset":4424,
			"target":34962
		},
		{
			"buffer":0,
			"byteLength":1152,
			"byteOffset":4616,
			"target":34962
		},
		{
			"buffer":0,
			"byteLength":1152,
			"byteOffset":5768,
			"target":34962
		},
		{
			"buffer":0,
			"byteLength":768,
			"byteOffset":6920,
			"target":34962
		},
		{
			"buffer":0,
			"byteLength":288,
			"byteOffset":7688,
			"target":34963
		},
		{
			"buffer":0,
			"byteLength":18120,
			"byteOffset":7976,
			"target":34962
		},
		{
			"buffer":0,
			"byteLength":18120,
			"byteOffset":26096,
			"target":34962
		},
		{
			"buffer":0,
			"byteLength":12080,
			"byteOffset":44216,
			"target":34962
		},
		{
			"buffer":0,
			"byteLength":7680,
			"byteOffset":56296,
			"target":34963
		},
		{
			"buffer":0,
			"byteLength":2304,
			"byteOffset":63976,
			"target":34962
		},
		{
			"buffer":0,
			"byteLength":2304,
			"byteOffset":66280,
			"target":34962
		},
		{
			"buffer":0,
			"byteLength":1536,
			"byteOffset":68584,
			"target":34962
		},
		{
			"buffer":0,
			"byteLength":744,
			"byteOffset":70120,
			"target":34963
		},
		{
			"buffer":0,
			"byteLength":3384,
			"byteOffset":70864,
			"target":34962
		},
		{
			"buffer":0,
			"byteLength":3384,
			"byteOffset":74248,
			"target":34962
		},
		{
			"buffer":0,
			"byteLength":2256,
			"byteOffset":77632,
			"target":34962
		},
		{
			"buffer":0,
			"byteLength":1152,
			"byteOffset":79888,
			"target":34963
		},
		{
			"buffer":0,
			"byteLength":18120,
			"byteOffset":81040,
			"target":34962
		},
		{
			"buffer":0,
			"byteLength":18120,
			"byteOffset":99160,
			"target":34962
		},
		{
			"buffer":0,
			"byteLength":12080,
			"byteOffset":117280,
			"target":34962
		},
		{
			"buffer":0,
			"byteLength":2304,
			"byteOffset":129360,
			"target":34962
		},
		{
			"buffer":0,
			"byteLength":2304,
			"byteOffset":131664,
			"target":34962
		},
		{
			"buffer":0,
			"byteLength":1536,
			"byteOffset":133968,
			"target":34962
		},
		{
			"buffer":0,
			"byteLength":3408,
			"byteOffset":135504,
			"target":34962
		},
		{
			"buffer":0,
			"byteLength":3408,
			"byteOffset":138912,
			"target":34962
		},
		{
			"buffer":0,
			"byteLength":2272,
			"byteOffset":142320,
			"target":34962
		},
		{
			"buffer":0,
			"byteLength":1608,
			"byteOffset":144592,
			"target":34963
		},
		{
			"buffer":0,
			"byteLength":528,
			"byteOffset":146200,
			"target":34962
		},
		{
			"buffer":0,
			"byteLength":528,
			"byteOffset":146728,
			"target":34962
		},
		{
			"buffer":0,
			"byteLength":352,
			"byteOffset":147256,
			"target":34962
		},
		{
			"buffer":0,
			"byteLength":168,
			"byteOffset":147608,
			"target":34963
		}
	],
	"samplers":[
		{
			"magFilter":9729,
			"minFilter":9987
		}
	],
	"buffers":[
		{
			"byteLength":147776,
			"uri":"Wall.bin"
		}
	]
}
