{
	"asset":{
		"generator":"Khronos glTF Blender I/O v4.1.63",
		"version":"2.0"
	},
	"scene":0,
	"scenes":[
		{
			"name":"Scene",
			"nodes":[
				0,
				1,
				2,
				3,
				4
			]
		}
	],
	"nodes":[
		{
			"name":"PushPoint",
			"scale":[
				-0.062389373779296875,
				-0.062389373779296875,
				-0.062389373779296875
			],
			"translation":[
				0.48459863662719727,
				0.3359544277191162,
				0
			]
		},
		{
			"name":"BreakPoint",
			"scale":[
				0.006429135799407959,
				0.006429135799407959,
				0.006429135799407959
			],
			"translation":[
				0.5802631378173828,
				-0.11025669425725937,
				0
			]
		},
		{
			"mesh":0,
			"name":"\u5186\u67f1.001",
			"rotation":[
				0,
				0,
				-0.7071068286895752,
				0.7071067094802856
			],
			"scale":[
				0.8000000715255737,
				1,
				0.800000011920929
			],
			"translation":[
				0.19030199944972992,
				0.011653988622128963,
				0
			]
		},
		{
			"mesh":1,
			"name":"\u5186\u67f1.002",
			"rotation":[
				0,
				0,
				-0.2536282241344452,
				0.9673017859458923
			],
			"scale":[
				0.8000000715255737,
				0.75,
				0.800000011920929
			],
			"translation":[
				0.39005857706069946,
				0.12400020658969879,
				0
			]
		},
		{
			"mesh":2,
			"name":"\u5186\u67f1.003",
			"rotation":[
				0.70710688829422,
				0,
				0,
				0.7071066498756409
			],
			"translation":[
				0.4592595100402832,
				0.278414785861969,
				0
			]
		}
	],
	"materials":[
		{
			"doubleSided":true,
			"name":"\u30de\u30c6\u30ea\u30a2\u30eb",
			"normalTexture":{
				"index":0
			},
			"pbrMetallicRoughness":{
				"baseColorFactor":[
					0.800000011920929,
					0.800000011920929,
					0.800000011920929,
					1
				],
				"metallicFactor":0,
				"roughnessFactor":0.5
			}
		}
	],
	"meshes":[
		{
			"name":"\u5186\u67f1.001",
			"primitives":[
				{
					"attributes":{
						"POSITION":0,
						"NORMAL":1,
						"TEXCOORD_0":2
					},
					"indices":3,
					"material":0
				}
			]
		},
		{
			"name":"\u5186\u67f1.002",
			"primitives":[
				{
					"attributes":{
						"POSITION":4,
						"NORMAL":5,
						"TEXCOORD_0":6
					},
					"indices":7,
					"material":0
				}
			]
		},
		{
			"name":"\u5186\u67f1.003",
			"primitives":[
				{
					"attributes":{
						"POSITION":8,
						"NORMAL":9,
						"TEXCOORD_0":10,
						"TEXCOORD_1":11
					},
					"indices":12,
					"material":0
				}
			]
		}
	],
	"textures":[
		{
			"sampler":0,
			"source":0
		}
	],
	"images":[
		{
			"mimeType":"image/png",
			"name":"normal 1",
			"uri":"normal%201.png"
		}
	],
	"accessors":[
		{
			"bufferView":0,
			"componentType":5126,
			"count":282,
			"max":[
				0.07999996840953827,
				0.1899999976158142,
				0.07999996840953827
			],
			"min":[
				-0.07999996840953827,
				-0.1899999976158142,
				-0.07999996840953827
			],
			"type":"VEC3"
		},
		{
			"bufferView":1,
			"componentType":5126,
			"count":282,
			"type":"VEC3"
		},
		{
			"bufferView":2,
			"componentType":5126,
			"count":282,
			"type":"VEC2"
		},
		{
			"bufferView":3,
			"componentType":5123,
			"count":534,
			"type":"SCALAR"
		},
		{
			"bufferView":4,
			"componentType":5126,
			"count":48,
			"max":[
				0.07999999821186066,
				0.1899999976158142,
				0.07999999821186066
			],
			"min":[
				-0.07999999821186066,
				-0.1899999976158142,
				-0.07999999821186066
			],
			"type":"VEC3"
		},
		{
			"bufferView":5,
			"componentType":5126,
			"count":48,
			"type":"VEC3"
		},
		{
			"bufferView":6,
			"componentType":5126,
			"count":48,
			"type":"VEC2"
		},
		{
			"bufferView":7,
			"componentType":5123,
			"count":84,
			"type":"SCALAR"
		},
		{
			"bufferView":8,
			"componentType":5126,
			"count":157,
			"max":[
				0.10000000149011612,
				0.050000034272670746,
				0.09987564384937286
			],
			"min":[
				-0.10000000149011612,
				-0.050000034272670746,
				-0.08412221074104309
			],
			"type":"VEC3"
		},
		{
			"bufferView":9,
			"componentType":5126,
			"count":157,
			"type":"VEC3"
		},
		{
			"bufferView":10,
			"componentType":5126,
			"count":157,
			"type":"VEC2"
		},
		{
			"bufferView":11,
			"componentType":5126,
			"count":157,
			"type":"VEC2"
		},
		{
			"bufferView":12,
			"componentType":5123,
			"count":300,
			"type":"SCALAR"
		}
	],
	"bufferViews":[
		{
			"buffer":0,
			"byteLength":3384,
			"byteOffset":0,
			"target":34962
		},
		{
			"buffer":0,
			"byteLength":3384,
			"byteOffset":3384,
			"target":34962
		},
		{
			"buffer":0,
			"byteLength":2256,
			"byteOffset":6768,
			"target":34962
		},
		{
			"buffer":0,
			"byteLength":1068,
			"byteOffset":9024,
			"target":34963
		},
		{
			"buffer":0,
			"byteLength":576,
			"byteOffset":10092,
			"target":34962
		},
		{
			"buffer":0,
			"byteLength":576,
			"byteOffset":10668,
			"target":34962
		},
		{
			"buffer":0,
			"byteLength":384,
			"byteOffset":11244,
			"target":34962
		},
		{
			"buffer":0,
			"byteLength":168,
			"byteOffset":11628,
			"target":34963
		},
		{
			"buffer":0,
			"byteLength":1884,
			"byteOffset":11796,
			"target":34962
		},
		{
			"buffer":0,
			"byteLength":1884,
			"byteOffset":13680,
			"target":34962
		},
		{
			"buffer":0,
			"byteLength":1256,
			"byteOffset":15564,
			"target":34962
		},
		{
			"buffer":0,
			"byteLength":1256,
			"byteOffset":16820,
			"target":34962
		},
		{
			"buffer":0,
			"byteLength":600,
			"byteOffset":18076,
			"target":34963
		}
	],
	"samplers":[
		{
			"magFilter":9729,
			"minFilter":9987
		}
	],
	"buffers":[
		{
			"byteLength":18676,
			"uri":"arm.bin"
		}
	]
}
