{
	"asset":{
		"generator":"Khronos glTF Blender I/O v4.1.63",
		"version":"2.0"
	},
	"scene":0,
	"scenes":[
		{
			"name":"Scene",
			"nodes":[
				0,
				1,
				3,
				5,
				6,
				7,
				8
			]
		}
	],
	"nodes":[
		{
			"mesh":0,
			"name":"Circle.002"
		},
		{
			"mesh":1,
			"name":"Circle.001"
		},
		{
			"name":"PushPoint",
			"scale":[
				-0.062389373779296875,
				-0.062389373779296875,
				-0.062389373779296875
			],
			"translation":[
				0.800046443939209,
				0.44525954127311707,
				0
			]
		},
		{
			"children":[
				2
			],
			"mesh":2,
			"name":"Circle.003"
		},
		{
			"name":"BreakPoint",
			"scale":[
				0.006429135799407959,
				0.006429135799407959,
				0.006429135799407959
			],
			"translation":[
				0.7324292063713074,
				-0.19688951969146729,
				0
			]
		},
		{
			"children":[
				4
			],
			"mesh":3,
			"name":"Circle.004"
		},
		{
			"mesh":4,
			"name":"Circle.005"
		},
		{
			"mesh":5,
			"name":"Circle.006"
		},
		{
			"mesh":6,
			"name":"Circle.007"
		}
	],
	"materials":[
		{
			"doubleSided":true,
			"name":"\u30de\u30c6\u30ea\u30a2\u30eb.003",
			"normalTexture":{
				"index":0
			},
			"pbrMetallicRoughness":{
				"baseColorTexture":{
					"index":1
				},
				"metallicFactor":0,
				"roughnessFactor":0.5
			}
		},
		{
			"doubleSided":true,
			"name":"\u30de\u30c6\u30ea\u30a2\u30eb",
			"normalTexture":{
				"index":2
			},
			"pbrMetallicRoughness":{
				"baseColorTexture":{
					"index":3
				},
				"metallicFactor":0,
				"roughnessFactor":0.5
			}
		},
		{
			"doubleSided":true,
			"name":"\u30de\u30c6\u30ea\u30a2\u30eb.001",
			"normalTexture":{
				"index":4
			},
			"pbrMetallicRoughness":{
				"baseColorTexture":{
					"index":5
				},
				"metallicFactor":0,
				"roughnessFactor":0.5
			}
		},
		{
			"doubleSided":true,
			"name":"\u30de\u30c6\u30ea\u30a2\u30eb.002",
			"normalTexture":{
				"index":6
			},
			"pbrMetallicRoughness":{
				"baseColorTexture":{
					"index":7
				},
				"metallicFactor":0,
				"roughnessFactor":0.5
			}
		}
	],
	"meshes":[
		{
			"name":"Circle.002",
			"primitives":[
				{
					"attributes":{
						"POSITION":0,
						"NORMAL":1,
						"TEXCOORD_0":2
					},
					"indices":3,
					"material":0
				}
			]
		},
		{
			"name":"Circle.001",
			"primitives":[
				{
					"attributes":{
						"POSITION":4,
						"NORMAL":5,
						"TEXCOORD_0":6
					},
					"indices":7,
					"material":1
				}
			]
		},
		{
			"name":"Circle.003",
			"primitives":[
				{
					"attributes":{
						"POSITION":8,
						"NORMAL":9,
						"TEXCOORD_0":10
					},
					"indices":11,
					"material":1
				}
			]
		},
		{
			"name":"Circle.004",
			"primitives":[
				{
					"attributes":{
						"POSITION":12,
						"NORMAL":13,
						"TEXCOORD_0":14
					},
					"indices":15,
					"material":1
				}
			]
		},
		{
			"name":"Circle.005",
			"primitives":[
				{
					"attributes":{
						"POSITION":16,
						"NORMAL":17,
						"TEXCOORD_0":18
					},
					"indices":7,
					"material":2
				}
			]
		},
		{
			"name":"Circle.006",
			"primitives":[
				{
					"attributes":{
						"POSITION":19,
						"NORMAL":20,
						"TEXCOORD_0":21
					},
					"indices":7,
					"material":3
				}
			]
		},
		{
			"name":"Circle.007",
			"primitives":[
				{
					"attributes":{
						"POSITION":22,
						"NORMAL":23,
						"TEXCOORD_0":24
					},
					"indices":7,
					"material":0
				}
			]
		}
	],
	"textures":[
		{
			"sampler":0,
			"source":0
		},
		{
			"sampler":0,
			"source":1
		},
		{
			"sampler":0,
			"source":0
		},
		{
			"sampler":0,
			"source":1
		},
		{
			"sampler":0,
			"source":0
		},
		{
			"sampler":0,
			"source":1
		},
		{
			"sampler":0,
			"source":0
		},
		{
			"sampler":0,
			"source":1
		}
	],
	"images":[
		{
			"mimeType":"image/png",
			"name":"normal (1)",
			"uri":"normal%201.png"
		},
		{
			"mimeType":"image/png",
			"name":"axe03D2s",
			"uri":"axe03D2s.png"
		}
	],
	"accessors":[
		{
			"bufferView":0,
			"componentType":5126,
			"count":78,
			"max":[
				0.8825086951255798,
				0.12611889839172363,
				0.05549859255552292
			],
			"min":[
				-0.025790270417928696,
				-0.006383839994668961,
				-0.03567282855510712
			],
			"type":"VEC3"
		},
		{
			"bufferView":1,
			"componentType":5126,
			"count":78,
			"type":"VEC3"
		},
		{
			"bufferView":2,
			"componentType":5126,
			"count":78,
			"type":"VEC2"
		},
		{
			"bufferView":3,
			"componentType":5123,
			"count":126,
			"type":"SCALAR"
		},
		{
			"bufferView":4,
			"componentType":5126,
			"count":38,
			"max":[
				0.8965325355529785,
				0.22174441814422607,
				0.06844791769981384
			],
			"min":[
				0.7839187979698181,
				-0.04570498317480087,
				-0.04909120500087738
			],
			"type":"VEC3"
		},
		{
			"bufferView":5,
			"componentType":5126,
			"count":38,
			"type":"VEC3"
		},
		{
			"bufferView":6,
			"componentType":5126,
			"count":38,
			"type":"VEC2"
		},
		{
			"bufferView":7,
			"componentType":5123,
			"count":72,
			"type":"SCALAR"
		},
		{
			"bufferView":8,
			"componentType":5126,
			"count":60,
			"max":[
				0.9593520760536194,
				0.5548312664031982,
				0.07272815704345703
			],
			"min":[
				0.6246699690818787,
				0.05749605596065521,
				-0.03972994163632393
			],
			"type":"VEC3"
		},
		{
			"bufferView":9,
			"componentType":5126,
			"count":60,
			"type":"VEC3"
		},
		{
			"bufferView":10,
			"componentType":5126,
			"count":60,
			"type":"VEC2"
		},
		{
			"bufferView":11,
			"componentType":5123,
			"count":90,
			"type":"SCALAR"
		},
		{
			"bufferView":12,
			"componentType":5126,
			"count":66,
			"max":[
				0.9010390639305115,
				0.0788039118051529,
				0.04254150390625
			],
			"min":[
				0.5280699729919434,
				-0.3244619369506836,
				-0.029523571953177452
			],
			"type":"VEC3"
		},
		{
			"bufferView":13,
			"componentType":5126,
			"count":66,
			"type":"VEC3"
		},
		{
			"bufferView":14,
			"componentType":5126,
			"count":66,
			"type":"VEC2"
		},
		{
			"bufferView":15,
			"componentType":5123,
			"count":78,
			"type":"SCALAR"
		},
		{
			"bufferView":16,
			"componentType":5126,
			"count":38,
			"max":[
				0.8032516241073608,
				0.21324241161346436,
				0.06844791769981384
			],
			"min":[
				0.6906378865242004,
				-0.05420698970556259,
				-0.04909120500087738
			],
			"type":"VEC3"
		},
		{
			"bufferView":17,
			"componentType":5126,
			"count":38,
			"type":"VEC3"
		},
		{
			"bufferView":18,
			"componentType":5126,
			"count":38,
			"type":"VEC2"
		},
		{
			"bufferView":19,
			"componentType":5126,
			"count":38,
			"max":[
				0.710918128490448,
				0.2048267126083374,
				0.06844791769981384
			],
			"min":[
				0.5983043909072876,
				-0.06262268871068954,
				-0.04909120500087738
			],
			"type":"VEC3"
		},
		{
			"bufferView":20,
			"componentType":5126,
			"count":38,
			"type":"VEC3"
		},
		{
			"bufferView":21,
			"componentType":5126,
			"count":38,
			"type":"VEC2"
		},
		{
			"bufferView":22,
			"componentType":5126,
			"count":38,
			"max":[
				0.6198700666427612,
				0.19652819633483887,
				0.06844791769981384
			],
			"min":[
				0.5072563290596008,
				-0.07092120498418808,
				-0.04909120500087738
			],
			"type":"VEC3"
		},
		{
			"bufferView":23,
			"componentType":5126,
			"count":38,
			"type":"VEC3"
		},
		{
			"bufferView":24,
			"componentType":5126,
			"count":38,
			"type":"VEC2"
		}
	],
	"bufferViews":[
		{
			"buffer":0,
			"byteLength":936,
			"byteOffset":0,
			"target":34962
		},
		{
			"buffer":0,
			"byteLength":936,
			"byteOffset":936,
			"target":34962
		},
		{
			"buffer":0,
			"byteLength":624,
			"byteOffset":1872,
			"target":34962
		},
		{
			"buffer":0,
			"byteLength":252,
			"byteOffset":2496,
			"target":34963
		},
		{
			"buffer":0,
			"byteLength":456,
			"byteOffset":2748,
			"target":34962
		},
		{
			"buffer":0,
			"byteLength":456,
			"byteOffset":3204,
			"target":34962
		},
		{
			"buffer":0,
			"byteLength":304,
			"byteOffset":3660,
			"target":34962
		},
		{
			"buffer":0,
			"byteLength":144,
			"byteOffset":3964,
			"target":34963
		},
		{
			"buffer":0,
			"byteLength":720,
			"byteOffset":4108,
			"target":34962
		},
		{
			"buffer":0,
			"byteLength":720,
			"byteOffset":4828,
			"target":34962
		},
		{
			"buffer":0,
			"byteLength":480,
			"byteOffset":5548,
			"target":34962
		},
		{
			"buffer":0,
			"byteLength":180,
			"byteOffset":6028,
			"target":34963
		},
		{
			"buffer":0,
			"byteLength":792,
			"byteOffset":6208,
			"target":34962
		},
		{
			"buffer":0,
			"byteLength":792,
			"byteOffset":7000,
			"target":34962
		},
		{
			"buffer":0,
			"byteLength":528,
			"byteOffset":7792,
			"target":34962
		},
		{
			"buffer":0,
			"byteLength":156,
			"byteOffset":8320,
			"target":34963
		},
		{
			"buffer":0,
			"byteLength":456,
			"byteOffset":8476,
			"target":34962
		},
		{
			"buffer":0,
			"byteLength":456,
			"byteOffset":8932,
			"target":34962
		},
		{
			"buffer":0,
			"byteLength":304,
			"byteOffset":9388,
			"target":34962
		},
		{
			"buffer":0,
			"byteLength":456,
			"byteOffset":9692,
			"target":34962
		},
		{
			"buffer":0,
			"byteLength":456,
			"byteOffset":10148,
			"target":34962
		},
		{
			"buffer":0,
			"byteLength":304,
			"byteOffset":10604,
			"target":34962
		},
		{
			"buffer":0,
			"byteLength":456,
			"byteOffset":10908,
			"target":34962
		},
		{
			"buffer":0,
			"byteLength":456,
			"byteOffset":11364,
			"target":34962
		},
		{
			"buffer":0,
			"byteLength":304,
			"byteOffset":11820,
			"target":34962
		}
	],
	"samplers":[
		{
			"magFilter":9729,
			"minFilter":9987
		}
	],
	"buffers":[
		{
			"byteLength":12124,
			"uri":"axe.bin"
		}
	]
}
