{
	"asset":{
		"generator":"Khronos glTF Blender I/O v4.1.63",
		"version":"2.0"
	},
	"scene":0,
	"scenes":[
		{
			"name":"Scene",
			"nodes":[
				0
			]
		}
	],
	"nodes":[
		{
			"mesh":0,
			"name":"\u5186\u9310"
		}
	],
	"animations":[
		{
			"channels":[
				{
					"sampler":0,
					"target":{
						"node":0,
						"path":"translation"
					}
				},
				{
					"sampler":1,
					"target":{
						"node":0,
						"path":"rotation"
					}
				}
			],
			"name":"Action",
			"samplers":[
				{
					"input":8,
					"interpolation":"LINEAR",
					"output":9
				},
				{
					"input":10,
					"interpolation":"STEP",
					"output":11
				}
			]
		}
	],
	"materials":[
		{
			"doubleSided":true,
			"name":"\u30de\u30c6\u30ea\u30a2\u30eb",
			"normalTexture":{
				"index":0
			},
			"pbrMetallicRoughness":{
				"baseColorTexture":{
					"index":1
				},
				"metallicFactor":0.9266055226325989,
				"roughnessFactor":0.07339449226856232
			}
		}
	],
	"meshes":[
		{
			"extras":{
				"targetNames":[
					"\u30ad\u30fc",
					"\u30ad\u30fc 2"
				]
			},
			"name":"\u5186\u9310",
			"primitives":[
				{
					"attributes":{
						"POSITION":0,
						"NORMAL":1,
						"TEXCOORD_0":2
					},
					"indices":3,
					"material":0,
					"targets":[
						{
							"POSITION":4,
							"NORMAL":5
						},
						{
							"POSITION":6,
							"NORMAL":7
						}
					]
				}
			],
			"weights":[
				0,
				0
			]
		}
	],
	"textures":[
		{
			"sampler":0,
			"source":0
		},
		{
			"sampler":0,
			"source":1
		}
	],
	"images":[
		{
			"mimeType":"image/png",
			"name":"normalstone2",
			"uri":"normalstone2.png"
		},
		{
			"mimeType":"image/jpeg",
			"name":"stone2",
			"uri":"stone2.jpg"
		}
	],
	"accessors":[
		{
			"bufferView":0,
			"componentType":5126,
			"count":4608,
			"max":[
				0.6167256832122803,
				1,
				2.0469250679016113
			],
			"min":[
				-1.054327368736267,
				-1,
				-2.0551297664642334
			],
			"type":"VEC3"
		},
		{
			"bufferView":1,
			"componentType":5126,
			"count":4608,
			"type":"VEC3"
		},
		{
			"bufferView":2,
			"componentType":5126,
			"count":4608,
			"type":"VEC2"
		},
		{
			"bufferView":3,
			"componentType":5123,
			"count":6696,
			"type":"SCALAR"
		},
		{
			"bufferView":4,
			"componentType":5126,
			"count":4608,
			"max":[
				0,
				1.0155410766601562,
				0
			],
			"min":[
				0,
				1.0155410766601562,
				0
			],
			"type":"VEC3"
		},
		{
			"componentType":5126,
			"count":4608,
			"sparse":{
				"count":3456,
				"indices":{
					"bufferView":5,
					"componentType":5123
				},
				"values":{
					"bufferView":6
				}
			},
			"type":"VEC3"
		},
		{
			"componentType":5126,
			"count":4608,
			"max":[
				0,
				0,
				0
			],
			"min":[
				0,
				0,
				0
			],
			"sparse":{
				"count":1,
				"indices":{
					"bufferView":7,
					"componentType":5121
				},
				"values":{
					"bufferView":8
				}
			},
			"type":"VEC3"
		},
		{
			"componentType":5126,
			"count":4608,
			"sparse":{
				"count":3456,
				"indices":{
					"bufferView":9,
					"componentType":5123
				},
				"values":{
					"bufferView":10
				}
			},
			"type":"VEC3"
		},
		{
			"bufferView":11,
			"componentType":5126,
			"count":60,
			"max":[
				2.5
			],
			"min":[
				0.041666666666666664
			],
			"type":"SCALAR"
		},
		{
			"bufferView":12,
			"componentType":5126,
			"count":60,
			"type":"VEC3"
		},
		{
			"bufferView":13,
			"componentType":5126,
			"count":2,
			"max":[
				2.5
			],
			"min":[
				0.041666666666666664
			],
			"type":"SCALAR"
		},
		{
			"bufferView":14,
			"componentType":5126,
			"count":2,
			"type":"VEC4"
		}
	],
	"bufferViews":[
		{
			"buffer":0,
			"byteLength":55296,
			"byteOffset":0,
			"target":34962
		},
		{
			"buffer":0,
			"byteLength":55296,
			"byteOffset":55296,
			"target":34962
		},
		{
			"buffer":0,
			"byteLength":36864,
			"byteOffset":110592,
			"target":34962
		},
		{
			"buffer":0,
			"byteLength":13392,
			"byteOffset":147456,
			"target":34963
		},
		{
			"buffer":0,
			"byteLength":55296,
			"byteOffset":160848,
			"target":34962
		},
		{
			"buffer":0,
			"byteLength":6912,
			"byteOffset":216144
		},
		{
			"buffer":0,
			"byteLength":41472,
			"byteOffset":223056
		},
		{
			"buffer":0,
			"byteLength":1,
			"byteOffset":264528
		},
		{
			"buffer":0,
			"byteLength":12,
			"byteOffset":264532
		},
		{
			"buffer":0,
			"byteLength":6912,
			"byteOffset":264544
		},
		{
			"buffer":0,
			"byteLength":41472,
			"byteOffset":271456
		},
		{
			"buffer":0,
			"byteLength":240,
			"byteOffset":312928
		},
		{
			"buffer":0,
			"byteLength":720,
			"byteOffset":313168
		},
		{
			"buffer":0,
			"byteLength":8,
			"byteOffset":313888
		},
		{
			"buffer":0,
			"byteLength":32,
			"byteOffset":313896
		}
	],
	"samplers":[
		{
			"magFilter":9729,
			"minFilter":9987
		}
	],
	"buffers":[
		{
			"byteLength":313928,
			"uri":"Nidle.bin"
		}
	]
}
