{
	"asset":{
		"generator":"Khronos glTF Blender I/O v4.1.63",
		"version":"2.0"
	},
	"scene":0,
	"scenes":[
		{
			"name":"Scene",
			"nodes":[
				0
			]
		}
	],
	"nodes":[
		{
			"mesh":0,
			"name":"\u5186\u9310"
		}
	],
	"animations":[
		{
			"channels":[
				{
					"sampler":0,
					"target":{
						"node":0,
						"path":"translation"
					}
				},
				{
					"sampler":1,
					"target":{
						"node":0,
						"path":"rotation"
					}
				}
			],
			"name":"Action",
			"samplers":[
				{
					"input":8,
					"interpolation":"LINEAR",
					"output":9
				},
				{
					"input":10,
					"interpolation":"STEP",
					"output":11
				}
			]
		}
	],
	"materials":[
		{
			"doubleSided":true,
			"name":"\u30de\u30c6\u30ea\u30a2\u30eb",
			"pbrMetallicRoughness":{
				"baseColorFactor":[
					0,
					0.21806037425994873,
					0.8021467328071594,
					1
				],
				"metallicFactor":0.9266055226325989,
				"roughnessFactor":0.07339449226856232
			}
		}
	],
	"meshes":[
		{
			"extras":{
				"targetNames":[
					"\u30ad\u30fc",
					"\u30ad\u30fc 2"
				]
			},
			"name":"\u5186\u9310",
			"primitives":[
				{
					"attributes":{
						"POSITION":0,
						"NORMAL":1,
						"TEXCOORD_0":2
					},
					"indices":3,
					"material":0,
					"targets":[
						{
							"POSITION":4,
							"NORMAL":5
						},
						{
							"POSITION":6,
							"NORMAL":7
						}
					]
				}
			],
			"weights":[
				0,
				0
			]
		}
	],
	"accessors":[
		{
			"bufferView":0,
			"componentType":5126,
			"count":768,
			"max":[
				0.6167256832122803,
				1,
				0.6167256832122803
			],
			"min":[
				-0.11672570556402206,
				-1,
				-0.6167256832122803
			],
			"type":"VEC3"
		},
		{
			"bufferView":1,
			"componentType":5126,
			"count":768,
			"type":"VEC3"
		},
		{
			"bufferView":2,
			"componentType":5126,
			"count":768,
			"type":"VEC2"
		},
		{
			"bufferView":3,
			"componentType":5123,
			"count":1116,
			"type":"SCALAR"
		},
		{
			"bufferView":4,
			"componentType":5126,
			"count":768,
			"max":[
				0,
				1.0155410766601562,
				0
			],
			"min":[
				0,
				1.0155410766601562,
				0
			],
			"type":"VEC3"
		},
		{
			"componentType":5126,
			"count":768,
			"sparse":{
				"count":576,
				"indices":{
					"bufferView":5,
					"componentType":5123
				},
				"values":{
					"bufferView":6
				}
			},
			"type":"VEC3"
		},
		{
			"componentType":5126,
			"count":768,
			"max":[
				0,
				0,
				0
			],
			"min":[
				0,
				0,
				0
			],
			"sparse":{
				"count":1,
				"indices":{
					"bufferView":7,
					"componentType":5121
				},
				"values":{
					"bufferView":8
				}
			},
			"type":"VEC3"
		},
		{
			"componentType":5126,
			"count":768,
			"sparse":{
				"count":576,
				"indices":{
					"bufferView":9,
					"componentType":5123
				},
				"values":{
					"bufferView":10
				}
			},
			"type":"VEC3"
		},
		{
			"bufferView":11,
			"componentType":5126,
			"count":60,
			"max":[
				2.5
			],
			"min":[
				0.041666666666666664
			],
			"type":"SCALAR"
		},
		{
			"bufferView":12,
			"componentType":5126,
			"count":60,
			"type":"VEC3"
		},
		{
			"bufferView":13,
			"componentType":5126,
			"count":2,
			"max":[
				2.5
			],
			"min":[
				0.041666666666666664
			],
			"type":"SCALAR"
		},
		{
			"bufferView":14,
			"componentType":5126,
			"count":2,
			"type":"VEC4"
		}
	],
	"bufferViews":[
		{
			"buffer":0,
			"byteLength":9216,
			"byteOffset":0,
			"target":34962
		},
		{
			"buffer":0,
			"byteLength":9216,
			"byteOffset":9216,
			"target":34962
		},
		{
			"buffer":0,
			"byteLength":6144,
			"byteOffset":18432,
			"target":34962
		},
		{
			"buffer":0,
			"byteLength":2232,
			"byteOffset":24576,
			"target":34963
		},
		{
			"buffer":0,
			"byteLength":9216,
			"byteOffset":26808,
			"target":34962
		},
		{
			"buffer":0,
			"byteLength":1152,
			"byteOffset":36024
		},
		{
			"buffer":0,
			"byteLength":6912,
			"byteOffset":37176
		},
		{
			"buffer":0,
			"byteLength":1,
			"byteOffset":44088
		},
		{
			"buffer":0,
			"byteLength":12,
			"byteOffset":44092
		},
		{
			"buffer":0,
			"byteLength":1152,
			"byteOffset":44104
		},
		{
			"buffer":0,
			"byteLength":6912,
			"byteOffset":45256
		},
		{
			"buffer":0,
			"byteLength":240,
			"byteOffset":52168
		},
		{
			"buffer":0,
			"byteLength":720,
			"byteOffset":52408
		},
		{
			"buffer":0,
			"byteLength":8,
			"byteOffset":53128
		},
		{
			"buffer":0,
			"byteLength":32,
			"byteOffset":53136
		}
	],
	"buffers":[
		{
			"byteLength":53168,
			"uri":"Nidle.bin"
		}
	]
}
