{
	"asset":{
		"generator":"Khronos glTF Blender I/O v4.1.63",
		"version":"2.0"
	},
	"scene":0,
	"scenes":[
		{
			"name":"Scene",
			"nodes":[
				0,
				1
			]
		}
	],
	"nodes":[
		{
			"mesh":0,
			"name":"Cube",
			"translation":[
				0,
				0.9715035557746887,
				0
			]
		},
		{
			"mesh":1,
			"name":"COL",
			"scale":[
				1,
				3.21091365814209,
				0.37633588910102844
			]
		}
	],
	"materials":[
		{
			"doubleSided":true,
			"name":"Material",
			"pbrMetallicRoughness":{
				"baseColorFactor":[
					0.03823631629347801,
					0.11044427752494812,
					0.8000937700271606,
					1
				],
				"metallicFactor":0,
				"roughnessFactor":0.5
			}
		}
	],
	"meshes":[
		{
			"name":"Cube",
			"primitives":[
				{
					"attributes":{
						"POSITION":0,
						"NORMAL":1,
						"TEXCOORD_0":2,
						"TEXCOORD_1":3
					},
					"indices":4,
					"material":0
				}
			]
		},
		{
			"name":"\u7acb\u65b9\u4f53.003",
			"primitives":[
				{
					"attributes":{
						"POSITION":5,
						"NORMAL":6,
						"TEXCOORD_0":7
					},
					"indices":8
				}
			]
		}
	],
	"accessors":[
		{
			"bufferView":0,
			"componentType":5126,
			"count":158,
			"max":[
				0.10469845682382584,
				2.276761531829834,
				0.5785256624221802
			],
			"min":[
				-1.054931879043579,
				-1,
				-0.39292383193969727
			],
			"type":"VEC3"
		},
		{
			"bufferView":1,
			"componentType":5126,
			"count":158,
			"type":"VEC3"
		},
		{
			"bufferView":2,
			"componentType":5126,
			"count":158,
			"type":"VEC2"
		},
		{
			"bufferView":3,
			"componentType":5126,
			"count":158,
			"type":"VEC2"
		},
		{
			"bufferView":4,
			"componentType":5123,
			"count":282,
			"type":"SCALAR"
		},
		{
			"bufferView":5,
			"componentType":5126,
			"count":24,
			"max":[
				0.09149169921875,
				1,
				1.2356398105621338
			],
			"min":[
				-1,
				-0.01722198724746704,
				-1.1095013618469238
			],
			"type":"VEC3"
		},
		{
			"bufferView":6,
			"componentType":5126,
			"count":24,
			"type":"VEC3"
		},
		{
			"bufferView":7,
			"componentType":5126,
			"count":24,
			"type":"VEC2"
		},
		{
			"bufferView":8,
			"componentType":5123,
			"count":36,
			"type":"SCALAR"
		}
	],
	"bufferViews":[
		{
			"buffer":0,
			"byteLength":1896,
			"byteOffset":0,
			"target":34962
		},
		{
			"buffer":0,
			"byteLength":1896,
			"byteOffset":1896,
			"target":34962
		},
		{
			"buffer":0,
			"byteLength":1264,
			"byteOffset":3792,
			"target":34962
		},
		{
			"buffer":0,
			"byteLength":1264,
			"byteOffset":5056,
			"target":34962
		},
		{
			"buffer":0,
			"byteLength":564,
			"byteOffset":6320,
			"target":34963
		},
		{
			"buffer":0,
			"byteLength":288,
			"byteOffset":6884,
			"target":34962
		},
		{
			"buffer":0,
			"byteLength":288,
			"byteOffset":7172,
			"target":34962
		},
		{
			"buffer":0,
			"byteLength":192,
			"byteOffset":7460,
			"target":34962
		},
		{
			"buffer":0,
			"byteLength":72,
			"byteOffset":7652,
			"target":34963
		}
	],
	"buffers":[
		{
			"byteLength":7724,
			"uri":"Breaked.bin"
		}
	]
}
