{
	"asset":{
		"generator":"Khronos glTF Blender I/O v4.1.63",
		"version":"2.0"
	},
	"scene":0,
	"scenes":[
		{
			"name":"Scene",
			"nodes":[
				0,
				1,
				2,
				3,
				4,
				5,
				6,
				7,
				8,
				9,
				10
			]
		}
	],
	"nodes":[
		{
			"mesh":0,
			"name":"Cube.001",
			"scale":[
				4.002156734466553,
				4.002156734466553,
				4.002156734466553
			],
			"translation":[
				0,
				0.17829209566116333,
				0
			]
		},
		{
			"name":"1",
			"translation":[
				2.835209846496582,
				0.9901677370071411,
				3.810520648956299
			]
		},
		{
			"name":"2",
			"translation":[
				1.4856500625610352,
				0.9970864057540894,
				3.810520648956299
			]
		},
		{
			"name":"3",
			"translation":[
				0.31828686594963074,
				0.9970864057540894,
				3.810520648956299
			]
		},
		{
			"name":"4",
			"translation":[
				-1.1454241275787354,
				0.9992327690124512,
				3.810520648956299
			]
		},
		{
			"name":"5",
			"translation":[
				-2.6197328567504883,
				0.9926698207855225,
				3.810520648956299
			]
		},
		{
			"name":"6",
			"translation":[
				2.835209846496582,
				2.0762505531311035,
				3.810520648956299
			]
		},
		{
			"name":"7",
			"translation":[
				1.4856500625610352,
				2.0863962173461914,
				3.810520648956299
			]
		},
		{
			"name":"8",
			"translation":[
				0.31828686594963074,
				2.087186574935913,
				3.810520648956299
			]
		},
		{
			"name":"9",
			"translation":[
				-1.1454241275787354,
				2.0806233882904053,
				3.810520648956299
			]
		},
		{
			"name":"10",
			"translation":[
				-2.6197328567504883,
				2.0801405906677246,
				3.810520648956299
			]
		}
	],
	"materials":[
		{
			"doubleSided":true,
			"name":"Material.002",
			"normalTexture":{
				"index":0
			},
			"pbrMetallicRoughness":{
				"baseColorTexture":{
					"index":1
				},
				"metallicFactor":0,
				"roughnessFactor":0.5
			}
		}
	],
	"meshes":[
		{
			"name":"Cube.002",
			"primitives":[
				{
					"attributes":{
						"POSITION":0,
						"NORMAL":1,
						"TEXCOORD_0":2,
						"TEXCOORD_1":3
					},
					"indices":4,
					"material":0
				}
			]
		}
	],
	"textures":[
		{
			"sampler":0,
			"source":0
		},
		{
			"sampler":0,
			"source":1
		}
	],
	"images":[
		{
			"mimeType":"image/png",
			"name":"normalstone1",
			"uri":"normalstone1.png"
		},
		{
			"mimeType":"image/jpeg",
			"name":"stone1",
			"uri":"stone1.jpg"
		}
	],
	"accessors":[
		{
			"bufferView":0,
			"componentType":5126,
			"count":128,
			"max":[
				1,
				1.706681728363037,
				1
			],
			"min":[
				-1,
				-0.1801719069480896,
				-1
			],
			"type":"VEC3"
		},
		{
			"bufferView":1,
			"componentType":5126,
			"count":128,
			"type":"VEC3"
		},
		{
			"bufferView":2,
			"componentType":5126,
			"count":128,
			"type":"VEC2"
		},
		{
			"bufferView":3,
			"componentType":5126,
			"count":128,
			"type":"VEC2"
		},
		{
			"bufferView":4,
			"componentType":5123,
			"count":252,
			"type":"SCALAR"
		}
	],
	"bufferViews":[
		{
			"buffer":0,
			"byteLength":1536,
			"byteOffset":0,
			"target":34962
		},
		{
			"buffer":0,
			"byteLength":1536,
			"byteOffset":1536,
			"target":34962
		},
		{
			"buffer":0,
			"byteLength":1024,
			"byteOffset":3072,
			"target":34962
		},
		{
			"buffer":0,
			"byteLength":1024,
			"byteOffset":4096,
			"target":34962
		},
		{
			"buffer":0,
			"byteLength":504,
			"byteOffset":5120,
			"target":34963
		}
	],
	"samplers":[
		{
			"magFilter":9729,
			"minFilter":9987
		}
	],
	"buffers":[
		{
			"byteLength":5624,
			"uri":"ArrowBox.bin"
		}
	]
}
