{
	"asset":{
		"generator":"Khronos glTF Blender I/O v4.1.63",
		"version":"2.0"
	},
	"scene":0,
	"scenes":[
		{
			"name":"Scene",
			"nodes":[
				0,
				1
			]
		}
	],
	"nodes":[
		{
			"mesh":0,
			"name":"Cube",
			"translation":[
				0,
				0.9715035557746887,
				0
			]
		},
		{
			"mesh":1,
			"name":"COL",
			"translation":[
				0,
				0.9720104932785034,
				0
			]
		}
	],
	"materials":[
		{
			"doubleSided":true,
			"name":"\u30de\u30c6\u30ea\u30a2\u30eb",
			"normalTexture":{
				"index":0
			},
			"pbrMetallicRoughness":{
				"baseColorTexture":{
					"index":1
				},
				"metallicFactor":0,
				"roughnessFactor":0.5
			}
		}
	],
	"meshes":[
		{
			"name":"Cube",
			"primitives":[
				{
					"attributes":{
						"POSITION":0,
						"NORMAL":1,
						"TEXCOORD_0":2,
						"TEXCOORD_1":3
					},
					"indices":4,
					"material":0
				}
			]
		},
		{
			"name":"\u7acb\u65b9\u4f53",
			"primitives":[
				{
					"attributes":{
						"POSITION":5,
						"NORMAL":6,
						"TEXCOORD_0":7
					},
					"indices":8
				}
			]
		}
	],
	"textures":[
		{
			"sampler":0,
			"source":0
		},
		{
			"sampler":0,
			"source":1
		}
	],
	"images":[
		{
			"mimeType":"image/png",
			"name":"normalS3",
			"uri":"normalS3.png"
		},
		{
			"mimeType":"image/jpeg",
			"name":"sunahekiL03",
			"uri":"sunahekiL03.jpg"
		}
	],
	"accessors":[
		{
			"bufferView":0,
			"componentType":5126,
			"count":278,
			"max":[
				0.44960716366767883,
				2.6234896183013916,
				0.9572584629058838
			],
			"min":[
				-1.3957232236862183,
				-1,
				-2.487889289855957
			],
			"type":"VEC3"
		},
		{
			"bufferView":1,
			"componentType":5126,
			"count":278,
			"type":"VEC3"
		},
		{
			"bufferView":2,
			"componentType":5126,
			"count":278,
			"type":"VEC2"
		},
		{
			"bufferView":3,
			"componentType":5126,
			"count":278,
			"type":"VEC2"
		},
		{
			"bufferView":4,
			"componentType":5123,
			"count":540,
			"type":"SCALAR"
		},
		{
			"bufferView":5,
			"componentType":5126,
			"count":56,
			"max":[
				0.3851183354854584,
				2.6339385509490967,
				1
			],
			"min":[
				-1.3452798128128052,
				-1,
				-2.4822142124176025
			],
			"type":"VEC3"
		},
		{
			"bufferView":6,
			"componentType":5126,
			"count":56,
			"type":"VEC3"
		},
		{
			"bufferView":7,
			"componentType":5126,
			"count":56,
			"type":"VEC2"
		},
		{
			"bufferView":8,
			"componentType":5123,
			"count":84,
			"type":"SCALAR"
		}
	],
	"bufferViews":[
		{
			"buffer":0,
			"byteLength":3336,
			"byteOffset":0,
			"target":34962
		},
		{
			"buffer":0,
			"byteLength":3336,
			"byteOffset":3336,
			"target":34962
		},
		{
			"buffer":0,
			"byteLength":2224,
			"byteOffset":6672,
			"target":34962
		},
		{
			"buffer":0,
			"byteLength":2224,
			"byteOffset":8896,
			"target":34962
		},
		{
			"buffer":0,
			"byteLength":1080,
			"byteOffset":11120,
			"target":34963
		},
		{
			"buffer":0,
			"byteLength":672,
			"byteOffset":12200,
			"target":34962
		},
		{
			"buffer":0,
			"byteLength":672,
			"byteOffset":12872,
			"target":34962
		},
		{
			"buffer":0,
			"byteLength":448,
			"byteOffset":13544,
			"target":34962
		},
		{
			"buffer":0,
			"byteLength":168,
			"byteOffset":13992,
			"target":34963
		}
	],
	"samplers":[
		{
			"magFilter":9729,
			"minFilter":9987
		}
	],
	"buffers":[
		{
			"byteLength":14160,
			"uri":"OneBreak.bin"
		}
	]
}
