{
	"asset":{
		"generator":"Khronos glTF Blender I/O v4.1.63",
		"version":"2.0"
	},
	"scene":0,
	"scenes":[
		{
			"name":"Scene",
			"nodes":[
				0,
				1,
				2
			]
		}
	],
	"nodes":[
		{
			"mesh":0,
			"name":"Cube",
			"scale":[
				4.700874328613281,
				4.700874328613281,
				4.700874328613281
			],
			"translation":[
				-4.822099685668945,
				4.673680305480957,
				0
			]
		},
		{
			"mesh":1,
			"name":"\u7acb\u65b9\u4f53",
			"scale":[
				1.5972481966018677,
				1.5972481966018677,
				1.5972481966018677
			],
			"translation":[
				-0.09194827079772949,
				4.257309913635254,
				0
			]
		},
		{
			"mesh":2,
			"name":"COL",
			"scale":[
				4.700874328613281,
				4.700874328613281,
				4.700874328613281
			],
			"translation":[
				-4.868402481079102,
				4.673680305480957,
				0
			]
		}
	],
	"materials":[
		{
			"doubleSided":true,
			"name":"\u30de\u30c6\u30ea\u30a2\u30eb.002",
			"pbrMetallicRoughness":{
				"baseColorTexture":{
					"index":0
				},
				"metallicFactor":0,
				"roughnessFactor":0.5
			}
		},
		{
			"doubleSided":true,
			"name":"\u30de\u30c6\u30ea\u30a2\u30eb.004",
			"pbrMetallicRoughness":{
				"baseColorTexture":{
					"index":1
				},
				"metallicFactor":0,
				"roughnessFactor":0.5
			}
		},
		{
			"doubleSided":true,
			"name":"\u30de\u30c6\u30ea\u30a2\u30eb.001",
			"pbrMetallicRoughness":{
				"baseColorFactor":[
					0.800000011920929,
					0.800000011920929,
					0.800000011920929,
					1
				],
				"metallicFactor":0,
				"roughnessFactor":0.5
			}
		}
	],
	"meshes":[
		{
			"name":"Cube",
			"primitives":[
				{
					"attributes":{
						"POSITION":0,
						"NORMAL":1,
						"TEXCOORD_0":2,
						"TEXCOORD_1":3
					},
					"indices":4,
					"material":0
				}
			]
		},
		{
			"name":"\u7acb\u65b9\u4f53",
			"primitives":[
				{
					"attributes":{
						"POSITION":5,
						"NORMAL":6,
						"TEXCOORD_0":7
					},
					"indices":8,
					"material":1
				}
			]
		},
		{
			"name":"Cube.001",
			"primitives":[
				{
					"attributes":{
						"POSITION":9,
						"NORMAL":10,
						"TEXCOORD_0":11
					},
					"indices":12,
					"material":2
				}
			]
		}
	],
	"textures":[
		{
			"sampler":0,
			"source":0
		},
		{
			"sampler":0,
			"source":1
		}
	],
	"images":[
		{
			"mimeType":"image/jpeg",
			"name":"sunahekiL02",
			"uri":"sunahekiL02.jpg"
		},
		{
			"mimeType":"image/jpeg",
			"name":"sunahekiL03",
			"uri":"sunahekiL03.jpg"
		}
	],
	"accessors":[
		{
			"bufferView":0,
			"componentType":5126,
			"count":216,
			"max":[
				1.0000001192092896,
				0.9999999403953552,
				1
			],
			"min":[
				0.5325004458427429,
				-1,
				-1.0057406425476074
			],
			"type":"VEC3"
		},
		{
			"bufferView":1,
			"componentType":5126,
			"count":216,
			"type":"VEC3"
		},
		{
			"bufferView":2,
			"componentType":5126,
			"count":216,
			"type":"VEC2"
		},
		{
			"bufferView":3,
			"componentType":5126,
			"count":216,
			"type":"VEC2"
		},
		{
			"bufferView":4,
			"componentType":5123,
			"count":420,
			"type":"SCALAR"
		},
		{
			"bufferView":5,
			"componentType":5126,
			"count":24,
			"max":[
				-0.4222962260246277,
				1,
				1
			],
			"min":[
				-1,
				-1,
				-1
			],
			"type":"VEC3"
		},
		{
			"bufferView":6,
			"componentType":5126,
			"count":24,
			"type":"VEC3"
		},
		{
			"bufferView":7,
			"componentType":5126,
			"count":24,
			"type":"VEC2"
		},
		{
			"bufferView":8,
			"componentType":5123,
			"count":36,
			"type":"SCALAR"
		},
		{
			"bufferView":9,
			"componentType":5126,
			"count":24,
			"max":[
				1,
				1,
				1
			],
			"min":[
				0.5325003266334534,
				-1,
				-1.0057406425476074
			],
			"type":"VEC3"
		},
		{
			"bufferView":10,
			"componentType":5126,
			"count":24,
			"type":"VEC3"
		},
		{
			"bufferView":11,
			"componentType":5126,
			"count":24,
			"type":"VEC2"
		},
		{
			"bufferView":12,
			"componentType":5123,
			"count":36,
			"type":"SCALAR"
		}
	],
	"bufferViews":[
		{
			"buffer":0,
			"byteLength":2592,
			"byteOffset":0,
			"target":34962
		},
		{
			"buffer":0,
			"byteLength":2592,
			"byteOffset":2592,
			"target":34962
		},
		{
			"buffer":0,
			"byteLength":1728,
			"byteOffset":5184,
			"target":34962
		},
		{
			"buffer":0,
			"byteLength":1728,
			"byteOffset":6912,
			"target":34962
		},
		{
			"buffer":0,
			"byteLength":840,
			"byteOffset":8640,
			"target":34963
		},
		{
			"buffer":0,
			"byteLength":288,
			"byteOffset":9480,
			"target":34962
		},
		{
			"buffer":0,
			"byteLength":288,
			"byteOffset":9768,
			"target":34962
		},
		{
			"buffer":0,
			"byteLength":192,
			"byteOffset":10056,
			"target":34962
		},
		{
			"buffer":0,
			"byteLength":72,
			"byteOffset":10248,
			"target":34963
		},
		{
			"buffer":0,
			"byteLength":288,
			"byteOffset":10320,
			"target":34962
		},
		{
			"buffer":0,
			"byteLength":288,
			"byteOffset":10608,
			"target":34962
		},
		{
			"buffer":0,
			"byteLength":192,
			"byteOffset":10896,
			"target":34962
		},
		{
			"buffer":0,
			"byteLength":72,
			"byteOffset":11088,
			"target":34963
		}
	],
	"samplers":[
		{
			"magFilter":9729,
			"minFilter":9987
		}
	],
	"buffers":[
		{
			"byteLength":11160,
			"uri":"Relief.bin"
		}
	]
}
