{
	"asset":{
		"generator":"Khronos glTF Blender I/O v4.1.63",
		"version":"2.0"
	},
	"scene":0,
	"scenes":[
		{
			"name":"Scene",
			"nodes":[
				0,
				1
			]
		}
	],
	"nodes":[
		{
			"mesh":0,
			"name":"noob",
			"rotation":[
				0.7071068286895752,
				0,
				0,
				0.7071068286895752
			],
			"scale":[
				0.4089677333831787,
				0.4089677333831787,
				0.4089677333831787
			],
			"translation":[
				2.9431865215301514,
				0.05922698974609375,
				0.7557258605957031
			]
		},
		{
			"name":"\u30a8\u30f3\u30d7\u30c6\u30a3",
			"scale":[
				0.4089677333831787,
				0.4089677333831787,
				0.4089677333831787
			],
			"translation":[
				7.016290664672852,
				65.63185119628906,
				40.24335479736328
			]
		}
	],
	"meshes":[
		{
			"name":"noob",
			"primitives":[
				{
					"attributes":{
						"POSITION":0,
						"NORMAL":1
					},
					"indices":2
				}
			]
		}
	],
	"accessors":[
		{
			"bufferView":0,
			"componentType":5126,
			"count":35860,
			"max":[
				61.90620040893555,
				103.21119689941406,
				0.046799998730421066
			],
			"min":[
				-24.933399200439453,
				-104.00679779052734,
				-200.62399291992188
			],
			"type":"VEC3"
		},
		{
			"bufferView":1,
			"componentType":5126,
			"count":35860,
			"type":"VEC3"
		},
		{
			"bufferView":2,
			"componentType":5123,
			"count":84222,
			"type":"SCALAR"
		}
	],
	"bufferViews":[
		{
			"buffer":0,
			"byteLength":430320,
			"byteOffset":0,
			"target":34962
		},
		{
			"buffer":0,
			"byteLength":430320,
			"byteOffset":430320,
			"target":34962
		},
		{
			"buffer":0,
			"byteLength":168444,
			"byteOffset":860640,
			"target":34963
		}
	],
	"buffers":[
		{
			"byteLength":1029084,
			"uri":"Noob.bin"
		}
	]
}
