{
	"asset":{
		"generator":"Khronos glTF Blender I/O v4.1.63",
		"version":"2.0"
	},
	"scene":0,
	"scenes":[
		{
			"name":"Scene",
			"nodes":[
				0,
				1,
				2,
				3
			]
		}
	],
	"nodes":[
		{
			"mesh":0,
			"name":"Cube",
			"rotation":[
				0,
				-1,
				0,
				7.549790126404332e-08
			],
			"scale":[
				0.19313882291316986,
				0.19313882291316986,
				0.19313882291316986
			],
			"translation":[
				0.0015457886038348079,
				0.3274652659893036,
				-0.11703979969024658
			]
		},
		{
			"mesh":1,
			"name":"\u5186\u67f1",
			"rotation":[
				0,
				-0.7071068286895752,
				0.7071068286895752,
				5.338508302088485e-08
			],
			"scale":[
				0.011018170975148678,
				0.0726768895983696,
				0.011018170975148678
			],
			"translation":[
				-0.08463449031114578,
				0.2765408456325531,
				0.5815672874450684
			]
		},
		{
			"mesh":2,
			"name":"\u5186\u67f1.001",
			"rotation":[
				0,
				-0.7071068286895752,
				0.7071068286895752,
				5.338508302088485e-08
			],
			"scale":[
				0.011018170975148678,
				0.0726768895983696,
				0.011018170975148678
			],
			"translation":[
				0.08697548508644104,
				0.2765408456325531,
				0.5797215700149536
			]
		},
		{
			"name":"AttachPoint",
			"rotation":[
				-0.6899197101593018,
				0,
				0,
				0.7238858938217163
			],
			"translation":[
				0.20585839450359344,
				0.2565382122993469,
				-0.27237388491630554
			]
		}
	],
	"animations":[
		{
			"channels":[
				{
					"sampler":0,
					"target":{
						"node":3,
						"path":"translation"
					}
				},
				{
					"sampler":1,
					"target":{
						"node":3,
						"path":"rotation"
					}
				},
				{
					"sampler":2,
					"target":{
						"node":3,
						"path":"scale"
					}
				}
			],
			"name":"Action",
			"samplers":[
				{
					"input":27,
					"interpolation":"LINEAR",
					"output":28
				},
				{
					"input":27,
					"interpolation":"LINEAR",
					"output":29
				},
				{
					"input":30,
					"interpolation":"STEP",
					"output":31
				}
			]
		}
	],
	"materials":[
		{
			"doubleSided":true,
			"name":"Material",
			"pbrMetallicRoughness":{
				"baseColorFactor":[
					0.49715471267700195,
					0.4940619170665741,
					0.51025390625,
					1
				],
				"metallicFactor":0.9357798099517822,
				"roughnessFactor":0.10550499707460403
			}
		},
		{
			"doubleSided":true,
			"name":"\u30de\u30c6\u30ea\u30a2\u30eb",
			"pbrMetallicRoughness":{
				"baseColorFactor":[
					0.8008598685264587,
					0.17734520137310028,
					0.01080066803842783,
					1
				],
				"roughnessFactor":0.16055047512054443
			}
		},
		{
			"doubleSided":true,
			"name":"\u30de\u30c6\u30ea\u30a2\u30eb.001",
			"pbrMetallicRoughness":{
				"baseColorFactor":[
					0.015567980706691742,
					0.015567980706691742,
					0.015567980706691742,
					1
				],
				"metallicFactor":0.935779869556427,
				"roughnessFactor":0.12385299801826477
			}
		}
	],
	"meshes":[
		{
			"name":"Cube",
			"primitives":[
				{
					"attributes":{
						"POSITION":0,
						"NORMAL":1,
						"TEXCOORD_0":2,
						"TEXCOORD_1":3
					},
					"indices":4,
					"material":0
				},
				{
					"attributes":{
						"POSITION":5,
						"NORMAL":6,
						"TEXCOORD_0":7,
						"TEXCOORD_1":8
					},
					"indices":9,
					"material":1
				},
				{
					"attributes":{
						"POSITION":10,
						"NORMAL":11,
						"TEXCOORD_0":12,
						"TEXCOORD_1":13
					},
					"indices":14,
					"material":2
				},
				{
					"attributes":{
						"POSITION":15,
						"NORMAL":16,
						"TEXCOORD_0":17,
						"TEXCOORD_1":18
					},
					"indices":19,
					"material":2
				}
			]
		},
		{
			"name":"\u5186\u67f1",
			"primitives":[
				{
					"attributes":{
						"POSITION":20,
						"NORMAL":21,
						"TEXCOORD_0":22
					},
					"indices":23,
					"material":0
				}
			]
		},
		{
			"name":"\u5186\u67f1.001",
			"primitives":[
				{
					"attributes":{
						"POSITION":24,
						"NORMAL":25,
						"TEXCOORD_0":26
					},
					"indices":23,
					"material":0
				}
			]
		}
	],
	"accessors":[
		{
			"bufferView":0,
			"componentType":5126,
			"count":1257,
			"max":[
				1,
				1.0971765518188477,
				2.6779518127441406
			],
			"min":[
				-1,
				-1.6967190504074097,
				-4.35528564453125
			],
			"type":"VEC3"
		},
		{
			"bufferView":1,
			"componentType":5126,
			"count":1257,
			"type":"VEC3"
		},
		{
			"bufferView":2,
			"componentType":5126,
			"count":1257,
			"type":"VEC2"
		},
		{
			"bufferView":3,
			"componentType":5126,
			"count":1257,
			"type":"VEC2"
		},
		{
			"bufferView":4,
			"componentType":5123,
			"count":2682,
			"type":"SCALAR"
		},
		{
			"bufferView":5,
			"componentType":5126,
			"count":217,
			"max":[
				0.5,
				2.5705623626708984,
				2.4951281547546387
			],
			"min":[
				-0.5,
				0.314089298248291,
				-4.087628364562988
			],
			"type":"VEC3"
		},
		{
			"bufferView":6,
			"componentType":5126,
			"count":217,
			"type":"VEC3"
		},
		{
			"bufferView":7,
			"componentType":5126,
			"count":217,
			"type":"VEC2"
		},
		{
			"bufferView":8,
			"componentType":5126,
			"count":217,
			"type":"VEC2"
		},
		{
			"bufferView":9,
			"componentType":5123,
			"count":420,
			"type":"SCALAR"
		},
		{
			"bufferView":10,
			"componentType":5126,
			"count":44,
			"max":[
				0.6371556520462036,
				-1.2091403007507324,
				1.8655568361282349
			],
			"min":[
				-0.7283626794815063,
				-1.288562297821045,
				1
			],
			"type":"VEC3"
		},
		{
			"bufferView":11,
			"componentType":5126,
			"count":44,
			"type":"VEC3"
		},
		{
			"bufferView":12,
			"componentType":5126,
			"count":44,
			"type":"VEC2"
		},
		{
			"bufferView":13,
			"componentType":5126,
			"count":44,
			"type":"VEC2"
		},
		{
			"bufferView":14,
			"componentType":5123,
			"count":66,
			"type":"SCALAR"
		},
		{
			"bufferView":15,
			"componentType":5126,
			"count":584,
			"max":[
				0.9975950717926025,
				0.8111778497695923,
				2.075796604156494
			],
			"min":[
				-0.98002028465271,
				-1.6967190504074097,
				-0.715703547000885
			],
			"type":"VEC3"
		},
		{
			"bufferView":16,
			"componentType":5126,
			"count":584,
			"type":"VEC3"
		},
		{
			"bufferView":17,
			"componentType":5126,
			"count":584,
			"type":"VEC2"
		},
		{
			"bufferView":18,
			"componentType":5126,
			"count":584,
			"type":"VEC2"
		},
		{
			"bufferView":19,
			"componentType":5123,
			"count":972,
			"type":"SCALAR"
		},
		{
			"bufferView":20,
			"componentType":5126,
			"count":704,
			"max":[
				2.1300861835479736,
				1.4458019733428955,
				2.122018575668335
			],
			"min":[
				-2.139702081680298,
				-0.4343003034591675,
				-2.157886505126953
			],
			"type":"VEC3"
		},
		{
			"bufferView":21,
			"componentType":5126,
			"count":704,
			"type":"VEC3"
		},
		{
			"bufferView":22,
			"componentType":5126,
			"count":704,
			"type":"VEC2"
		},
		{
			"bufferView":23,
			"componentType":5123,
			"count":1332,
			"type":"SCALAR"
		},
		{
			"bufferView":24,
			"componentType":5126,
			"count":704,
			"max":[
				2.1300861835479736,
				1.4381961822509766,
				2.122018575668335
			],
			"min":[
				-2.139702081680298,
				-0.4343003034591675,
				-2.157886505126953
			],
			"type":"VEC3"
		},
		{
			"bufferView":25,
			"componentType":5126,
			"count":704,
			"type":"VEC3"
		},
		{
			"bufferView":26,
			"componentType":5126,
			"count":704,
			"type":"VEC2"
		},
		{
			"bufferView":27,
			"componentType":5126,
			"count":26,
			"max":[
				1.0416666666666667
			],
			"min":[
				0
			],
			"type":"SCALAR"
		},
		{
			"bufferView":28,
			"componentType":5126,
			"count":26,
			"type":"VEC3"
		},
		{
			"bufferView":29,
			"componentType":5126,
			"count":26,
			"type":"VEC4"
		},
		{
			"bufferView":30,
			"componentType":5126,
			"count":2,
			"max":[
				1.0416666666666667
			],
			"min":[
				0
			],
			"type":"SCALAR"
		},
		{
			"bufferView":31,
			"componentType":5126,
			"count":2,
			"type":"VEC3"
		}
	],
	"bufferViews":[
		{
			"buffer":0,
			"byteLength":15084,
			"byteOffset":0,
			"target":34962
		},
		{
			"buffer":0,
			"byteLength":15084,
			"byteOffset":15084,
			"target":34962
		},
		{
			"buffer":0,
			"byteLength":10056,
			"byteOffset":30168,
			"target":34962
		},
		{
			"buffer":0,
			"byteLength":10056,
			"byteOffset":40224,
			"target":34962
		},
		{
			"buffer":0,
			"byteLength":5364,
			"byteOffset":50280,
			"target":34963
		},
		{
			"buffer":0,
			"byteLength":2604,
			"byteOffset":55644,
			"target":34962
		},
		{
			"buffer":0,
			"byteLength":2604,
			"byteOffset":58248,
			"target":34962
		},
		{
			"buffer":0,
			"byteLength":1736,
			"byteOffset":60852,
			"target":34962
		},
		{
			"buffer":0,
			"byteLength":1736,
			"byteOffset":62588,
			"target":34962
		},
		{
			"buffer":0,
			"byteLength":840,
			"byteOffset":64324,
			"target":34963
		},
		{
			"buffer":0,
			"byteLength":528,
			"byteOffset":65164,
			"target":34962
		},
		{
			"buffer":0,
			"byteLength":528,
			"byteOffset":65692,
			"target":34962
		},
		{
			"buffer":0,
			"byteLength":352,
			"byteOffset":66220,
			"target":34962
		},
		{
			"buffer":0,
			"byteLength":352,
			"byteOffset":66572,
			"target":34962
		},
		{
			"buffer":0,
			"byteLength":132,
			"byteOffset":66924,
			"target":34963
		},
		{
			"buffer":0,
			"byteLength":7008,
			"byteOffset":67056,
			"target":34962
		},
		{
			"buffer":0,
			"byteLength":7008,
			"byteOffset":74064,
			"target":34962
		},
		{
			"buffer":0,
			"byteLength":4672,
			"byteOffset":81072,
			"target":34962
		},
		{
			"buffer":0,
			"byteLength":4672,
			"byteOffset":85744,
			"target":34962
		},
		{
			"buffer":0,
			"byteLength":1944,
			"byteOffset":90416,
			"target":34963
		},
		{
			"buffer":0,
			"byteLength":8448,
			"byteOffset":92360,
			"target":34962
		},
		{
			"buffer":0,
			"byteLength":8448,
			"byteOffset":100808,
			"target":34962
		},
		{
			"buffer":0,
			"byteLength":5632,
			"byteOffset":109256,
			"target":34962
		},
		{
			"buffer":0,
			"byteLength":2664,
			"byteOffset":114888,
			"target":34963
		},
		{
			"buffer":0,
			"byteLength":8448,
			"byteOffset":117552,
			"target":34962
		},
		{
			"buffer":0,
			"byteLength":8448,
			"byteOffset":126000,
			"target":34962
		},
		{
			"buffer":0,
			"byteLength":5632,
			"byteOffset":134448,
			"target":34962
		},
		{
			"buffer":0,
			"byteLength":104,
			"byteOffset":140080
		},
		{
			"buffer":0,
			"byteLength":312,
			"byteOffset":140184
		},
		{
			"buffer":0,
			"byteLength":416,
			"byteOffset":140496
		},
		{
			"buffer":0,
			"byteLength":8,
			"byteOffset":140912
		},
		{
			"buffer":0,
			"byteLength":24,
			"byteOffset":140920
		}
	],
	"buffers":[
		{
			"byteLength":140944,
			"uri":"Probe.bin"
		}
	]
}
