{
	"asset":{
		"generator":"Khronos glTF Blender I/O v4.1.63",
		"version":"2.0"
	},
	"scene":0,
	"scenes":[
		{
			"name":"Scene",
			"nodes":[
				0,
				1,
				2
			]
		}
	],
	"nodes":[
		{
			"mesh":0,
			"name":"COL01"
		},
		{
			"mesh":1,
			"name":"\u7acb\u65b9\u4f53"
		},
		{
			"name":"GearP",
			"translation":[
				0,
				-4.731098175048828,
				0
			]
		}
	],
	"materials":[
		{
			"doubleSided":true,
			"name":"\u30de\u30c6\u30ea\u30a2\u30eb.003",
			"pbrMetallicRoughness":{
				"metallicFactor":0,
				"roughnessFactor":0.5
			}
		}
	],
	"meshes":[
		{
			"name":"\u7acb\u65b9\u4f53.005",
			"primitives":[
				{
					"attributes":{
						"POSITION":0,
						"NORMAL":1,
						"TEXCOORD_0":2
					},
					"indices":3
				}
			]
		},
		{
			"name":"\u7acb\u65b9\u4f53",
			"primitives":[
				{
					"attributes":{
						"POSITION":4,
						"NORMAL":5,
						"TEXCOORD_0":6,
						"TEXCOORD_1":7
					},
					"indices":8,
					"material":0
				}
			]
		}
	],
	"accessors":[
		{
			"bufferView":0,
			"componentType":5126,
			"count":56,
			"max":[
				6.853089332580566,
				0.8417000770568848,
				4.221758842468262
			],
			"min":[
				-5.997234344482422,
				0.11430341005325317,
				-4.626509189605713
			],
			"type":"VEC3"
		},
		{
			"bufferView":1,
			"componentType":5126,
			"count":56,
			"type":"VEC3"
		},
		{
			"bufferView":2,
			"componentType":5126,
			"count":56,
			"type":"VEC2"
		},
		{
			"bufferView":3,
			"componentType":5123,
			"count":108,
			"type":"SCALAR"
		},
		{
			"bufferView":4,
			"componentType":5126,
			"count":283,
			"max":[
				6.857641220092773,
				1.1771657466888428,
				4.220209121704102
			],
			"min":[
				-6.008485794067383,
				0.01693403720855713,
				-4.626230716705322
			],
			"type":"VEC3"
		},
		{
			"bufferView":5,
			"componentType":5126,
			"count":283,
			"type":"VEC3"
		},
		{
			"bufferView":6,
			"componentType":5126,
			"count":283,
			"type":"VEC2"
		},
		{
			"bufferView":7,
			"componentType":5126,
			"count":283,
			"type":"VEC2"
		},
		{
			"bufferView":8,
			"componentType":5123,
			"count":504,
			"type":"SCALAR"
		}
	],
	"bufferViews":[
		{
			"buffer":0,
			"byteLength":672,
			"byteOffset":0,
			"target":34962
		},
		{
			"buffer":0,
			"byteLength":672,
			"byteOffset":672,
			"target":34962
		},
		{
			"buffer":0,
			"byteLength":448,
			"byteOffset":1344,
			"target":34962
		},
		{
			"buffer":0,
			"byteLength":216,
			"byteOffset":1792,
			"target":34963
		},
		{
			"buffer":0,
			"byteLength":3396,
			"byteOffset":2008,
			"target":34962
		},
		{
			"buffer":0,
			"byteLength":3396,
			"byteOffset":5404,
			"target":34962
		},
		{
			"buffer":0,
			"byteLength":2264,
			"byteOffset":8800,
			"target":34962
		},
		{
			"buffer":0,
			"byteLength":2264,
			"byteOffset":11064,
			"target":34962
		},
		{
			"buffer":0,
			"byteLength":1008,
			"byteOffset":13328,
			"target":34963
		}
	],
	"buffers":[
		{
			"byteLength":14336,
			"uri":"bridgeUp.bin"
		}
	]
}
