{
	"asset":{
		"generator":"Khronos glTF Blender I/O v4.1.63",
		"version":"2.0"
	},
	"scene":0,
	"scenes":[
		{
			"name":"Scene",
			"nodes":[
				0,
				1,
				2,
				3,
				4,
				5,
				6
			]
		}
	],
	"nodes":[
		{
			"mesh":0,
			"name":"Cube"
		},
		{
			"mesh":1,
			"name":"\u7acb\u65b9\u4f53"
		},
		{
			"mesh":2,
			"name":"\u7acb\u65b9\u4f53.001"
		},
		{
			"mesh":3,
			"name":"COL.003"
		},
		{
			"mesh":4,
			"name":"COL.007"
		},
		{
			"mesh":5,
			"name":"COL.004"
		},
		{
			"name":"GearP",
			"translation":[
				0,
				-2.0047056674957275,
				0
			]
		}
	],
	"materials":[
		{
			"doubleSided":true,
			"name":"\u30de\u30c6\u30ea\u30a2\u30eb.001",
			"pbrMetallicRoughness":{
				"baseColorTexture":{
					"index":0
				},
				"metallicFactor":0,
				"roughnessFactor":0.5
			}
		},
		{
			"doubleSided":true,
			"name":"\u30de\u30c6\u30ea\u30a2\u30eb.003",
			"pbrMetallicRoughness":{
				"baseColorTexture":{
					"index":1
				},
				"metallicFactor":0,
				"roughnessFactor":0.5
			}
		}
	],
	"meshes":[
		{
			"name":"Cube",
			"primitives":[
				{
					"attributes":{
						"POSITION":0,
						"NORMAL":1,
						"TEXCOORD_0":2
					},
					"indices":3,
					"material":0
				}
			]
		},
		{
			"name":"\u7acb\u65b9\u4f53",
			"primitives":[
				{
					"attributes":{
						"POSITION":4,
						"NORMAL":5,
						"TEXCOORD_0":6
					},
					"indices":7,
					"material":1
				}
			]
		},
		{
			"name":"\u7acb\u65b9\u4f53.001",
			"primitives":[
				{
					"attributes":{
						"POSITION":8,
						"NORMAL":9,
						"TEXCOORD_0":10
					},
					"indices":11,
					"material":0
				}
			]
		},
		{
			"name":"\u7acb\u65b9\u4f53.005",
			"primitives":[
				{
					"attributes":{
						"POSITION":12,
						"NORMAL":13,
						"TEXCOORD_0":14
					},
					"indices":15
				}
			]
		},
		{
			"name":"\u7acb\u65b9\u4f53.009",
			"primitives":[
				{
					"attributes":{
						"POSITION":16,
						"NORMAL":17,
						"TEXCOORD_0":18
					},
					"indices":19
				}
			]
		},
		{
			"name":"\u7acb\u65b9\u4f53.014",
			"primitives":[
				{
					"attributes":{
						"POSITION":20,
						"NORMAL":21,
						"TEXCOORD_0":22
					},
					"indices":19
				}
			]
		}
	],
	"textures":[
		{
			"sampler":0,
			"source":0
		},
		{
			"sampler":0,
			"source":1
		}
	],
	"images":[
		{
			"mimeType":"image/jpeg",
			"name":"sunahekiL02",
			"uri":"sunahekiL02.jpg"
		},
		{
			"mimeType":"image/jpeg",
			"name":"keisodoL02",
			"uri":"keisodoL02.jpg"
		}
	],
	"accessors":[
		{
			"bufferView":0,
			"componentType":5126,
			"count":1936,
			"max":[
				5.876926422119141,
				2.4023218154907227,
				3.235635280609131
			],
			"min":[
				-5.8948845863342285,
				0.8825098872184753,
				-3.8222508430480957
			],
			"type":"VEC3"
		},
		{
			"bufferView":1,
			"componentType":5126,
			"count":1936,
			"type":"VEC3"
		},
		{
			"bufferView":2,
			"componentType":5126,
			"count":1936,
			"type":"VEC2"
		},
		{
			"bufferView":3,
			"componentType":5123,
			"count":3456,
			"type":"SCALAR"
		},
		{
			"bufferView":4,
			"componentType":5126,
			"count":193,
			"max":[
				6.857641220092773,
				0.9671226739883423,
				4.220209121704102
			],
			"min":[
				-6.008485794067383,
				0.01693403720855713,
				-4.626230716705322
			],
			"type":"VEC3"
		},
		{
			"bufferView":5,
			"componentType":5126,
			"count":193,
			"type":"VEC3"
		},
		{
			"bufferView":6,
			"componentType":5126,
			"count":193,
			"type":"VEC2"
		},
		{
			"bufferView":7,
			"componentType":5123,
			"count":360,
			"type":"SCALAR"
		},
		{
			"bufferView":8,
			"componentType":5126,
			"count":96,
			"max":[
				6.463685989379883,
				1.1771657466888428,
				4.164533615112305
			],
			"min":[
				-5.507824897766113,
				0.7425836324691772,
				-4.564154148101807
			],
			"type":"VEC3"
		},
		{
			"bufferView":9,
			"componentType":5126,
			"count":96,
			"type":"VEC3"
		},
		{
			"bufferView":10,
			"componentType":5126,
			"count":96,
			"type":"VEC2"
		},
		{
			"bufferView":11,
			"componentType":5123,
			"count":144,
			"type":"SCALAR"
		},
		{
			"bufferView":12,
			"componentType":5126,
			"count":56,
			"max":[
				6.853089332580566,
				0.8417000770568848,
				4.221758842468262
			],
			"min":[
				-5.997234344482422,
				0.11430341005325317,
				-4.626509189605713
			],
			"type":"VEC3"
		},
		{
			"bufferView":13,
			"componentType":5126,
			"count":56,
			"type":"VEC3"
		},
		{
			"bufferView":14,
			"componentType":5126,
			"count":56,
			"type":"VEC2"
		},
		{
			"bufferView":15,
			"componentType":5123,
			"count":108,
			"type":"SCALAR"
		},
		{
			"bufferView":16,
			"componentType":5126,
			"count":272,
			"max":[
				5.8279619216918945,
				2.4108262062072754,
				3.228473663330078
			],
			"min":[
				-5.883705139160156,
				0.940251886844635,
				2.814629554748535
			],
			"type":"VEC3"
		},
		{
			"bufferView":17,
			"componentType":5126,
			"count":272,
			"type":"VEC3"
		},
		{
			"bufferView":18,
			"componentType":5126,
			"count":272,
			"type":"VEC2"
		},
		{
			"bufferView":19,
			"componentType":5123,
			"count":528,
			"type":"SCALAR"
		},
		{
			"bufferView":20,
			"componentType":5126,
			"count":272,
			"max":[
				5.8279619216918945,
				2.4108262062072754,
				-3.3722143173217773
			],
			"min":[
				-5.883705139160156,
				0.940251886844635,
				-3.7860584259033203
			],
			"type":"VEC3"
		},
		{
			"bufferView":21,
			"componentType":5126,
			"count":272,
			"type":"VEC3"
		},
		{
			"bufferView":22,
			"componentType":5126,
			"count":272,
			"type":"VEC2"
		}
	],
	"bufferViews":[
		{
			"buffer":0,
			"byteLength":23232,
			"byteOffset":0,
			"target":34962
		},
		{
			"buffer":0,
			"byteLength":23232,
			"byteOffset":23232,
			"target":34962
		},
		{
			"buffer":0,
			"byteLength":15488,
			"byteOffset":46464,
			"target":34962
		},
		{
			"buffer":0,
			"byteLength":6912,
			"byteOffset":61952,
			"target":34963
		},
		{
			"buffer":0,
			"byteLength":2316,
			"byteOffset":68864,
			"target":34962
		},
		{
			"buffer":0,
			"byteLength":2316,
			"byteOffset":71180,
			"target":34962
		},
		{
			"buffer":0,
			"byteLength":1544,
			"byteOffset":73496,
			"target":34962
		},
		{
			"buffer":0,
			"byteLength":720,
			"byteOffset":75040,
			"target":34963
		},
		{
			"buffer":0,
			"byteLength":1152,
			"byteOffset":75760,
			"target":34962
		},
		{
			"buffer":0,
			"byteLength":1152,
			"byteOffset":76912,
			"target":34962
		},
		{
			"buffer":0,
			"byteLength":768,
			"byteOffset":78064,
			"target":34962
		},
		{
			"buffer":0,
			"byteLength":288,
			"byteOffset":78832,
			"target":34963
		},
		{
			"buffer":0,
			"byteLength":672,
			"byteOffset":79120,
			"target":34962
		},
		{
			"buffer":0,
			"byteLength":672,
			"byteOffset":79792,
			"target":34962
		},
		{
			"buffer":0,
			"byteLength":448,
			"byteOffset":80464,
			"target":34962
		},
		{
			"buffer":0,
			"byteLength":216,
			"byteOffset":80912,
			"target":34963
		},
		{
			"buffer":0,
			"byteLength":3264,
			"byteOffset":81128,
			"target":34962
		},
		{
			"buffer":0,
			"byteLength":3264,
			"byteOffset":84392,
			"target":34962
		},
		{
			"buffer":0,
			"byteLength":2176,
			"byteOffset":87656,
			"target":34962
		},
		{
			"buffer":0,
			"byteLength":1056,
			"byteOffset":89832,
			"target":34963
		},
		{
			"buffer":0,
			"byteLength":3264,
			"byteOffset":90888,
			"target":34962
		},
		{
			"buffer":0,
			"byteLength":3264,
			"byteOffset":94152,
			"target":34962
		},
		{
			"buffer":0,
			"byteLength":2176,
			"byteOffset":97416,
			"target":34962
		}
	],
	"samplers":[
		{
			"magFilter":9729,
			"minFilter":9987
		}
	],
	"buffers":[
		{
			"byteLength":99592,
			"uri":"bridgeUp.bin"
		}
	]
}
