{
	"asset":{
		"generator":"Khronos glTF Blender I/O v4.1.63",
		"version":"2.0"
	},
	"scene":0,
	"scenes":[
		{
			"name":"Scene",
			"nodes":[
				0,
				1,
				2
			]
		}
	],
	"nodes":[
		{
			"mesh":0,
			"name":"\u5186\u67f1",
			"scale":[
				2.2374534606933594,
				2.2374534606933594,
				2.2374534606933594
			],
			"translation":[
				0,
				2.287614107131958,
				0
			]
		},
		{
			"mesh":1,
			"name":"Bridge",
			"scale":[
				1.2862703800201416,
				1.2862703800201416,
				0.8923275470733643
			],
			"translation":[
				-0.027254551649093628,
				6.470656394958496,
				0.000772915780544281
			]
		},
		{
			"mesh":2,
			"name":"Gear",
			"scale":[
				1.852346658706665,
				1.852346658706665,
				1.852346658706665
			],
			"translation":[
				-0.0004640575498342514,
				4.274923324584961,
				-0.0006449958891607821
			]
		}
	],
	"animations":[
		{
			"channels":[
				{
					"sampler":0,
					"target":{
						"node":1,
						"path":"translation"
					}
				},
				{
					"sampler":1,
					"target":{
						"node":1,
						"path":"rotation"
					}
				},
				{
					"sampler":2,
					"target":{
						"node":1,
						"path":"scale"
					}
				},
				{
					"sampler":3,
					"target":{
						"node":2,
						"path":"translation"
					}
				},
				{
					"sampler":4,
					"target":{
						"node":2,
						"path":"rotation"
					}
				},
				{
					"sampler":5,
					"target":{
						"node":2,
						"path":"scale"
					}
				}
			],
			"name":"Action",
			"samplers":[
				{
					"input":13,
					"interpolation":"STEP",
					"output":14
				},
				{
					"input":15,
					"interpolation":"LINEAR",
					"output":16
				},
				{
					"input":13,
					"interpolation":"STEP",
					"output":17
				},
				{
					"input":13,
					"interpolation":"STEP",
					"output":18
				},
				{
					"input":15,
					"interpolation":"LINEAR",
					"output":19
				},
				{
					"input":13,
					"interpolation":"STEP",
					"output":20
				}
			]
		}
	],
	"materials":[
		{
			"doubleSided":true,
			"name":"\u30de\u30c6\u30ea\u30a2\u30eb",
			"pbrMetallicRoughness":{
				"baseColorFactor":[
					0.0060794660821557045,
					0.17005960643291473,
					0.801350474357605,
					1
				],
				"metallicFactor":0,
				"roughnessFactor":0.5
			}
		}
	],
	"meshes":[
		{
			"name":"\u5186\u67f1",
			"primitives":[
				{
					"attributes":{
						"POSITION":0,
						"NORMAL":1,
						"TEXCOORD_0":2
					},
					"indices":3
				}
			]
		},
		{
			"name":"Cube",
			"primitives":[
				{
					"attributes":{
						"POSITION":4,
						"NORMAL":5,
						"TEXCOORD_0":6,
						"TEXCOORD_1":7
					},
					"indices":8,
					"material":0
				}
			]
		},
		{
			"name":"\u5186\u67f1.001",
			"primitives":[
				{
					"attributes":{
						"POSITION":9,
						"NORMAL":10,
						"TEXCOORD_0":11
					},
					"indices":12
				}
			]
		}
	],
	"accessors":[
		{
			"bufferView":0,
			"componentType":5126,
			"count":704,
			"max":[
				1.0965003967285156,
				0.6557006239891052,
				1.0965003967285156
			],
			"min":[
				-1.0965003967285156,
				-1,
				-1.0965003967285156
			],
			"type":"VEC3"
		},
		{
			"bufferView":1,
			"componentType":5126,
			"count":704,
			"type":"VEC3"
		},
		{
			"bufferView":2,
			"componentType":5126,
			"count":704,
			"type":"VEC2"
		},
		{
			"bufferView":3,
			"componentType":5123,
			"count":1140,
			"type":"SCALAR"
		},
		{
			"bufferView":4,
			"componentType":5126,
			"count":2225,
			"max":[
				5.315074920654297,
				0.5297077298164368,
				5.003523826599121
			],
			"min":[
				-4.687587261199951,
				-1.3247922658920288,
				-4.910369873046875
			],
			"type":"VEC3"
		},
		{
			"bufferView":5,
			"componentType":5126,
			"count":2225,
			"type":"VEC3"
		},
		{
			"bufferView":6,
			"componentType":5126,
			"count":2225,
			"type":"VEC2"
		},
		{
			"bufferView":7,
			"componentType":5126,
			"count":2225,
			"type":"VEC2"
		},
		{
			"bufferView":8,
			"componentType":5123,
			"count":3960,
			"type":"SCALAR"
		},
		{
			"bufferView":9,
			"componentType":5126,
			"count":640,
			"max":[
				1.319186806678772,
				0.2656361758708954,
				1.3178445100784302
			],
			"min":[
				-1.3134880065917969,
				-0.2831960618495941,
				-1.3209408521652222
			],
			"type":"VEC3"
		},
		{
			"bufferView":10,
			"componentType":5126,
			"count":640,
			"type":"VEC3"
		},
		{
			"bufferView":11,
			"componentType":5126,
			"count":640,
			"type":"VEC2"
		},
		{
			"bufferView":12,
			"componentType":5123,
			"count":1140,
			"type":"SCALAR"
		},
		{
			"bufferView":13,
			"componentType":5126,
			"count":2,
			"max":[
				6.666666666666667
			],
			"min":[
				0.041666666666666664
			],
			"type":"SCALAR"
		},
		{
			"bufferView":14,
			"componentType":5126,
			"count":2,
			"type":"VEC3"
		},
		{
			"bufferView":15,
			"componentType":5126,
			"count":160,
			"max":[
				6.666666666666667
			],
			"min":[
				0.041666666666666664
			],
			"type":"SCALAR"
		},
		{
			"bufferView":16,
			"componentType":5126,
			"count":160,
			"type":"VEC4"
		},
		{
			"bufferView":17,
			"componentType":5126,
			"count":2,
			"type":"VEC3"
		},
		{
			"bufferView":18,
			"componentType":5126,
			"count":2,
			"type":"VEC3"
		},
		{
			"bufferView":19,
			"componentType":5126,
			"count":160,
			"type":"VEC4"
		},
		{
			"bufferView":20,
			"componentType":5126,
			"count":2,
			"type":"VEC3"
		}
	],
	"bufferViews":[
		{
			"buffer":0,
			"byteLength":8448,
			"byteOffset":0,
			"target":34962
		},
		{
			"buffer":0,
			"byteLength":8448,
			"byteOffset":8448,
			"target":34962
		},
		{
			"buffer":0,
			"byteLength":5632,
			"byteOffset":16896,
			"target":34962
		},
		{
			"buffer":0,
			"byteLength":2280,
			"byteOffset":22528,
			"target":34963
		},
		{
			"buffer":0,
			"byteLength":26700,
			"byteOffset":24808,
			"target":34962
		},
		{
			"buffer":0,
			"byteLength":26700,
			"byteOffset":51508,
			"target":34962
		},
		{
			"buffer":0,
			"byteLength":17800,
			"byteOffset":78208,
			"target":34962
		},
		{
			"buffer":0,
			"byteLength":17800,
			"byteOffset":96008,
			"target":34962
		},
		{
			"buffer":0,
			"byteLength":7920,
			"byteOffset":113808,
			"target":34963
		},
		{
			"buffer":0,
			"byteLength":7680,
			"byteOffset":121728,
			"target":34962
		},
		{
			"buffer":0,
			"byteLength":7680,
			"byteOffset":129408,
			"target":34962
		},
		{
			"buffer":0,
			"byteLength":5120,
			"byteOffset":137088,
			"target":34962
		},
		{
			"buffer":0,
			"byteLength":2280,
			"byteOffset":142208,
			"target":34963
		},
		{
			"buffer":0,
			"byteLength":8,
			"byteOffset":144488
		},
		{
			"buffer":0,
			"byteLength":24,
			"byteOffset":144496
		},
		{
			"buffer":0,
			"byteLength":640,
			"byteOffset":144520
		},
		{
			"buffer":0,
			"byteLength":2560,
			"byteOffset":145160
		},
		{
			"buffer":0,
			"byteLength":24,
			"byteOffset":147720
		},
		{
			"buffer":0,
			"byteLength":24,
			"byteOffset":147744
		},
		{
			"buffer":0,
			"byteLength":2560,
			"byteOffset":147768
		},
		{
			"buffer":0,
			"byteLength":24,
			"byteOffset":150328
		}
	],
	"buffers":[
		{
			"byteLength":150352,
			"uri":"RotateBridge.bin"
		}
	]
}
