{
	"asset":{
		"generator":"Khronos glTF Blender I/O v4.1.63",
		"version":"2.0"
	},
	"scene":0,
	"scenes":[
		{
			"name":"Scene",
			"nodes":[
				0
			]
		}
	],
	"nodes":[
		{
			"mesh":0,
			"name":"\u5186\u67f1",
			"rotation":[
				-0.059391170740127563,
				0.16317589581012726,
				-0.33682405948638916,
				0.9254166483879089
			],
			"translation":[
				0,
				5,
				0
			]
		}
	],
	"animations":[
		{
			"channels":[
				{
					"sampler":0,
					"target":{
						"node":0,
						"path":"translation"
					}
				}
			],
			"name":"Drop",
			"samplers":[
				{
					"input":10,
					"interpolation":"LINEAR",
					"output":11
				}
			]
		}
	],
	"materials":[
		{
			"doubleSided":true,
			"name":"\u30de\u30c6\u30ea\u30a2\u30eb",
			"pbrMetallicRoughness":{
				"baseColorFactor":[
					0.8004660606384277,
					0.015212979167699814,
					0.027323197573423386,
					1
				],
				"metallicFactor":0.6842105388641357,
				"roughnessFactor":0.03991630673408508
			}
		},
		{
			"doubleSided":true,
			"name":"\u30de\u30c6\u30ea\u30a2\u30eb.001",
			"pbrMetallicRoughness":{
				"baseColorFactor":[
					0.753566324710846,
					0.8005210161209106,
					0.7760834693908691,
					1
				],
				"metallicFactor":0.15000000596046448,
				"roughnessFactor":0
			}
		}
	],
	"meshes":[
		{
			"name":"\u5186\u67f1.001",
			"primitives":[
				{
					"attributes":{
						"POSITION":0,
						"NORMAL":1,
						"TEXCOORD_0":2,
						"TEXCOORD_1":3
					},
					"indices":4,
					"material":0
				},
				{
					"attributes":{
						"POSITION":5,
						"NORMAL":6,
						"TEXCOORD_0":7,
						"TEXCOORD_1":8
					},
					"indices":9,
					"material":1
				}
			]
		}
	],
	"accessors":[
		{
			"bufferView":0,
			"componentType":5126,
			"count":9313,
			"max":[
				0.9510565400123596,
				1,
				0.8090152740478516
			],
			"min":[
				-0.9510565400123596,
				-0.61687833070755,
				-0.9999982714653015
			],
			"type":"VEC3"
		},
		{
			"bufferView":1,
			"componentType":5126,
			"count":9313,
			"type":"VEC3"
		},
		{
			"bufferView":2,
			"componentType":5126,
			"count":9313,
			"type":"VEC2"
		},
		{
			"bufferView":3,
			"componentType":5126,
			"count":9313,
			"type":"VEC2"
		},
		{
			"bufferView":4,
			"componentType":5123,
			"count":16785,
			"type":"SCALAR"
		},
		{
			"bufferView":5,
			"componentType":5126,
			"count":2254,
			"max":[
				0.7673420906066895,
				0.5939738750457764,
				0.6890311241149902
			],
			"min":[
				-0.727224588394165,
				-0.23043492436408997,
				-0.7253766655921936
			],
			"type":"VEC3"
		},
		{
			"bufferView":6,
			"componentType":5126,
			"count":2254,
			"type":"VEC3"
		},
		{
			"bufferView":7,
			"componentType":5126,
			"count":2254,
			"type":"VEC2"
		},
		{
			"bufferView":8,
			"componentType":5126,
			"count":2254,
			"type":"VEC2"
		},
		{
			"bufferView":9,
			"componentType":5123,
			"count":5469,
			"type":"SCALAR"
		},
		{
			"bufferView":10,
			"componentType":5126,
			"count":20,
			"max":[
				0.8333333333333334
			],
			"min":[
				0.041666666666666664
			],
			"type":"SCALAR"
		},
		{
			"bufferView":11,
			"componentType":5126,
			"count":20,
			"type":"VEC3"
		}
	],
	"bufferViews":[
		{
			"buffer":0,
			"byteLength":111756,
			"byteOffset":0,
			"target":34962
		},
		{
			"buffer":0,
			"byteLength":111756,
			"byteOffset":111756,
			"target":34962
		},
		{
			"buffer":0,
			"byteLength":74504,
			"byteOffset":223512,
			"target":34962
		},
		{
			"buffer":0,
			"byteLength":74504,
			"byteOffset":298016,
			"target":34962
		},
		{
			"buffer":0,
			"byteLength":33570,
			"byteOffset":372520,
			"target":34963
		},
		{
			"buffer":0,
			"byteLength":27048,
			"byteOffset":406092,
			"target":34962
		},
		{
			"buffer":0,
			"byteLength":27048,
			"byteOffset":433140,
			"target":34962
		},
		{
			"buffer":0,
			"byteLength":18032,
			"byteOffset":460188,
			"target":34962
		},
		{
			"buffer":0,
			"byteLength":18032,
			"byteOffset":478220,
			"target":34962
		},
		{
			"buffer":0,
			"byteLength":10938,
			"byteOffset":496252,
			"target":34963
		},
		{
			"buffer":0,
			"byteLength":80,
			"byteOffset":507192
		},
		{
			"buffer":0,
			"byteLength":240,
			"byteOffset":507272
		}
	],
	"buffers":[
		{
			"byteLength":507512,
			"uri":"redDice.bin"
		}
	]
}
