{
	"asset":{
		"generator":"Khronos glTF Blender I/O v4.1.63",
		"version":"2.0"
	},
	"scene":0,
	"scenes":[
		{
			"name":"Scene",
			"nodes":[
				0
			]
		}
	],
	"nodes":[
		{
			"mesh":0,
			"name":"\u5186\u67f1"
		}
	],
	"materials":[
		{
			"doubleSided":true,
			"name":"\u30de\u30c6\u30ea\u30a2\u30eb",
			"pbrMetallicRoughness":{
				"baseColorFactor":[
					0.8004660606384277,
					0.015212979167699814,
					0.027323197573423386,
					1
				],
				"metallicFactor":0.6842105388641357,
				"roughnessFactor":0.03991630673408508
			}
		},
		{
			"doubleSided":true,
			"name":"\u30de\u30c6\u30ea\u30a2\u30eb.001",
			"pbrMetallicRoughness":{
				"baseColorFactor":[
					0.753566324710846,
					0.8005210161209106,
					0.7760834693908691,
					1
				],
				"metallicFactor":0.15000000596046448,
				"roughnessFactor":0
			}
		}
	],
	"meshes":[
		{
			"name":"\u5186\u67f1.001",
			"primitives":[
				{
					"attributes":{
						"POSITION":0,
						"NORMAL":1,
						"TEXCOORD_0":2,
						"TEXCOORD_1":3
					},
					"indices":4,
					"material":0
				},
				{
					"attributes":{
						"POSITION":5,
						"NORMAL":6,
						"TEXCOORD_0":7,
						"TEXCOORD_1":8
					},
					"indices":9,
					"material":1
				}
			]
		}
	],
	"accessors":[
		{
			"bufferView":0,
			"componentType":5126,
			"count":10369,
			"max":[
				0.9510565400123596,
				1,
				0.8090152740478516
			],
			"min":[
				-0.9510565400123596,
				-0.61687833070755,
				-0.9999982714653015
			],
			"type":"VEC3"
		},
		{
			"bufferView":1,
			"componentType":5126,
			"count":10369,
			"type":"VEC3"
		},
		{
			"bufferView":2,
			"componentType":5126,
			"count":10369,
			"type":"VEC2"
		},
		{
			"bufferView":3,
			"componentType":5126,
			"count":10369,
			"type":"VEC2"
		},
		{
			"bufferView":4,
			"componentType":5123,
			"count":16785,
			"type":"SCALAR"
		},
		{
			"bufferView":5,
			"componentType":5126,
			"count":2254,
			"max":[
				0.7673420906066895,
				0.5939738750457764,
				0.6890311241149902
			],
			"min":[
				-0.727224588394165,
				-0.23043492436408997,
				-0.7253766655921936
			],
			"type":"VEC3"
		},
		{
			"bufferView":6,
			"componentType":5126,
			"count":2254,
			"type":"VEC3"
		},
		{
			"bufferView":7,
			"componentType":5126,
			"count":2254,
			"type":"VEC2"
		},
		{
			"bufferView":8,
			"componentType":5126,
			"count":2254,
			"type":"VEC2"
		},
		{
			"bufferView":9,
			"componentType":5123,
			"count":5469,
			"type":"SCALAR"
		}
	],
	"bufferViews":[
		{
			"buffer":0,
			"byteLength":124428,
			"byteOffset":0,
			"target":34962
		},
		{
			"buffer":0,
			"byteLength":124428,
			"byteOffset":124428,
			"target":34962
		},
		{
			"buffer":0,
			"byteLength":82952,
			"byteOffset":248856,
			"target":34962
		},
		{
			"buffer":0,
			"byteLength":82952,
			"byteOffset":331808,
			"target":34962
		},
		{
			"buffer":0,
			"byteLength":33570,
			"byteOffset":414760,
			"target":34963
		},
		{
			"buffer":0,
			"byteLength":27048,
			"byteOffset":448332,
			"target":34962
		},
		{
			"buffer":0,
			"byteLength":27048,
			"byteOffset":475380,
			"target":34962
		},
		{
			"buffer":0,
			"byteLength":18032,
			"byteOffset":502428,
			"target":34962
		},
		{
			"buffer":0,
			"byteLength":18032,
			"byteOffset":520460,
			"target":34962
		},
		{
			"buffer":0,
			"byteLength":10938,
			"byteOffset":538492,
			"target":34963
		}
	],
	"buffers":[
		{
			"byteLength":549432,
			"uri":"redDice.bin"
		}
	]
}
