{
	"asset":{
		"generator":"Khronos glTF Blender I/O v4.1.63",
		"version":"2.0"
	},
	"scene":0,
	"scenes":[
		{
			"name":"Scene",
			"nodes":[
				4,
				5
			]
		}
	],
	"nodes":[
		{
			"mesh":0,
			"name":"Object_2",
			"scale":[
				0.054862767457962036,
				0.054862767457962036,
				0.054862767457962036
			]
		},
		{
			"mesh":1,
			"name":"Object_3",
			"scale":[
				0.054862767457962036,
				0.054862767457962036,
				0.054862767457962036
			]
		},
		{
			"mesh":2,
			"name":"Object_4",
			"scale":[
				0.054862767457962036,
				0.054862767457962036,
				0.054862767457962036
			]
		},
		{
			"children":[
				0,
				1,
				2
			],
			"name":"proto-mesmer.obj.cleaner.gles"
		},
		{
			"children":[
				3
			],
			"name":"Sketchfab_model",
			"rotation":[
				-0.70710688829422,
				0,
				0,
				0.7071066498756409
			]
		},
		{
			"mesh":3,
			"name":"COL",
			"scale":[
				19.413698196411133,
				10.867063522338867,
				71.5301513671875
			],
			"translation":[
				0,
				-1.2835382223129272,
				-44.444480895996094
			]
		}
	],
	"materials":[
		{
			"doubleSided":true,
			"name":"null",
			"pbrMetallicRoughness":{
				"baseColorTexture":{
					"index":0
				},
				"metallicFactor":0,
				"roughnessFactor":0.6000000238418579
			}
		}
	],
	"meshes":[
		{
			"name":"Object_0",
			"primitives":[
				{
					"attributes":{
						"POSITION":0,
						"NORMAL":1,
						"TEXCOORD_0":2
					},
					"indices":3,
					"material":0
				}
			]
		},
		{
			"name":"Object_1",
			"primitives":[
				{
					"attributes":{
						"POSITION":4,
						"NORMAL":5,
						"TEXCOORD_0":6
					},
					"indices":7,
					"material":0
				}
			]
		},
		{
			"name":"Object_2",
			"primitives":[
				{
					"attributes":{
						"POSITION":8,
						"NORMAL":9,
						"TEXCOORD_0":10
					},
					"indices":11,
					"material":0
				}
			]
		},
		{
			"name":"\u7acb\u65b9\u4f53",
			"primitives":[
				{
					"attributes":{
						"POSITION":12,
						"NORMAL":13,
						"TEXCOORD_0":14
					},
					"indices":15
				}
			]
		}
	],
	"textures":[
		{
			"sampler":0,
			"source":0
		}
	],
	"images":[
		{
			"mimeType":"image/png",
			"name":"null_baseColor",
			"uri":"null_baseColor.png"
		}
	],
	"accessors":[
		{
			"bufferView":0,
			"componentType":5126,
			"count":65692,
			"max":[
				586.4853515625,
				3123.50927734375,
				197.23301696777344
			],
			"min":[
				-606.1651000976562,
				-465.9008483886719,
				-366.38922119140625
			],
			"type":"VEC3"
		},
		{
			"bufferView":1,
			"componentType":5126,
			"count":65692,
			"type":"VEC3"
		},
		{
			"bufferView":2,
			"componentType":5126,
			"count":65692,
			"type":"VEC2"
		},
		{
			"bufferView":3,
			"componentType":5125,
			"count":313278,
			"type":"SCALAR"
		},
		{
			"bufferView":4,
			"componentType":5126,
			"count":65640,
			"max":[
				552.0955200195312,
				381.99053955078125,
				182.48678588867188
			],
			"min":[
				-153.5121612548828,
				-465.9008483886719,
				-219.47659301757812
			],
			"type":"VEC3"
		},
		{
			"bufferView":5,
			"componentType":5126,
			"count":65640,
			"type":"VEC3"
		},
		{
			"bufferView":6,
			"componentType":5126,
			"count":65640,
			"type":"VEC2"
		},
		{
			"bufferView":7,
			"componentType":5125,
			"count":295800,
			"type":"SCALAR"
		},
		{
			"bufferView":8,
			"componentType":5126,
			"count":26221,
			"max":[
				606.1651000976562,
				3123.50927734375,
				197.01881408691406
			],
			"min":[
				-161.49014282226562,
				-465.9008483886719,
				-366.38922119140625
			],
			"type":"VEC3"
		},
		{
			"bufferView":9,
			"componentType":5126,
			"count":26221,
			"type":"VEC3"
		},
		{
			"bufferView":10,
			"componentType":5126,
			"count":26221,
			"type":"VEC2"
		},
		{
			"bufferView":11,
			"componentType":5123,
			"count":114984,
			"type":"SCALAR"
		},
		{
			"bufferView":12,
			"componentType":5126,
			"count":24,
			"max":[
				1,
				1,
				1
			],
			"min":[
				-1,
				-1,
				-1
			],
			"type":"VEC3"
		},
		{
			"bufferView":13,
			"componentType":5126,
			"count":24,
			"type":"VEC3"
		},
		{
			"bufferView":14,
			"componentType":5126,
			"count":24,
			"type":"VEC2"
		},
		{
			"bufferView":15,
			"componentType":5123,
			"count":36,
			"type":"SCALAR"
		}
	],
	"bufferViews":[
		{
			"buffer":0,
			"byteLength":788304,
			"byteOffset":0,
			"target":34962
		},
		{
			"buffer":0,
			"byteLength":788304,
			"byteOffset":788304,
			"target":34962
		},
		{
			"buffer":0,
			"byteLength":525536,
			"byteOffset":1576608,
			"target":34962
		},
		{
			"buffer":0,
			"byteLength":1253112,
			"byteOffset":2102144,
			"target":34963
		},
		{
			"buffer":0,
			"byteLength":787680,
			"byteOffset":3355256,
			"target":34962
		},
		{
			"buffer":0,
			"byteLength":787680,
			"byteOffset":4142936,
			"target":34962
		},
		{
			"buffer":0,
			"byteLength":525120,
			"byteOffset":4930616,
			"target":34962
		},
		{
			"buffer":0,
			"byteLength":1183200,
			"byteOffset":5455736,
			"target":34963
		},
		{
			"buffer":0,
			"byteLength":314652,
			"byteOffset":6638936,
			"target":34962
		},
		{
			"buffer":0,
			"byteLength":314652,
			"byteOffset":6953588,
			"target":34962
		},
		{
			"buffer":0,
			"byteLength":209768,
			"byteOffset":7268240,
			"target":34962
		},
		{
			"buffer":0,
			"byteLength":229968,
			"byteOffset":7478008,
			"target":34963
		},
		{
			"buffer":0,
			"byteLength":288,
			"byteOffset":7707976,
			"target":34962
		},
		{
			"buffer":0,
			"byteLength":288,
			"byteOffset":7708264,
			"target":34962
		},
		{
			"buffer":0,
			"byteLength":192,
			"byteOffset":7708552,
			"target":34962
		},
		{
			"buffer":0,
			"byteLength":72,
			"byteOffset":7708744,
			"target":34963
		}
	],
	"samplers":[
		{
			"magFilter":9729,
			"minFilter":9987
		}
	],
	"buffers":[
		{
			"byteLength":7708816,
			"uri":"Cal.bin"
		}
	]
}
