{
	"asset":{
		"generator":"Khronos glTF Blender I/O v4.1.63",
		"version":"2.0"
	},
	"scene":0,
	"scenes":[
		{
			"name":"Scene",
			"nodes":[
				0,
				1
			]
		}
	],
	"nodes":[
		{
			"mesh":0,
			"name":"\u5186\u67f1"
		},
		{
			"mesh":1,
			"name":"COL"
		}
	],
	"materials":[
		{
			"doubleSided":true,
			"name":"\u30de\u30c6\u30ea\u30a2\u30eb",
			"normalTexture":{
				"index":0
			},
			"pbrMetallicRoughness":{
				"baseColorTexture":{
					"index":1
				},
				"metallicFactor":0.6770334243774414,
				"roughnessFactor":0.3028019964694977
			}
		}
	],
	"meshes":[
		{
			"name":"\u5186\u67f1",
			"primitives":[
				{
					"attributes":{
						"POSITION":0,
						"NORMAL":1,
						"TEXCOORD_0":2
					},
					"indices":3,
					"material":0
				}
			]
		},
		{
			"name":"\u7acb\u65b9\u4f53",
			"primitives":[
				{
					"attributes":{
						"POSITION":4,
						"NORMAL":5,
						"TEXCOORD_0":6
					},
					"indices":7
				}
			]
		}
	],
	"textures":[
		{
			"sampler":0,
			"source":0
		},
		{
			"sampler":0,
			"source":1
		}
	],
	"images":[
		{
			"mimeType":"image/png",
			"name":"normalS3",
			"uri":"normalS3.png"
		},
		{
			"mimeType":"image/jpeg",
			"name":"sunahekiL03",
			"uri":"sunahekiL03.jpg"
		}
	],
	"accessors":[
		{
			"bufferView":0,
			"componentType":5126,
			"count":5184,
			"max":[
				0.992195725440979,
				11.521389961242676,
				0.992195725440979
			],
			"min":[
				-0.9921957850456238,
				-1,
				-0.9921957850456238
			],
			"type":"VEC3"
		},
		{
			"bufferView":1,
			"componentType":5126,
			"count":5184,
			"type":"VEC3"
		},
		{
			"bufferView":2,
			"componentType":5126,
			"count":5184,
			"type":"VEC2"
		},
		{
			"bufferView":3,
			"componentType":5123,
			"count":9180,
			"type":"SCALAR"
		},
		{
			"bufferView":4,
			"componentType":5126,
			"count":24,
			"max":[
				1,
				11.443411827087402,
				1
			],
			"min":[
				-1,
				-1,
				-1
			],
			"type":"VEC3"
		},
		{
			"bufferView":5,
			"componentType":5126,
			"count":24,
			"type":"VEC3"
		},
		{
			"bufferView":6,
			"componentType":5126,
			"count":24,
			"type":"VEC2"
		},
		{
			"bufferView":7,
			"componentType":5123,
			"count":36,
			"type":"SCALAR"
		}
	],
	"bufferViews":[
		{
			"buffer":0,
			"byteLength":62208,
			"byteOffset":0,
			"target":34962
		},
		{
			"buffer":0,
			"byteLength":62208,
			"byteOffset":62208,
			"target":34962
		},
		{
			"buffer":0,
			"byteLength":41472,
			"byteOffset":124416,
			"target":34962
		},
		{
			"buffer":0,
			"byteLength":18360,
			"byteOffset":165888,
			"target":34963
		},
		{
			"buffer":0,
			"byteLength":288,
			"byteOffset":184248,
			"target":34962
		},
		{
			"buffer":0,
			"byteLength":288,
			"byteOffset":184536,
			"target":34962
		},
		{
			"buffer":0,
			"byteLength":192,
			"byteOffset":184824,
			"target":34962
		},
		{
			"buffer":0,
			"byteLength":72,
			"byteOffset":185016,
			"target":34963
		}
	],
	"samplers":[
		{
			"magFilter":9729,
			"minFilter":9987
		}
	],
	"buffers":[
		{
			"byteLength":185088,
			"uri":"Pillar.bin"
		}
	]
}
