{
	"asset":{
		"generator":"Khronos glTF Blender I/O v4.1.63",
		"version":"2.0"
	},
	"scene":0,
	"scenes":[
		{
			"name":"Scene",
			"nodes":[
				0,
				1
			]
		}
	],
	"nodes":[
		{
			"mesh":0,
			"name":"COL01",
			"translation":[
				0,
				14.146810531616211,
				0
			]
		},
		{
			"mesh":1,
			"name":"\u5186.002"
		}
	],
	"materials":[
		{
			"doubleSided":true,
			"name":"Material",
			"normalTexture":{
				"index":0
			},
			"pbrMetallicRoughness":{
				"baseColorTexture":{
					"index":1
				},
				"metallicFactor":0,
				"roughnessFactor":0.5
			}
		}
	],
	"meshes":[
		{
			"name":"\u7acb\u65b9\u4f53",
			"primitives":[
				{
					"attributes":{
						"POSITION":0,
						"NORMAL":1,
						"TEXCOORD_0":2
					},
					"indices":3
				}
			]
		},
		{
			"name":"\u5186.002",
			"primitives":[
				{
					"attributes":{
						"POSITION":4,
						"NORMAL":5,
						"TEXCOORD_0":6,
						"TEXCOORD_1":7
					},
					"indices":8,
					"material":0
				}
			]
		}
	],
	"textures":[
		{
			"sampler":0,
			"source":0
		},
		{
			"sampler":0,
			"source":1
		}
	],
	"images":[
		{
			"mimeType":"image/png",
			"name":"normalstone3",
			"uri":"normalstone3.png"
		},
		{
			"mimeType":"image/jpeg",
			"name":"stone3",
			"uri":"stone3.jpg"
		}
	],
	"accessors":[
		{
			"bufferView":0,
			"componentType":5126,
			"count":237,
			"max":[
				10.638039588928223,
				25.92300033569336,
				9.422701835632324
			],
			"min":[
				-16.1420841217041,
				-15.304717063903809,
				-10.129486083984375
			],
			"type":"VEC3"
		},
		{
			"bufferView":1,
			"componentType":5126,
			"count":237,
			"type":"VEC3"
		},
		{
			"bufferView":2,
			"componentType":5126,
			"count":237,
			"type":"VEC2"
		},
		{
			"bufferView":3,
			"componentType":5123,
			"count":444,
			"type":"SCALAR"
		},
		{
			"bufferView":4,
			"componentType":5126,
			"count":4842,
			"max":[
				10.1116304397583,
				40.332889556884766,
				9.554969787597656
			],
			"min":[
				-16.008432388305664,
				-0.9918708801269531,
				-9.989952087402344
			],
			"type":"VEC3"
		},
		{
			"bufferView":5,
			"componentType":5126,
			"count":4842,
			"type":"VEC3"
		},
		{
			"bufferView":6,
			"componentType":5126,
			"count":4842,
			"type":"VEC2"
		},
		{
			"bufferView":7,
			"componentType":5126,
			"count":4842,
			"type":"VEC2"
		},
		{
			"bufferView":8,
			"componentType":5123,
			"count":11508,
			"type":"SCALAR"
		}
	],
	"bufferViews":[
		{
			"buffer":0,
			"byteLength":2844,
			"byteOffset":0,
			"target":34962
		},
		{
			"buffer":0,
			"byteLength":2844,
			"byteOffset":2844,
			"target":34962
		},
		{
			"buffer":0,
			"byteLength":1896,
			"byteOffset":5688,
			"target":34962
		},
		{
			"buffer":0,
			"byteLength":888,
			"byteOffset":7584,
			"target":34963
		},
		{
			"buffer":0,
			"byteLength":58104,
			"byteOffset":8472,
			"target":34962
		},
		{
			"buffer":0,
			"byteLength":58104,
			"byteOffset":66576,
			"target":34962
		},
		{
			"buffer":0,
			"byteLength":38736,
			"byteOffset":124680,
			"target":34962
		},
		{
			"buffer":0,
			"byteLength":38736,
			"byteOffset":163416,
			"target":34962
		},
		{
			"buffer":0,
			"byteLength":23016,
			"byteOffset":202152,
			"target":34963
		}
	],
	"samplers":[
		{
			"magFilter":9729,
			"minFilter":9987
		}
	],
	"buffers":[
		{
			"byteLength":225168,
			"uri":"Normal.bin"
		}
	]
}
