{
	"asset":{
		"generator":"Khronos glTF Blender I/O v4.1.63",
		"version":"2.0"
	},
	"scene":0,
	"scenes":[
		{
			"name":"Scene",
			"nodes":[
				0,
				1,
				2,
				3,
				4,
				5,
				6,
				7,
				8,
				9,
				10,
				11,
				12
			]
		}
	],
	"nodes":[
		{
			"mesh":0,
			"name":"\u7acb\u65b9\u4f53.001",
			"scale":[
				5.985755443572998,
				0.1278182566165924,
				0.1278182566165924
			],
			"translation":[
				3.3809621334075928,
				7.713261604309082,
				-6.156521797180176
			]
		},
		{
			"mesh":1,
			"name":"ICO\u7403",
			"scale":[
				0.04180145263671875,
				0.04180145263671875,
				0.04180145263671875
			],
			"translation":[
				0.9341375827789307,
				4.948418617248535,
				-3.632761240005493
			]
		},
		{
			"mesh":2,
			"name":"\u5186.002",
			"rotation":[
				0.5,
				-0.5,
				0.5,
				0.5
			],
			"translation":[
				9.900960922241211,
				29.4220027923584,
				-42.23841857910156
			]
		},
		{
			"mesh":3,
			"name":"Pedestal",
			"rotation":[
				0,
				0.7071068286895752,
				0,
				0.7071068286895752
			],
			"translation":[
				25.652965545654297,
				0,
				102.9249267578125
			]
		},
		{
			"mesh":4,
			"name":"\u7acb\u65b9\u4f53.002",
			"rotation":[
				0,
				-0.7071068286895752,
				0,
				0.7071068286895752
			],
			"scale":[
				1,
				14.928547859191895,
				7.813387393951416
			],
			"translation":[
				270.7357482910156,
				13.342626571655273,
				-70.64344787597656
			]
		},
		{
			"mesh":5,
			"name":"\u5186\u9310",
			"scale":[
				52.1464729309082,
				8.1314058303833,
				52.24678421020508
			],
			"translation":[
				221.99925231933594,
				37.102848052978516,
				71.32552337646484
			]
		},
		{
			"mesh":6,
			"name":"\u7acb\u65b9\u4f53.006",
			"rotation":[
				0,
				-0.711596667766571,
				0,
				0.7025882601737976
			],
			"scale":[
				7.07925271987915,
				7.07925271987915,
				7.07925271987915
			],
			"translation":[
				647.633056640625,
				158.84225463867188,
				-30.489715576171875
			]
		},
		{
			"mesh":7,
			"name":"\u5186\u9310.001",
			"scale":[
				124.27318572998047,
				19.378408432006836,
				124.51223754882812
			],
			"translation":[
				260.5951232910156,
				87.92878723144531,
				71.32552337646484
			]
		},
		{
			"mesh":8,
			"name":"\u7acb\u65b9\u4f53.003",
			"scale":[
				2.9281187057495117,
				2.9281187057495117,
				2.9281187057495117
			],
			"translation":[
				7.465526580810547,
				59.18651580810547,
				32.45146179199219
			]
		},
		{
			"mesh":9,
			"name":"Cube",
			"rotation":[
				0,
				-0.7071068286895752,
				0,
				0.7071068286895752
			],
			"scale":[
				8.431604385375977,
				0.774558961391449,
				3.647531509399414
			],
			"translation":[
				489.6650390625,
				-10.086746215820312,
				-9.718315124511719
			]
		},
		{
			"mesh":10,
			"name":"Cube.001",
			"rotation":[
				0,
				-0.7071068286895752,
				0,
				0.7071068286895752
			],
			"scale":[
				8.431604385375977,
				0.774558961391449,
				3.647531509399414
			],
			"translation":[
				496.80670166015625,
				-3.738595485687256,
				-9.718315124511719
			]
		},
		{
			"mesh":11,
			"name":"Cube.002",
			"rotation":[
				0,
				-0.7071068286895752,
				0,
				0.7071068286895752
			],
			"scale":[
				8.431604385375977,
				0.774558961391449,
				3.647531509399414
			],
			"translation":[
				508.1804504394531,
				3.403074026107788,
				-9.718315124511719
			]
		},
		{
			"mesh":12,
			"name":"Cube.003",
			"rotation":[
				0,
				-0.7071068286895752,
				0,
				0.7071068286895752
			],
			"scale":[
				8.431604385375977,
				0.774558961391449,
				3.647531509399414
			],
			"translation":[
				515.0576171875,
				9.486719131469727,
				-9.718315124511719
			]
		}
	],
	"materials":[
		{
			"doubleSided":true,
			"name":"\u30de\u30c6\u30ea\u30a2\u30eb",
			"pbrMetallicRoughness":{
				"baseColorFactor":[
					0.0060794660821557045,
					0.17005960643291473,
					0.801350474357605,
					1
				],
				"metallicFactor":0,
				"roughnessFactor":0.5
			}
		},
		{
			"doubleSided":true,
			"name":"Material",
			"pbrMetallicRoughness":{
				"baseColorFactor":[
					0,
					0.26049119234085083,
					0.9064472913742065,
					1
				],
				"metallicFactor":0.2877933382987976,
				"roughnessFactor":0.7346570491790771
			}
		},
		{
			"doubleSided":true,
			"name":"Material.010",
			"pbrMetallicRoughness":{
				"baseColorFactor":[
					0,
					0.26049119234085083,
					0.9064472913742065,
					1
				],
				"metallicFactor":0.2877933382987976,
				"roughnessFactor":0.7346570491790771
			}
		},
		{
			"doubleSided":true,
			"name":"Material.011",
			"pbrMetallicRoughness":{
				"baseColorFactor":[
					0,
					0.26049119234085083,
					0.9064472913742065,
					1
				],
				"metallicFactor":0.2877933382987976,
				"roughnessFactor":0.7346570491790771
			}
		}
	],
	"meshes":[
		{
			"name":"\u7acb\u65b9\u4f53.001",
			"primitives":[
				{
					"attributes":{
						"POSITION":0,
						"NORMAL":1,
						"TEXCOORD_0":2,
						"TEXCOORD_1":3
					},
					"indices":4,
					"material":0
				},
				{
					"attributes":{
						"POSITION":5,
						"NORMAL":6,
						"TEXCOORD_0":7,
						"TEXCOORD_1":8
					},
					"indices":9,
					"material":1
				}
			]
		},
		{
			"name":"ICO\u7403",
			"primitives":[
				{
					"attributes":{
						"POSITION":10,
						"NORMAL":11,
						"TEXCOORD_0":12
					},
					"indices":13
				}
			]
		},
		{
			"name":"\u5186.002",
			"primitives":[
				{
					"attributes":{
						"POSITION":14,
						"NORMAL":15,
						"TEXCOORD_0":16,
						"TEXCOORD_1":17
					},
					"indices":18,
					"material":1
				},
				{
					"attributes":{
						"POSITION":19,
						"NORMAL":20,
						"TEXCOORD_0":21,
						"TEXCOORD_1":22
					},
					"indices":23,
					"material":1
				}
			]
		},
		{
			"name":"Cube.001",
			"primitives":[
				{
					"attributes":{
						"POSITION":24,
						"NORMAL":25,
						"TEXCOORD_0":26,
						"TEXCOORD_1":27
					},
					"indices":28,
					"material":1
				}
			]
		},
		{
			"name":"\u7acb\u65b9\u4f53.006",
			"primitives":[
				{
					"attributes":{
						"POSITION":29,
						"NORMAL":30,
						"TEXCOORD_0":31,
						"TEXCOORD_1":32
					},
					"indices":33,
					"material":1
				}
			]
		},
		{
			"name":"\u5186\u9310",
			"primitives":[
				{
					"attributes":{
						"POSITION":34,
						"NORMAL":35,
						"TEXCOORD_0":36
					},
					"indices":37,
					"material":1
				}
			]
		},
		{
			"name":"\u7acb\u65b9\u4f53.002",
			"primitives":[
				{
					"attributes":{
						"POSITION":38,
						"NORMAL":39,
						"TEXCOORD_0":40
					},
					"indices":41,
					"material":1
				}
			]
		},
		{
			"name":"\u5186\u9310.001",
			"primitives":[
				{
					"attributes":{
						"POSITION":42,
						"NORMAL":43,
						"TEXCOORD_0":44
					},
					"indices":37,
					"material":2
				}
			]
		},
		{
			"name":"\u7acb\u65b9\u4f53.003",
			"primitives":[
				{
					"attributes":{
						"POSITION":45,
						"NORMAL":46,
						"TEXCOORD_0":47
					},
					"indices":41,
					"material":3
				}
			]
		},
		{
			"name":"Cube",
			"primitives":[
				{
					"attributes":{
						"POSITION":48,
						"NORMAL":49,
						"TEXCOORD_0":50
					},
					"indices":51,
					"material":1
				}
			]
		},
		{
			"name":"Cube.002",
			"primitives":[
				{
					"attributes":{
						"POSITION":52,
						"NORMAL":53,
						"TEXCOORD_0":54
					},
					"indices":51,
					"material":1
				}
			]
		},
		{
			"name":"Cube.003",
			"primitives":[
				{
					"attributes":{
						"POSITION":55,
						"NORMAL":56,
						"TEXCOORD_0":57
					},
					"indices":51,
					"material":1
				}
			]
		},
		{
			"name":"Cube.004",
			"primitives":[
				{
					"attributes":{
						"POSITION":58,
						"NORMAL":59,
						"TEXCOORD_0":60
					},
					"indices":51,
					"material":1
				}
			]
		}
	],
	"accessors":[
		{
			"bufferView":0,
			"componentType":5126,
			"count":960,
			"max":[
				18.410608291625977,
				2.4000000953674316,
				53.889835357666016
			],
			"min":[
				-1,
				-1,
				-14.399998664855957
			],
			"type":"VEC3"
		},
		{
			"bufferView":1,
			"componentType":5126,
			"count":960,
			"type":"VEC3"
		},
		{
			"bufferView":2,
			"componentType":5126,
			"count":960,
			"type":"VEC2"
		},
		{
			"bufferView":3,
			"componentType":5126,
			"count":960,
			"type":"VEC2"
		},
		{
			"bufferView":4,
			"componentType":5123,
			"count":1440,
			"type":"SCALAR"
		},
		{
			"bufferView":5,
			"componentType":5126,
			"count":22890,
			"max":[
				18.476423263549805,
				11.985137939453125,
				54.32542419433594
			],
			"min":[
				-1.0836421251296997,
				-60.4519157409668,
				-14.885662078857422
			],
			"type":"VEC3"
		},
		{
			"bufferView":6,
			"componentType":5126,
			"count":22890,
			"type":"VEC3"
		},
		{
			"bufferView":7,
			"componentType":5126,
			"count":22890,
			"type":"VEC2"
		},
		{
			"bufferView":8,
			"componentType":5126,
			"count":22890,
			"type":"VEC2"
		},
		{
			"bufferView":9,
			"componentType":5123,
			"count":42360,
			"type":"SCALAR"
		},
		{
			"bufferView":10,
			"componentType":5126,
			"count":60,
			"max":[
				0.8944249749183655,
				1,
				0.8506399989128113
			],
			"min":[
				-0.8944249749183655,
				-1,
				-0.8506399989128113
			],
			"type":"VEC3"
		},
		{
			"bufferView":11,
			"componentType":5126,
			"count":60,
			"type":"VEC3"
		},
		{
			"bufferView":12,
			"componentType":5126,
			"count":60,
			"type":"VEC2"
		},
		{
			"bufferView":13,
			"componentType":5123,
			"count":60,
			"type":"SCALAR"
		},
		{
			"bufferView":14,
			"componentType":5126,
			"count":59602,
			"max":[
				25.909393310546875,
				1.8915150165557861,
				30.86163330078125
			],
			"min":[
				-25.909393310546875,
				-156.0076141357422,
				-10.910886764526367
			],
			"type":"VEC3"
		},
		{
			"bufferView":15,
			"componentType":5126,
			"count":59602,
			"type":"VEC3"
		},
		{
			"bufferView":16,
			"componentType":5126,
			"count":59602,
			"type":"VEC2"
		},
		{
			"bufferView":17,
			"componentType":5126,
			"count":59602,
			"type":"VEC2"
		},
		{
			"bufferView":18,
			"componentType":5123,
			"count":142230,
			"type":"SCALAR"
		},
		{
			"bufferView":19,
			"componentType":5126,
			"count":3630,
			"max":[
				25.909393310546875,
				-1.072798728942871,
				26.88958740234375
			],
			"min":[
				-25.909393310546875,
				-154.64251708984375,
				-7.15480375289917
			],
			"type":"VEC3"
		},
		{
			"bufferView":20,
			"componentType":5126,
			"count":3630,
			"type":"VEC3"
		},
		{
			"bufferView":21,
			"componentType":5126,
			"count":3630,
			"type":"VEC2"
		},
		{
			"bufferView":22,
			"componentType":5126,
			"count":3630,
			"type":"VEC2"
		},
		{
			"bufferView":23,
			"componentType":5123,
			"count":6402,
			"type":"SCALAR"
		},
		{
			"bufferView":24,
			"componentType":5126,
			"count":59546,
			"max":[
				2.1025168895721436,
				28.264280319213867,
				201.541015625
			],
			"min":[
				-16.00843048095703,
				-0.9918714761734009,
				-17.09174346923828
			],
			"type":"VEC3"
		},
		{
			"bufferView":25,
			"componentType":5126,
			"count":59546,
			"type":"VEC3"
		},
		{
			"bufferView":26,
			"componentType":5126,
			"count":59546,
			"type":"VEC2"
		},
		{
			"bufferView":27,
			"componentType":5126,
			"count":59546,
			"type":"VEC2"
		},
		{
			"bufferView":28,
			"componentType":5123,
			"count":140448,
			"type":"SCALAR"
		},
		{
			"bufferView":29,
			"componentType":5126,
			"count":12902,
			"max":[
				46.43996810913086,
				1.673699140548706,
				3.0358548164367676
			],
			"min":[
				-0.9999990463256836,
				-0.9602071642875671,
				-3.0457615852355957
			],
			"type":"VEC3"
		},
		{
			"bufferView":30,
			"componentType":5126,
			"count":12902,
			"type":"VEC3"
		},
		{
			"bufferView":31,
			"componentType":5126,
			"count":12902,
			"type":"VEC2"
		},
		{
			"bufferView":32,
			"componentType":5126,
			"count":12902,
			"type":"VEC2"
		},
		{
			"bufferView":33,
			"componentType":5123,
			"count":30720,
			"type":"SCALAR"
		},
		{
			"bufferView":34,
			"componentType":5126,
			"count":1188,
			"max":[
				0.18946167826652527,
				0,
				0.18941497802734375
			],
			"min":[
				-0.18829452991485596,
				-4.697221279144287,
				-0.18825995922088623
			],
			"type":"VEC3"
		},
		{
			"bufferView":35,
			"componentType":5126,
			"count":1188,
			"type":"VEC3"
		},
		{
			"bufferView":36,
			"componentType":5126,
			"count":1188,
			"type":"VEC2"
		},
		{
			"bufferView":37,
			"componentType":5123,
			"count":3036,
			"type":"SCALAR"
		},
		{
			"bufferView":38,
			"componentType":5126,
			"count":202940,
			"max":[
				13.900951385498047,
				5.44380521774292,
				20.579914093017578
			],
			"min":[
				-7.640190601348877,
				-24.024192810058594,
				-3.901858329772949
			],
			"type":"VEC3"
		},
		{
			"bufferView":39,
			"componentType":5126,
			"count":202940,
			"type":"VEC3"
		},
		{
			"bufferView":40,
			"componentType":5126,
			"count":202940,
			"type":"VEC2"
		},
		{
			"bufferView":41,
			"componentType":5125,
			"count":328896,
			"type":"SCALAR"
		},
		{
			"bufferView":42,
			"componentType":5126,
			"count":1188,
			"max":[
				0.18946167826652527,
				0,
				0.18941497802734375
			],
			"min":[
				-0.18829452991485596,
				-4.697221279144287,
				-0.18825995922088623
			],
			"type":"VEC3"
		},
		{
			"bufferView":43,
			"componentType":5126,
			"count":1188,
			"type":"VEC3"
		},
		{
			"bufferView":44,
			"componentType":5126,
			"count":1188,
			"type":"VEC2"
		},
		{
			"bufferView":45,
			"componentType":5126,
			"count":202940,
			"max":[
				13.900951385498047,
				5.44380521774292,
				20.579914093017578
			],
			"min":[
				-7.640190601348877,
				-24.024192810058594,
				-3.901858329772949
			],
			"type":"VEC3"
		},
		{
			"bufferView":46,
			"componentType":5126,
			"count":202940,
			"type":"VEC3"
		},
		{
			"bufferView":47,
			"componentType":5126,
			"count":202940,
			"type":"VEC2"
		},
		{
			"bufferView":48,
			"componentType":5126,
			"count":62,
			"max":[
				1,
				7.014333248138428,
				1
			],
			"min":[
				-1,
				-1,
				-1
			],
			"type":"VEC3"
		},
		{
			"bufferView":49,
			"componentType":5126,
			"count":62,
			"type":"VEC3"
		},
		{
			"bufferView":50,
			"componentType":5126,
			"count":62,
			"type":"VEC2"
		},
		{
			"bufferView":51,
			"componentType":5123,
			"count":114,
			"type":"SCALAR"
		},
		{
			"bufferView":52,
			"componentType":5126,
			"count":62,
			"max":[
				1,
				7.014333248138428,
				1
			],
			"min":[
				-1,
				-1,
				-1
			],
			"type":"VEC3"
		},
		{
			"bufferView":53,
			"componentType":5126,
			"count":62,
			"type":"VEC3"
		},
		{
			"bufferView":54,
			"componentType":5126,
			"count":62,
			"type":"VEC2"
		},
		{
			"bufferView":55,
			"componentType":5126,
			"count":62,
			"max":[
				1,
				7.014333248138428,
				1
			],
			"min":[
				-1,
				-1,
				-1
			],
			"type":"VEC3"
		},
		{
			"bufferView":56,
			"componentType":5126,
			"count":62,
			"type":"VEC3"
		},
		{
			"bufferView":57,
			"componentType":5126,
			"count":62,
			"type":"VEC2"
		},
		{
			"bufferView":58,
			"componentType":5126,
			"count":62,
			"max":[
				1,
				7.014333248138428,
				1
			],
			"min":[
				-1,
				-1,
				-1
			],
			"type":"VEC3"
		},
		{
			"bufferView":59,
			"componentType":5126,
			"count":62,
			"type":"VEC3"
		},
		{
			"bufferView":60,
			"componentType":5126,
			"count":62,
			"type":"VEC2"
		}
	],
	"bufferViews":[
		{
			"buffer":0,
			"byteLength":11520,
			"byteOffset":0,
			"target":34962
		},
		{
			"buffer":0,
			"byteLength":11520,
			"byteOffset":11520,
			"target":34962
		},
		{
			"buffer":0,
			"byteLength":7680,
			"byteOffset":23040,
			"target":34962
		},
		{
			"buffer":0,
			"byteLength":7680,
			"byteOffset":30720,
			"target":34962
		},
		{
			"buffer":0,
			"byteLength":2880,
			"byteOffset":38400,
			"target":34963
		},
		{
			"buffer":0,
			"byteLength":274680,
			"byteOffset":41280,
			"target":34962
		},
		{
			"buffer":0,
			"byteLength":274680,
			"byteOffset":315960,
			"target":34962
		},
		{
			"buffer":0,
			"byteLength":183120,
			"byteOffset":590640,
			"target":34962
		},
		{
			"buffer":0,
			"byteLength":183120,
			"byteOffset":773760,
			"target":34962
		},
		{
			"buffer":0,
			"byteLength":84720,
			"byteOffset":956880,
			"target":34963
		},
		{
			"buffer":0,
			"byteLength":720,
			"byteOffset":1041600,
			"target":34962
		},
		{
			"buffer":0,
			"byteLength":720,
			"byteOffset":1042320,
			"target":34962
		},
		{
			"buffer":0,
			"byteLength":480,
			"byteOffset":1043040,
			"target":34962
		},
		{
			"buffer":0,
			"byteLength":120,
			"byteOffset":1043520,
			"target":34963
		},
		{
			"buffer":0,
			"byteLength":715224,
			"byteOffset":1043640,
			"target":34962
		},
		{
			"buffer":0,
			"byteLength":715224,
			"byteOffset":1758864,
			"target":34962
		},
		{
			"buffer":0,
			"byteLength":476816,
			"byteOffset":2474088,
			"target":34962
		},
		{
			"buffer":0,
			"byteLength":476816,
			"byteOffset":2950904,
			"target":34962
		},
		{
			"buffer":0,
			"byteLength":284460,
			"byteOffset":3427720,
			"target":34963
		},
		{
			"buffer":0,
			"byteLength":43560,
			"byteOffset":3712180,
			"target":34962
		},
		{
			"buffer":0,
			"byteLength":43560,
			"byteOffset":3755740,
			"target":34962
		},
		{
			"buffer":0,
			"byteLength":29040,
			"byteOffset":3799300,
			"target":34962
		},
		{
			"buffer":0,
			"byteLength":29040,
			"byteOffset":3828340,
			"target":34962
		},
		{
			"buffer":0,
			"byteLength":12804,
			"byteOffset":3857380,
			"target":34963
		},
		{
			"buffer":0,
			"byteLength":714552,
			"byteOffset":3870184,
			"target":34962
		},
		{
			"buffer":0,
			"byteLength":714552,
			"byteOffset":4584736,
			"target":34962
		},
		{
			"buffer":0,
			"byteLength":476368,
			"byteOffset":5299288,
			"target":34962
		},
		{
			"buffer":0,
			"byteLength":476368,
			"byteOffset":5775656,
			"target":34962
		},
		{
			"buffer":0,
			"byteLength":280896,
			"byteOffset":6252024,
			"target":34963
		},
		{
			"buffer":0,
			"byteLength":154824,
			"byteOffset":6532920,
			"target":34962
		},
		{
			"buffer":0,
			"byteLength":154824,
			"byteOffset":6687744,
			"target":34962
		},
		{
			"buffer":0,
			"byteLength":103216,
			"byteOffset":6842568,
			"target":34962
		},
		{
			"buffer":0,
			"byteLength":103216,
			"byteOffset":6945784,
			"target":34962
		},
		{
			"buffer":0,
			"byteLength":61440,
			"byteOffset":7049000,
			"target":34963
		},
		{
			"buffer":0,
			"byteLength":14256,
			"byteOffset":7110440,
			"target":34962
		},
		{
			"buffer":0,
			"byteLength":14256,
			"byteOffset":7124696,
			"target":34962
		},
		{
			"buffer":0,
			"byteLength":9504,
			"byteOffset":7138952,
			"target":34962
		},
		{
			"buffer":0,
			"byteLength":6072,
			"byteOffset":7148456,
			"target":34963
		},
		{
			"buffer":0,
			"byteLength":2435280,
			"byteOffset":7154528,
			"target":34962
		},
		{
			"buffer":0,
			"byteLength":2435280,
			"byteOffset":9589808,
			"target":34962
		},
		{
			"buffer":0,
			"byteLength":1623520,
			"byteOffset":12025088,
			"target":34962
		},
		{
			"buffer":0,
			"byteLength":1315584,
			"byteOffset":13648608,
			"target":34963
		},
		{
			"buffer":0,
			"byteLength":14256,
			"byteOffset":14964192,
			"target":34962
		},
		{
			"buffer":0,
			"byteLength":14256,
			"byteOffset":14978448,
			"target":34962
		},
		{
			"buffer":0,
			"byteLength":9504,
			"byteOffset":14992704,
			"target":34962
		},
		{
			"buffer":0,
			"byteLength":2435280,
			"byteOffset":15002208,
			"target":34962
		},
		{
			"buffer":0,
			"byteLength":2435280,
			"byteOffset":17437488,
			"target":34962
		},
		{
			"buffer":0,
			"byteLength":1623520,
			"byteOffset":19872768,
			"target":34962
		},
		{
			"buffer":0,
			"byteLength":744,
			"byteOffset":21496288,
			"target":34962
		},
		{
			"buffer":0,
			"byteLength":744,
			"byteOffset":21497032,
			"target":34962
		},
		{
			"buffer":0,
			"byteLength":496,
			"byteOffset":21497776,
			"target":34962
		},
		{
			"buffer":0,
			"byteLength":228,
			"byteOffset":21498272,
			"target":34963
		},
		{
			"buffer":0,
			"byteLength":744,
			"byteOffset":21498500,
			"target":34962
		},
		{
			"buffer":0,
			"byteLength":744,
			"byteOffset":21499244,
			"target":34962
		},
		{
			"buffer":0,
			"byteLength":496,
			"byteOffset":21499988,
			"target":34962
		},
		{
			"buffer":0,
			"byteLength":744,
			"byteOffset":21500484,
			"target":34962
		},
		{
			"buffer":0,
			"byteLength":744,
			"byteOffset":21501228,
			"target":34962
		},
		{
			"buffer":0,
			"byteLength":496,
			"byteOffset":21501972,
			"target":34962
		},
		{
			"buffer":0,
			"byteLength":744,
			"byteOffset":21502468,
			"target":34962
		},
		{
			"buffer":0,
			"byteLength":744,
			"byteOffset":21503212,
			"target":34962
		},
		{
			"buffer":0,
			"byteLength":496,
			"byteOffset":21503956,
			"target":34962
		}
	],
	"buffers":[
		{
			"byteLength":21504452,
			"uri":"R%27lyeh.bin"
		}
	]
}
