{
	"asset":{
		"generator":"Khronos glTF Blender I/O v4.1.63",
		"version":"2.0"
	},
	"scene":0,
	"scenes":[
		{
			"name":"Scene",
			"nodes":[
				0,
				1,
				2,
				3,
				4,
				5,
				6,
				7,
				8,
				9,
				10,
				11,
				12,
				13,
				14,
				15,
				16,
				17,
				18,
				19,
				20
			]
		}
	],
	"nodes":[
		{
			"mesh":0,
			"name":"\u5186\u67f1",
			"translation":[
				0,
				3.904282569885254,
				0
			]
		},
		{
			"mesh":1,
			"name":"\u7acb\u65b9\u4f53.001",
			"scale":[
				8.605134010314941,
				1,
				10.279581069946289
			],
			"translation":[
				6.889388561248779,
				17.224288940429688,
				-8.26811408996582
			]
		},
		{
			"mesh":2,
			"name":"\u7acb\u65b9\u4f53.005",
			"translation":[
				0.09037469327449799,
				23.024192810058594,
				-16.89919662475586
			]
		},
		{
			"mesh":3,
			"name":"\u7acb\u65b9\u4f53.006",
			"translation":[
				3.4923224449157715,
				23.024192810058594,
				-16.561845779418945
			]
		},
		{
			"mesh":4,
			"name":"\u5e73\u9762",
			"rotation":[
				0.6532815098762512,
				-0.27059808373451233,
				-0.27059805393218994,
				0.6532815098762512
			],
			"translation":[
				6.804502487182617,
				22.865386962890625,
				-18.260419845581055
			]
		},
		{
			"mesh":5,
			"name":"\u7acb\u65b9\u4f53",
			"scale":[
				10.770570755004883,
				1,
				12.240885734558105
			],
			"translation":[
				6.622702598571777,
				0,
				-8.222818374633789
			]
		},
		{
			"mesh":6,
			"name":"COL",
			"scale":[
				10.614508628845215,
				1,
				12.499570846557617
			],
			"translation":[
				6.649683475494385,
				-0.28811073303222656,
				-8.232503890991211
			]
		},
		{
			"mesh":7,
			"name":"COL.001",
			"scale":[
				8.566821098327637,
				0.8070860505104065,
				10.088229179382324
			],
			"translation":[
				6.649683475494385,
				1.7604806423187256,
				-8.232503890991211
			]
		},
		{
			"mesh":8,
			"name":"COL.002",
			"scale":[
				8.566821098327637,
				0.8070860505104065,
				10.088229179382324
			],
			"translation":[
				6.871921539306641,
				17.15177345275879,
				-8.232503890991211
			]
		},
		{
			"mesh":9,
			"name":"COL.003",
			"translation":[
				0,
				3.7949140071868896,
				0
			]
		},
		{
			"mesh":10,
			"name":"COL.004",
			"translation":[
				0,
				3.7949140071868896,
				-9.874110221862793
			]
		},
		{
			"mesh":11,
			"name":"COL.005",
			"translation":[
				0,
				3.7949140071868896,
				-6.624595642089844
			]
		},
		{
			"mesh":12,
			"name":"COL.006",
			"translation":[
				0,
				3.7949140071868896,
				-16.530712127685547
			]
		},
		{
			"mesh":13,
			"name":"COL.007",
			"translation":[
				0,
				3.7949140071868896,
				-13.230655670166016
			]
		},
		{
			"mesh":14,
			"name":"COL.008",
			"translation":[
				0,
				3.7949140071868896,
				-3.292872190475464
			]
		},
		{
			"mesh":15,
			"name":"COL.009",
			"translation":[
				13.848222732543945,
				3.871424674987793,
				-6.5419487953186035
			]
		},
		{
			"mesh":16,
			"name":"COL.010",
			"translation":[
				13.848222732543945,
				3.871424674987793,
				-3.287071704864502
			]
		},
		{
			"mesh":17,
			"name":"COL.011",
			"translation":[
				13.848222732543945,
				3.871424674987793,
				-9.920315742492676
			]
		},
		{
			"mesh":18,
			"name":"COL.012",
			"translation":[
				13.848222732543945,
				3.871424674987793,
				-13.246248245239258
			]
		},
		{
			"mesh":19,
			"name":"COL.013",
			"translation":[
				13.848222732543945,
				3.871424674987793,
				-16.528106689453125
			]
		},
		{
			"mesh":20,
			"name":"COL.014",
			"translation":[
				13.848222732543945,
				3.871424674987793,
				0
			]
		}
	],
	"materials":[
		{
			"doubleSided":true,
			"name":"\u30de\u30c6\u30ea\u30a2\u30eb",
			"pbrMetallicRoughness":{
				"baseColorFactor":[
					0,
					0.21192650496959686,
					0.773453950881958,
					1
				],
				"metallicFactor":0.5454545021057129,
				"roughnessFactor":0.48701298236846924
			}
		}
	],
	"meshes":[
		{
			"name":"\u5186\u67f1",
			"primitives":[
				{
					"attributes":{
						"POSITION":0,
						"NORMAL":1,
						"TEXCOORD_0":2
					},
					"indices":3,
					"material":0
				}
			]
		},
		{
			"name":"\u7acb\u65b9\u4f53.001",
			"primitives":[
				{
					"attributes":{
						"POSITION":4,
						"NORMAL":5,
						"TEXCOORD_0":6
					},
					"indices":7,
					"material":0
				}
			]
		},
		{
			"name":"\u7acb\u65b9\u4f53.005",
			"primitives":[
				{
					"attributes":{
						"POSITION":8,
						"NORMAL":9,
						"TEXCOORD_0":10
					},
					"indices":11,
					"material":0
				}
			]
		},
		{
			"name":"\u7acb\u65b9\u4f53.006",
			"primitives":[
				{
					"attributes":{
						"POSITION":12,
						"NORMAL":13,
						"TEXCOORD_0":14
					},
					"indices":15,
					"material":0
				}
			]
		},
		{
			"name":"\u5e73\u9762",
			"primitives":[
				{
					"attributes":{
						"POSITION":16,
						"NORMAL":17,
						"TEXCOORD_0":18
					},
					"indices":19,
					"material":0
				}
			]
		},
		{
			"name":"\u7acb\u65b9\u4f53.002",
			"primitives":[
				{
					"attributes":{
						"POSITION":20,
						"NORMAL":21,
						"TEXCOORD_0":22
					},
					"indices":23,
					"material":0
				}
			]
		},
		{
			"name":"\u7acb\u65b9\u4f53",
			"primitives":[
				{
					"attributes":{
						"POSITION":24,
						"NORMAL":25,
						"TEXCOORD_0":26
					},
					"indices":7
				}
			]
		},
		{
			"name":"\u7acb\u65b9\u4f53.003",
			"primitives":[
				{
					"attributes":{
						"POSITION":27,
						"NORMAL":28,
						"TEXCOORD_0":29
					},
					"indices":7
				}
			]
		},
		{
			"name":"\u7acb\u65b9\u4f53.004",
			"primitives":[
				{
					"attributes":{
						"POSITION":30,
						"NORMAL":31,
						"TEXCOORD_0":32
					},
					"indices":33
				}
			]
		},
		{
			"name":"\u7acb\u65b9\u4f53.007",
			"primitives":[
				{
					"attributes":{
						"POSITION":34,
						"NORMAL":35,
						"TEXCOORD_0":36
					},
					"indices":7
				}
			]
		},
		{
			"name":"\u7acb\u65b9\u4f53.008",
			"primitives":[
				{
					"attributes":{
						"POSITION":37,
						"NORMAL":38,
						"TEXCOORD_0":39
					},
					"indices":7
				}
			]
		},
		{
			"name":"\u7acb\u65b9\u4f53.009",
			"primitives":[
				{
					"attributes":{
						"POSITION":40,
						"NORMAL":41,
						"TEXCOORD_0":42
					},
					"indices":7
				}
			]
		},
		{
			"name":"\u7acb\u65b9\u4f53.010",
			"primitives":[
				{
					"attributes":{
						"POSITION":43,
						"NORMAL":44,
						"TEXCOORD_0":45
					},
					"indices":7
				}
			]
		},
		{
			"name":"\u7acb\u65b9\u4f53.011",
			"primitives":[
				{
					"attributes":{
						"POSITION":46,
						"NORMAL":47,
						"TEXCOORD_0":48
					},
					"indices":7
				}
			]
		},
		{
			"name":"\u7acb\u65b9\u4f53.012",
			"primitives":[
				{
					"attributes":{
						"POSITION":49,
						"NORMAL":50,
						"TEXCOORD_0":51
					},
					"indices":7
				}
			]
		},
		{
			"name":"\u7acb\u65b9\u4f53.013",
			"primitives":[
				{
					"attributes":{
						"POSITION":52,
						"NORMAL":53,
						"TEXCOORD_0":54
					},
					"indices":7
				}
			]
		},
		{
			"name":"\u7acb\u65b9\u4f53.014",
			"primitives":[
				{
					"attributes":{
						"POSITION":55,
						"NORMAL":56,
						"TEXCOORD_0":57
					},
					"indices":7
				}
			]
		},
		{
			"name":"\u7acb\u65b9\u4f53.015",
			"primitives":[
				{
					"attributes":{
						"POSITION":58,
						"NORMAL":59,
						"TEXCOORD_0":60
					},
					"indices":7
				}
			]
		},
		{
			"name":"\u7acb\u65b9\u4f53.016",
			"primitives":[
				{
					"attributes":{
						"POSITION":61,
						"NORMAL":62,
						"TEXCOORD_0":63
					},
					"indices":7
				}
			]
		},
		{
			"name":"\u7acb\u65b9\u4f53.017",
			"primitives":[
				{
					"attributes":{
						"POSITION":64,
						"NORMAL":65,
						"TEXCOORD_0":66
					},
					"indices":7
				}
			]
		},
		{
			"name":"\u7acb\u65b9\u4f53.018",
			"primitives":[
				{
					"attributes":{
						"POSITION":67,
						"NORMAL":68,
						"TEXCOORD_0":69
					},
					"indices":7
				}
			]
		}
	],
	"accessors":[
		{
			"bufferView":0,
			"componentType":5126,
			"count":63090,
			"max":[
				15.432923316955566,
				12.317177772521973,
				1.6541450023651123
			],
			"min":[
				-1.6541450023651123,
				-1,
				-18.195594787597656
			],
			"type":"VEC3"
		},
		{
			"bufferView":1,
			"componentType":5126,
			"count":63090,
			"type":"VEC3"
		},
		{
			"bufferView":2,
			"componentType":5126,
			"count":63090,
			"type":"VEC2"
		},
		{
			"bufferView":3,
			"componentType":5123,
			"count":111888,
			"type":"SCALAR"
		},
		{
			"bufferView":4,
			"componentType":5126,
			"count":24,
			"max":[
				1,
				1,
				1
			],
			"min":[
				-1,
				-1,
				-1
			],
			"type":"VEC3"
		},
		{
			"bufferView":5,
			"componentType":5126,
			"count":24,
			"type":"VEC3"
		},
		{
			"bufferView":6,
			"componentType":5126,
			"count":24,
			"type":"VEC2"
		},
		{
			"bufferView":7,
			"componentType":5123,
			"count":36,
			"type":"SCALAR"
		},
		{
			"bufferView":8,
			"componentType":5126,
			"count":93206,
			"max":[
				15.25217342376709,
				-0.20177236199378967,
				18.195594787597656
			],
			"min":[
				-1.6541450023651123,
				-5.079581260681152,
				-1.6541450023651123
			],
			"type":"VEC3"
		},
		{
			"bufferView":9,
			"componentType":5126,
			"count":93206,
			"type":"VEC3"
		},
		{
			"bufferView":10,
			"componentType":5126,
			"count":93206,
			"type":"VEC2"
		},
		{
			"bufferView":11,
			"componentType":5125,
			"count":144576,
			"type":"SCALAR"
		},
		{
			"bufferView":12,
			"componentType":5126,
			"count":46604,
			"max":[
				8.27072525024414,
				-0.20177236199378967,
				18.241607666015625
			],
			"min":[
				-1.6541450023651123,
				-5.079581260681152,
				-1.6541450023651123
			],
			"type":"VEC3"
		},
		{
			"bufferView":13,
			"componentType":5126,
			"count":46604,
			"type":"VEC3"
		},
		{
			"bufferView":14,
			"componentType":5126,
			"count":46604,
			"type":"VEC2"
		},
		{
			"bufferView":15,
			"componentType":5123,
			"count":72288,
			"type":"SCALAR"
		},
		{
			"bufferView":16,
			"componentType":5126,
			"count":18,
			"max":[
				6.170163154602051,
				19.912553787231445,
				6.170164108276367
			],
			"min":[
				-6.170164108276367,
				-2.2599510884901974e-07,
				-6.170163154602051
			],
			"type":"VEC3"
		},
		{
			"bufferView":17,
			"componentType":5126,
			"count":18,
			"type":"VEC3"
		},
		{
			"bufferView":18,
			"componentType":5126,
			"count":18,
			"type":"VEC2"
		},
		{
			"bufferView":19,
			"componentType":5123,
			"count":24,
			"type":"SCALAR"
		},
		{
			"bufferView":20,
			"componentType":5126,
			"count":48,
			"max":[
				1,
				2.8890256881713867,
				1
			],
			"min":[
				-1,
				-1,
				-1
			],
			"type":"VEC3"
		},
		{
			"bufferView":21,
			"componentType":5126,
			"count":48,
			"type":"VEC3"
		},
		{
			"bufferView":22,
			"componentType":5126,
			"count":48,
			"type":"VEC2"
		},
		{
			"bufferView":23,
			"componentType":5123,
			"count":84,
			"type":"SCALAR"
		},
		{
			"bufferView":24,
			"componentType":5126,
			"count":24,
			"max":[
				1,
				1.3182435035705566,
				1
			],
			"min":[
				-1,
				-1,
				-1
			],
			"type":"VEC3"
		},
		{
			"bufferView":25,
			"componentType":5126,
			"count":24,
			"type":"VEC3"
		},
		{
			"bufferView":26,
			"componentType":5126,
			"count":24,
			"type":"VEC2"
		},
		{
			"bufferView":27,
			"componentType":5126,
			"count":24,
			"max":[
				1,
				1.445838212966919,
				1
			],
			"min":[
				-1,
				-1,
				-1
			],
			"type":"VEC3"
		},
		{
			"bufferView":28,
			"componentType":5126,
			"count":24,
			"type":"VEC3"
		},
		{
			"bufferView":29,
			"componentType":5126,
			"count":24,
			"type":"VEC2"
		},
		{
			"bufferView":30,
			"componentType":5126,
			"count":34,
			"max":[
				1,
				13.946592330932617,
				1
			],
			"min":[
				-1,
				-1,
				-1
			],
			"type":"VEC3"
		},
		{
			"bufferView":31,
			"componentType":5126,
			"count":34,
			"type":"VEC3"
		},
		{
			"bufferView":32,
			"componentType":5126,
			"count":34,
			"type":"VEC2"
		},
		{
			"bufferView":33,
			"componentType":5123,
			"count":60,
			"type":"SCALAR"
		},
		{
			"bufferView":34,
			"componentType":5126,
			"count":24,
			"max":[
				1,
				12.462241172790527,
				1
			],
			"min":[
				-1,
				-1,
				-1
			],
			"type":"VEC3"
		},
		{
			"bufferView":35,
			"componentType":5126,
			"count":24,
			"type":"VEC3"
		},
		{
			"bufferView":36,
			"componentType":5126,
			"count":24,
			"type":"VEC2"
		},
		{
			"bufferView":37,
			"componentType":5126,
			"count":24,
			"max":[
				1,
				12.462241172790527,
				1
			],
			"min":[
				-1,
				-1,
				-1
			],
			"type":"VEC3"
		},
		{
			"bufferView":38,
			"componentType":5126,
			"count":24,
			"type":"VEC3"
		},
		{
			"bufferView":39,
			"componentType":5126,
			"count":24,
			"type":"VEC2"
		},
		{
			"bufferView":40,
			"componentType":5126,
			"count":24,
			"max":[
				1,
				12.462241172790527,
				1
			],
			"min":[
				-1,
				-1,
				-1
			],
			"type":"VEC3"
		},
		{
			"bufferView":41,
			"componentType":5126,
			"count":24,
			"type":"VEC3"
		},
		{
			"bufferView":42,
			"componentType":5126,
			"count":24,
			"type":"VEC2"
		},
		{
			"bufferView":43,
			"componentType":5126,
			"count":24,
			"max":[
				1,
				12.462241172790527,
				1
			],
			"min":[
				-1,
				-1,
				-1
			],
			"type":"VEC3"
		},
		{
			"bufferView":44,
			"componentType":5126,
			"count":24,
			"type":"VEC3"
		},
		{
			"bufferView":45,
			"componentType":5126,
			"count":24,
			"type":"VEC2"
		},
		{
			"bufferView":46,
			"componentType":5126,
			"count":24,
			"max":[
				1,
				12.462241172790527,
				1
			],
			"min":[
				-1,
				-1,
				-1
			],
			"type":"VEC3"
		},
		{
			"bufferView":47,
			"componentType":5126,
			"count":24,
			"type":"VEC3"
		},
		{
			"bufferView":48,
			"componentType":5126,
			"count":24,
			"type":"VEC2"
		},
		{
			"bufferView":49,
			"componentType":5126,
			"count":24,
			"max":[
				1,
				12.462241172790527,
				1
			],
			"min":[
				-1,
				-1,
				-1
			],
			"type":"VEC3"
		},
		{
			"bufferView":50,
			"componentType":5126,
			"count":24,
			"type":"VEC3"
		},
		{
			"bufferView":51,
			"componentType":5126,
			"count":24,
			"type":"VEC2"
		},
		{
			"bufferView":52,
			"componentType":5126,
			"count":24,
			"max":[
				1,
				12.462241172790527,
				1
			],
			"min":[
				-1,
				-1,
				-1
			],
			"type":"VEC3"
		},
		{
			"bufferView":53,
			"componentType":5126,
			"count":24,
			"type":"VEC3"
		},
		{
			"bufferView":54,
			"componentType":5126,
			"count":24,
			"type":"VEC2"
		},
		{
			"bufferView":55,
			"componentType":5126,
			"count":24,
			"max":[
				1,
				12.462241172790527,
				1
			],
			"min":[
				-1,
				-1,
				-1
			],
			"type":"VEC3"
		},
		{
			"bufferView":56,
			"componentType":5126,
			"count":24,
			"type":"VEC3"
		},
		{
			"bufferView":57,
			"componentType":5126,
			"count":24,
			"type":"VEC2"
		},
		{
			"bufferView":58,
			"componentType":5126,
			"count":24,
			"max":[
				1,
				12.462241172790527,
				1
			],
			"min":[
				-1,
				-1,
				-1
			],
			"type":"VEC3"
		},
		{
			"bufferView":59,
			"componentType":5126,
			"count":24,
			"type":"VEC3"
		},
		{
			"bufferView":60,
			"componentType":5126,
			"count":24,
			"type":"VEC2"
		},
		{
			"bufferView":61,
			"componentType":5126,
			"count":24,
			"max":[
				1,
				12.462241172790527,
				1
			],
			"min":[
				-1,
				-1,
				-1
			],
			"type":"VEC3"
		},
		{
			"bufferView":62,
			"componentType":5126,
			"count":24,
			"type":"VEC3"
		},
		{
			"bufferView":63,
			"componentType":5126,
			"count":24,
			"type":"VEC2"
		},
		{
			"bufferView":64,
			"componentType":5126,
			"count":24,
			"max":[
				1,
				12.462241172790527,
				1
			],
			"min":[
				-1,
				-1,
				-1
			],
			"type":"VEC3"
		},
		{
			"bufferView":65,
			"componentType":5126,
			"count":24,
			"type":"VEC3"
		},
		{
			"bufferView":66,
			"componentType":5126,
			"count":24,
			"type":"VEC2"
		},
		{
			"bufferView":67,
			"componentType":5126,
			"count":24,
			"max":[
				1,
				12.462241172790527,
				1
			],
			"min":[
				-1,
				-1,
				-1
			],
			"type":"VEC3"
		},
		{
			"bufferView":68,
			"componentType":5126,
			"count":24,
			"type":"VEC3"
		},
		{
			"bufferView":69,
			"componentType":5126,
			"count":24,
			"type":"VEC2"
		}
	],
	"bufferViews":[
		{
			"buffer":0,
			"byteLength":757080,
			"byteOffset":0,
			"target":34962
		},
		{
			"buffer":0,
			"byteLength":757080,
			"byteOffset":757080,
			"target":34962
		},
		{
			"buffer":0,
			"byteLength":504720,
			"byteOffset":1514160,
			"target":34962
		},
		{
			"buffer":0,
			"byteLength":223776,
			"byteOffset":2018880,
			"target":34963
		},
		{
			"buffer":0,
			"byteLength":288,
			"byteOffset":2242656,
			"target":34962
		},
		{
			"buffer":0,
			"byteLength":288,
			"byteOffset":2242944,
			"target":34962
		},
		{
			"buffer":0,
			"byteLength":192,
			"byteOffset":2243232,
			"target":34962
		},
		{
			"buffer":0,
			"byteLength":72,
			"byteOffset":2243424,
			"target":34963
		},
		{
			"buffer":0,
			"byteLength":1118472,
			"byteOffset":2243496,
			"target":34962
		},
		{
			"buffer":0,
			"byteLength":1118472,
			"byteOffset":3361968,
			"target":34962
		},
		{
			"buffer":0,
			"byteLength":745648,
			"byteOffset":4480440,
			"target":34962
		},
		{
			"buffer":0,
			"byteLength":578304,
			"byteOffset":5226088,
			"target":34963
		},
		{
			"buffer":0,
			"byteLength":559248,
			"byteOffset":5804392,
			"target":34962
		},
		{
			"buffer":0,
			"byteLength":559248,
			"byteOffset":6363640,
			"target":34962
		},
		{
			"buffer":0,
			"byteLength":372832,
			"byteOffset":6922888,
			"target":34962
		},
		{
			"buffer":0,
			"byteLength":144576,
			"byteOffset":7295720,
			"target":34963
		},
		{
			"buffer":0,
			"byteLength":216,
			"byteOffset":7440296,
			"target":34962
		},
		{
			"buffer":0,
			"byteLength":216,
			"byteOffset":7440512,
			"target":34962
		},
		{
			"buffer":0,
			"byteLength":144,
			"byteOffset":7440728,
			"target":34962
		},
		{
			"buffer":0,
			"byteLength":48,
			"byteOffset":7440872,
			"target":34963
		},
		{
			"buffer":0,
			"byteLength":576,
			"byteOffset":7440920,
			"target":34962
		},
		{
			"buffer":0,
			"byteLength":576,
			"byteOffset":7441496,
			"target":34962
		},
		{
			"buffer":0,
			"byteLength":384,
			"byteOffset":7442072,
			"target":34962
		},
		{
			"buffer":0,
			"byteLength":168,
			"byteOffset":7442456,
			"target":34963
		},
		{
			"buffer":0,
			"byteLength":288,
			"byteOffset":7442624,
			"target":34962
		},
		{
			"buffer":0,
			"byteLength":288,
			"byteOffset":7442912,
			"target":34962
		},
		{
			"buffer":0,
			"byteLength":192,
			"byteOffset":7443200,
			"target":34962
		},
		{
			"buffer":0,
			"byteLength":288,
			"byteOffset":7443392,
			"target":34962
		},
		{
			"buffer":0,
			"byteLength":288,
			"byteOffset":7443680,
			"target":34962
		},
		{
			"buffer":0,
			"byteLength":192,
			"byteOffset":7443968,
			"target":34962
		},
		{
			"buffer":0,
			"byteLength":408,
			"byteOffset":7444160,
			"target":34962
		},
		{
			"buffer":0,
			"byteLength":408,
			"byteOffset":7444568,
			"target":34962
		},
		{
			"buffer":0,
			"byteLength":272,
			"byteOffset":7444976,
			"target":34962
		},
		{
			"buffer":0,
			"byteLength":120,
			"byteOffset":7445248,
			"target":34963
		},
		{
			"buffer":0,
			"byteLength":288,
			"byteOffset":7445368,
			"target":34962
		},
		{
			"buffer":0,
			"byteLength":288,
			"byteOffset":7445656,
			"target":34962
		},
		{
			"buffer":0,
			"byteLength":192,
			"byteOffset":7445944,
			"target":34962
		},
		{
			"buffer":0,
			"byteLength":288,
			"byteOffset":7446136,
			"target":34962
		},
		{
			"buffer":0,
			"byteLength":288,
			"byteOffset":7446424,
			"target":34962
		},
		{
			"buffer":0,
			"byteLength":192,
			"byteOffset":7446712,
			"target":34962
		},
		{
			"buffer":0,
			"byteLength":288,
			"byteOffset":7446904,
			"target":34962
		},
		{
			"buffer":0,
			"byteLength":288,
			"byteOffset":7447192,
			"target":34962
		},
		{
			"buffer":0,
			"byteLength":192,
			"byteOffset":7447480,
			"target":34962
		},
		{
			"buffer":0,
			"byteLength":288,
			"byteOffset":7447672,
			"target":34962
		},
		{
			"buffer":0,
			"byteLength":288,
			"byteOffset":7447960,
			"target":34962
		},
		{
			"buffer":0,
			"byteLength":192,
			"byteOffset":7448248,
			"target":34962
		},
		{
			"buffer":0,
			"byteLength":288,
			"byteOffset":7448440,
			"target":34962
		},
		{
			"buffer":0,
			"byteLength":288,
			"byteOffset":7448728,
			"target":34962
		},
		{
			"buffer":0,
			"byteLength":192,
			"byteOffset":7449016,
			"target":34962
		},
		{
			"buffer":0,
			"byteLength":288,
			"byteOffset":7449208,
			"target":34962
		},
		{
			"buffer":0,
			"byteLength":288,
			"byteOffset":7449496,
			"target":34962
		},
		{
			"buffer":0,
			"byteLength":192,
			"byteOffset":7449784,
			"target":34962
		},
		{
			"buffer":0,
			"byteLength":288,
			"byteOffset":7449976,
			"target":34962
		},
		{
			"buffer":0,
			"byteLength":288,
			"byteOffset":7450264,
			"target":34962
		},
		{
			"buffer":0,
			"byteLength":192,
			"byteOffset":7450552,
			"target":34962
		},
		{
			"buffer":0,
			"byteLength":288,
			"byteOffset":7450744,
			"target":34962
		},
		{
			"buffer":0,
			"byteLength":288,
			"byteOffset":7451032,
			"target":34962
		},
		{
			"buffer":0,
			"byteLength":192,
			"byteOffset":7451320,
			"target":34962
		},
		{
			"buffer":0,
			"byteLength":288,
			"byteOffset":7451512,
			"target":34962
		},
		{
			"buffer":0,
			"byteLength":288,
			"byteOffset":7451800,
			"target":34962
		},
		{
			"buffer":0,
			"byteLength":192,
			"byteOffset":7452088,
			"target":34962
		},
		{
			"buffer":0,
			"byteLength":288,
			"byteOffset":7452280,
			"target":34962
		},
		{
			"buffer":0,
			"byteLength":288,
			"byteOffset":7452568,
			"target":34962
		},
		{
			"buffer":0,
			"byteLength":192,
			"byteOffset":7452856,
			"target":34962
		},
		{
			"buffer":0,
			"byteLength":288,
			"byteOffset":7453048,
			"target":34962
		},
		{
			"buffer":0,
			"byteLength":288,
			"byteOffset":7453336,
			"target":34962
		},
		{
			"buffer":0,
			"byteLength":192,
			"byteOffset":7453624,
			"target":34962
		},
		{
			"buffer":0,
			"byteLength":288,
			"byteOffset":7453816,
			"target":34962
		},
		{
			"buffer":0,
			"byteLength":288,
			"byteOffset":7454104,
			"target":34962
		},
		{
			"buffer":0,
			"byteLength":192,
			"byteOffset":7454392,
			"target":34962
		}
	],
	"buffers":[
		{
			"byteLength":7454584,
			"uri":"Temple.bin"
		}
	]
}
