{
	"asset":{
		"generator":"Khronos glTF Blender I/O v4.1.63",
		"version":"2.0"
	},
	"scene":0,
	"scenes":[
		{
			"name":"Scene",
			"nodes":[
				0,
				1
			]
		}
	],
	"nodes":[
		{
			"mesh":0,
			"name":"\u5186\u9310",
			"scale":[
				52.1464729309082,
				6.084167003631592,
				52.24678421020508
			],
			"translation":[
				7.752601146697998,
				28.341236114501953,
				-7.792076110839844
			]
		},
		{
			"mesh":1,
			"name":"COL",
			"scale":[
				1,
				13.422381401062012,
				1.6538336277008057
			],
			"translation":[
				1.0918607711791992,
				13.089802742004395,
				0
			]
		}
	],
	"materials":[
		{
			"doubleSided":true,
			"name":"Material.001",
			"pbrMetallicRoughness":{
				"baseColorFactor":[
					0,
					0.2192452996969223,
					0.8001648187637329,
					1
				],
				"metallicFactor":0,
				"roughnessFactor":0.5
			}
		}
	],
	"meshes":[
		{
			"name":"\u5186\u9310",
			"primitives":[
				{
					"attributes":{
						"POSITION":0,
						"NORMAL":1,
						"TEXCOORD_0":2
					},
					"indices":3,
					"material":0
				}
			]
		},
		{
			"name":"\u7acb\u65b9\u4f53",
			"primitives":[
				{
					"attributes":{
						"POSITION":4,
						"NORMAL":5,
						"TEXCOORD_0":6
					},
					"indices":7
				}
			]
		}
	],
	"accessors":[
		{
			"bufferView":0,
			"componentType":5126,
			"count":1188,
			"max":[
				0.18946167826652527,
				0,
				0.18941497802734375
			],
			"min":[
				-0.18829452991485596,
				-4.697221279144287,
				-0.18825995922088623
			],
			"type":"VEC3"
		},
		{
			"bufferView":1,
			"componentType":5126,
			"count":1188,
			"type":"VEC3"
		},
		{
			"bufferView":2,
			"componentType":5126,
			"count":1188,
			"type":"VEC2"
		},
		{
			"bufferView":3,
			"componentType":5123,
			"count":3036,
			"type":"SCALAR"
		},
		{
			"bufferView":4,
			"componentType":5126,
			"count":192,
			"max":[
				16.524539947509766,
				1.1193835735321045,
				1
			],
			"min":[
				-2.8753647804260254,
				-1,
				-10.5740966796875
			],
			"type":"VEC3"
		},
		{
			"bufferView":5,
			"componentType":5126,
			"count":192,
			"type":"VEC3"
		},
		{
			"bufferView":6,
			"componentType":5126,
			"count":192,
			"type":"VEC2"
		},
		{
			"bufferView":7,
			"componentType":5123,
			"count":384,
			"type":"SCALAR"
		}
	],
	"bufferViews":[
		{
			"buffer":0,
			"byteLength":14256,
			"byteOffset":0,
			"target":34962
		},
		{
			"buffer":0,
			"byteLength":14256,
			"byteOffset":14256,
			"target":34962
		},
		{
			"buffer":0,
			"byteLength":9504,
			"byteOffset":28512,
			"target":34962
		},
		{
			"buffer":0,
			"byteLength":6072,
			"byteOffset":38016,
			"target":34963
		},
		{
			"buffer":0,
			"byteLength":2304,
			"byteOffset":44088,
			"target":34962
		},
		{
			"buffer":0,
			"byteLength":2304,
			"byteOffset":46392,
			"target":34962
		},
		{
			"buffer":0,
			"byteLength":1536,
			"byteOffset":48696,
			"target":34962
		},
		{
			"buffer":0,
			"byteLength":768,
			"byteOffset":50232,
			"target":34963
		}
	],
	"buffers":[
		{
			"byteLength":51000,
			"uri":"Arch.bin"
		}
	]
}
