{
	"asset":{
		"generator":"Khronos glTF Blender I/O v4.1.63",
		"version":"2.0"
	},
	"scene":0,
	"scenes":[
		{
			"name":"Scene",
			"nodes":[
				0,
				1
			]
		}
	],
	"nodes":[
		{
			"mesh":0,
			"name":"COL01",
			"scale":[
				9.669577598571777,
				1,
				9.461870193481445
			],
			"translation":[
				7.734970569610596,
				38.281185150146484,
				-7.878396034240723
			]
		},
		{
			"mesh":1,
			"name":"Pedestal"
		}
	],
	"materials":[
		{
			"doubleSided":true,
			"name":"Material",
			"normalTexture":{
				"index":0
			},
			"pbrMetallicRoughness":{
				"baseColorTexture":{
					"index":1
				},
				"metallicFactor":0.4036697447299957,
				"roughnessFactor":0.2706421911716461
			}
		}
	],
	"meshes":[
		{
			"name":"\u7acb\u65b9\u4f53",
			"primitives":[
				{
					"attributes":{
						"POSITION":0,
						"NORMAL":1,
						"TEXCOORD_0":2
					},
					"indices":3
				}
			]
		},
		{
			"name":"Cube",
			"primitives":[
				{
					"attributes":{
						"POSITION":4,
						"NORMAL":5,
						"TEXCOORD_0":6,
						"TEXCOORD_1":7
					},
					"indices":8,
					"material":0
				}
			]
		}
	],
	"textures":[
		{
			"sampler":0,
			"source":0
		},
		{
			"sampler":0,
			"source":1
		}
	],
	"images":[
		{
			"mimeType":"image/png",
			"name":"normalstone3",
			"uri":"normalstone3.png"
		},
		{
			"mimeType":"image/jpeg",
			"name":"stone3",
			"uri":"stone3.jpg"
		}
	],
	"accessors":[
		{
			"bufferView":0,
			"componentType":5126,
			"count":246,
			"max":[
				2.412144660949707,
				1,
				2.4832205772399902
			],
			"min":[
				-2.416656017303467,
				-39.16510772705078,
				-2.4684500694274902
			],
			"type":"VEC3"
		},
		{
			"bufferView":1,
			"componentType":5126,
			"count":246,
			"type":"VEC3"
		},
		{
			"bufferView":2,
			"componentType":5126,
			"count":246,
			"type":"VEC2"
		},
		{
			"bufferView":3,
			"componentType":5123,
			"count":456,
			"type":"SCALAR"
		},
		{
			"bufferView":4,
			"componentType":5126,
			"count":12648,
			"max":[
				31.529888153076172,
				38.32852554321289,
				15.960066795349121
			],
			"min":[
				-15.988136291503906,
				-0.9918714761734009,
				-31.479900360107422
			],
			"type":"VEC3"
		},
		{
			"bufferView":5,
			"componentType":5126,
			"count":12648,
			"type":"VEC3"
		},
		{
			"bufferView":6,
			"componentType":5126,
			"count":12648,
			"type":"VEC2"
		},
		{
			"bufferView":7,
			"componentType":5126,
			"count":12648,
			"type":"VEC2"
		},
		{
			"bufferView":8,
			"componentType":5123,
			"count":30720,
			"type":"SCALAR"
		}
	],
	"bufferViews":[
		{
			"buffer":0,
			"byteLength":2952,
			"byteOffset":0,
			"target":34962
		},
		{
			"buffer":0,
			"byteLength":2952,
			"byteOffset":2952,
			"target":34962
		},
		{
			"buffer":0,
			"byteLength":1968,
			"byteOffset":5904,
			"target":34962
		},
		{
			"buffer":0,
			"byteLength":912,
			"byteOffset":7872,
			"target":34963
		},
		{
			"buffer":0,
			"byteLength":151776,
			"byteOffset":8784,
			"target":34962
		},
		{
			"buffer":0,
			"byteLength":151776,
			"byteOffset":160560,
			"target":34962
		},
		{
			"buffer":0,
			"byteLength":101184,
			"byteOffset":312336,
			"target":34962
		},
		{
			"buffer":0,
			"byteLength":101184,
			"byteOffset":413520,
			"target":34962
		},
		{
			"buffer":0,
			"byteLength":61440,
			"byteOffset":514704,
			"target":34963
		}
	],
	"samplers":[
		{
			"magFilter":9729,
			"minFilter":9987
		}
	],
	"buffers":[
		{
			"byteLength":576144,
			"uri":"Sentral.bin"
		}
	]
}
