{
	"asset":{
		"generator":"Khronos glTF Blender I/O v4.1.63",
		"version":"2.0"
	},
	"scene":0,
	"scenes":[
		{
			"name":"Scene",
			"nodes":[
				0,
				1,
				2,
				3,
				4,
				5
			]
		}
	],
	"nodes":[
		{
			"mesh":0,
			"name":"COL.002",
			"scale":[
				1.1702744960784912,
				9.46148681640625,
				1.1702744960784912
			],
			"translation":[
				15.674386024475098,
				8.592994689941406,
				0
			]
		},
		{
			"mesh":1,
			"name":"COL.003",
			"scale":[
				1.1702744960784912,
				9.46148681640625,
				1.1702744960784912
			],
			"translation":[
				0,
				8.592994689941406,
				-15.493896484375
			]
		},
		{
			"mesh":2,
			"name":"COL.004",
			"scale":[
				1.1702744960784912,
				9.46148681640625,
				1.1702744960784912
			],
			"translation":[
				0,
				8.592994689941406,
				0
			]
		},
		{
			"mesh":3,
			"name":"COL",
			"scale":[
				9.669577598571777,
				1,
				9.461870193481445
			],
			"translation":[
				7.734970569610596,
				38.281185150146484,
				-7.878396034240723
			]
		},
		{
			"mesh":4,
			"name":"Pedestal"
		},
		{
			"mesh":5,
			"name":"COL.001",
			"scale":[
				1.1702744960784912,
				9.46148681640625,
				1.1702744960784912
			],
			"translation":[
				15.508749961853027,
				8.592994689941406,
				-15.540104866027832
			]
		}
	],
	"materials":[
		{
			"doubleSided":true,
			"name":"Material",
			"pbrMetallicRoughness":{
				"baseColorTexture":{
					"index":0
				},
				"metallicFactor":0.4036697447299957,
				"roughnessFactor":0.2706421911716461
			}
		}
	],
	"meshes":[
		{
			"name":"\u7acb\u65b9\u4f53.008",
			"primitives":[
				{
					"attributes":{
						"POSITION":0,
						"NORMAL":1,
						"TEXCOORD_0":2
					},
					"indices":3
				}
			]
		},
		{
			"name":"\u7acb\u65b9\u4f53.009",
			"primitives":[
				{
					"attributes":{
						"POSITION":4,
						"NORMAL":5,
						"TEXCOORD_0":6
					},
					"indices":3
				}
			]
		},
		{
			"name":"\u7acb\u65b9\u4f53.010",
			"primitives":[
				{
					"attributes":{
						"POSITION":7,
						"NORMAL":8,
						"TEXCOORD_0":9
					},
					"indices":3
				}
			]
		},
		{
			"name":"\u7acb\u65b9\u4f53",
			"primitives":[
				{
					"attributes":{
						"POSITION":10,
						"NORMAL":11,
						"TEXCOORD_0":12
					},
					"indices":13
				}
			]
		},
		{
			"name":"Cube",
			"primitives":[
				{
					"attributes":{
						"POSITION":14,
						"NORMAL":15,
						"TEXCOORD_0":16,
						"TEXCOORD_1":17
					},
					"indices":18,
					"material":0
				}
			]
		},
		{
			"name":"\u7acb\u65b9\u4f53.007",
			"primitives":[
				{
					"attributes":{
						"POSITION":19,
						"NORMAL":20,
						"TEXCOORD_0":21
					},
					"indices":3
				}
			]
		}
	],
	"textures":[
		{
			"sampler":0,
			"source":0
		}
	],
	"images":[
		{
			"mimeType":"image/jpeg",
			"name":"sunahekiL02",
			"uri":"sunahekiL02.jpg"
		}
	],
	"accessors":[
		{
			"bufferView":0,
			"componentType":5126,
			"count":24,
			"max":[
				1,
				1,
				1
			],
			"min":[
				-1,
				-1,
				-1
			],
			"type":"VEC3"
		},
		{
			"bufferView":1,
			"componentType":5126,
			"count":24,
			"type":"VEC3"
		},
		{
			"bufferView":2,
			"componentType":5126,
			"count":24,
			"type":"VEC2"
		},
		{
			"bufferView":3,
			"componentType":5123,
			"count":36,
			"type":"SCALAR"
		},
		{
			"bufferView":4,
			"componentType":5126,
			"count":24,
			"max":[
				1,
				1,
				1
			],
			"min":[
				-1,
				-1,
				-1
			],
			"type":"VEC3"
		},
		{
			"bufferView":5,
			"componentType":5126,
			"count":24,
			"type":"VEC3"
		},
		{
			"bufferView":6,
			"componentType":5126,
			"count":24,
			"type":"VEC2"
		},
		{
			"bufferView":7,
			"componentType":5126,
			"count":24,
			"max":[
				1,
				1,
				1
			],
			"min":[
				-1,
				-1,
				-1
			],
			"type":"VEC3"
		},
		{
			"bufferView":8,
			"componentType":5126,
			"count":24,
			"type":"VEC3"
		},
		{
			"bufferView":9,
			"componentType":5126,
			"count":24,
			"type":"VEC2"
		},
		{
			"bufferView":10,
			"componentType":5126,
			"count":150,
			"max":[
				2.412144660949707,
				1,
				2.4832205772399902
			],
			"min":[
				-2.416656017303467,
				-39.16510772705078,
				-2.4684500694274902
			],
			"type":"VEC3"
		},
		{
			"bufferView":11,
			"componentType":5126,
			"count":150,
			"type":"VEC3"
		},
		{
			"bufferView":12,
			"componentType":5126,
			"count":150,
			"type":"VEC2"
		},
		{
			"bufferView":13,
			"componentType":5123,
			"count":312,
			"type":"SCALAR"
		},
		{
			"bufferView":14,
			"componentType":5126,
			"count":12648,
			"max":[
				31.529888153076172,
				38.32852554321289,
				15.960066795349121
			],
			"min":[
				-15.988136291503906,
				-0.9918714761734009,
				-31.479900360107422
			],
			"type":"VEC3"
		},
		{
			"bufferView":15,
			"componentType":5126,
			"count":12648,
			"type":"VEC3"
		},
		{
			"bufferView":16,
			"componentType":5126,
			"count":12648,
			"type":"VEC2"
		},
		{
			"bufferView":17,
			"componentType":5126,
			"count":12648,
			"type":"VEC2"
		},
		{
			"bufferView":18,
			"componentType":5123,
			"count":30720,
			"type":"SCALAR"
		},
		{
			"bufferView":19,
			"componentType":5126,
			"count":24,
			"max":[
				1,
				1,
				1
			],
			"min":[
				-1,
				-1,
				-1
			],
			"type":"VEC3"
		},
		{
			"bufferView":20,
			"componentType":5126,
			"count":24,
			"type":"VEC3"
		},
		{
			"bufferView":21,
			"componentType":5126,
			"count":24,
			"type":"VEC2"
		}
	],
	"bufferViews":[
		{
			"buffer":0,
			"byteLength":288,
			"byteOffset":0,
			"target":34962
		},
		{
			"buffer":0,
			"byteLength":288,
			"byteOffset":288,
			"target":34962
		},
		{
			"buffer":0,
			"byteLength":192,
			"byteOffset":576,
			"target":34962
		},
		{
			"buffer":0,
			"byteLength":72,
			"byteOffset":768,
			"target":34963
		},
		{
			"buffer":0,
			"byteLength":288,
			"byteOffset":840,
			"target":34962
		},
		{
			"buffer":0,
			"byteLength":288,
			"byteOffset":1128,
			"target":34962
		},
		{
			"buffer":0,
			"byteLength":192,
			"byteOffset":1416,
			"target":34962
		},
		{
			"buffer":0,
			"byteLength":288,
			"byteOffset":1608,
			"target":34962
		},
		{
			"buffer":0,
			"byteLength":288,
			"byteOffset":1896,
			"target":34962
		},
		{
			"buffer":0,
			"byteLength":192,
			"byteOffset":2184,
			"target":34962
		},
		{
			"buffer":0,
			"byteLength":1800,
			"byteOffset":2376,
			"target":34962
		},
		{
			"buffer":0,
			"byteLength":1800,
			"byteOffset":4176,
			"target":34962
		},
		{
			"buffer":0,
			"byteLength":1200,
			"byteOffset":5976,
			"target":34962
		},
		{
			"buffer":0,
			"byteLength":624,
			"byteOffset":7176,
			"target":34963
		},
		{
			"buffer":0,
			"byteLength":151776,
			"byteOffset":7800,
			"target":34962
		},
		{
			"buffer":0,
			"byteLength":151776,
			"byteOffset":159576,
			"target":34962
		},
		{
			"buffer":0,
			"byteLength":101184,
			"byteOffset":311352,
			"target":34962
		},
		{
			"buffer":0,
			"byteLength":101184,
			"byteOffset":412536,
			"target":34962
		},
		{
			"buffer":0,
			"byteLength":61440,
			"byteOffset":513720,
			"target":34963
		},
		{
			"buffer":0,
			"byteLength":288,
			"byteOffset":575160,
			"target":34962
		},
		{
			"buffer":0,
			"byteLength":288,
			"byteOffset":575448,
			"target":34962
		},
		{
			"buffer":0,
			"byteLength":192,
			"byteOffset":575736,
			"target":34962
		}
	],
	"samplers":[
		{
			"magFilter":9729,
			"minFilter":9987
		}
	],
	"buffers":[
		{
			"byteLength":575928,
			"uri":"Sentral.bin"
		}
	]
}
