{
	"asset":{
		"generator":"Khronos glTF Blender I/O v4.1.63",
		"version":"2.0"
	},
	"scene":0,
	"scenes":[
		{
			"name":"Scene",
			"nodes":[
				0,
				1,
				2,
				3,
				4,
				5,
				6
			]
		}
	],
	"nodes":[
		{
			"mesh":0,
			"name":"COL.002",
			"scale":[
				1.1702744960784912,
				9.46148681640625,
				1.1702744960784912
			],
			"translation":[
				15.674386024475098,
				8.592994689941406,
				0
			]
		},
		{
			"mesh":1,
			"name":"COL.003",
			"scale":[
				1.1702744960784912,
				9.46148681640625,
				1.1702744960784912
			],
			"translation":[
				0,
				8.592994689941406,
				-15.493896484375
			]
		},
		{
			"mesh":2,
			"name":"COL.004",
			"scale":[
				1.1702744960784912,
				9.46148681640625,
				1.1702744960784912
			],
			"translation":[
				0,
				8.592994689941406,
				0
			]
		},
		{
			"mesh":3,
			"name":"\u7acb\u65b9\u4f53",
			"rotation":[
				0,
				0,
				-0.7071068286895752,
				0.7071068286895752
			],
			"scale":[
				32.504981994628906,
				9.089910507202148,
				9.089910507202148
			],
			"translation":[
				-10.901778221130371,
				10.194157600402832,
				-7.494768142700195
			]
		},
		{
			"mesh":4,
			"name":"COL",
			"scale":[
				9.669577598571777,
				1,
				9.461870193481445
			],
			"translation":[
				7.734970569610596,
				38.281185150146484,
				-7.878396034240723
			]
		},
		{
			"mesh":5,
			"name":"Pedestal"
		},
		{
			"mesh":6,
			"name":"COL.001",
			"scale":[
				1.1702744960784912,
				9.46148681640625,
				1.1702744960784912
			],
			"translation":[
				15.508749961853027,
				8.592994689941406,
				-15.540104866027832
			]
		}
	],
	"materials":[
		{
			"doubleSided":true,
			"name":"Material",
			"pbrMetallicRoughness":{
				"baseColorTexture":{
					"index":0
				},
				"metallicFactor":0,
				"roughnessFactor":0.5
			}
		}
	],
	"meshes":[
		{
			"name":"\u7acb\u65b9\u4f53.008",
			"primitives":[
				{
					"attributes":{
						"POSITION":0,
						"NORMAL":1,
						"TEXCOORD_0":2
					},
					"indices":3
				}
			]
		},
		{
			"name":"\u7acb\u65b9\u4f53.009",
			"primitives":[
				{
					"attributes":{
						"POSITION":4,
						"NORMAL":5,
						"TEXCOORD_0":6
					},
					"indices":3
				}
			]
		},
		{
			"name":"\u7acb\u65b9\u4f53.010",
			"primitives":[
				{
					"attributes":{
						"POSITION":7,
						"NORMAL":8,
						"TEXCOORD_0":9
					},
					"indices":3
				}
			]
		},
		{
			"name":"\u7acb\u65b9\u4f53.005",
			"primitives":[
				{
					"attributes":{
						"POSITION":10,
						"NORMAL":11,
						"TEXCOORD_0":12
					},
					"indices":13
				}
			]
		},
		{
			"name":"\u7acb\u65b9\u4f53",
			"primitives":[
				{
					"attributes":{
						"POSITION":14,
						"NORMAL":15,
						"TEXCOORD_0":16
					},
					"indices":17
				}
			]
		},
		{
			"name":"Cube",
			"primitives":[
				{
					"attributes":{
						"POSITION":18,
						"NORMAL":19,
						"TEXCOORD_0":20,
						"TEXCOORD_1":21
					},
					"indices":22,
					"material":0
				}
			]
		},
		{
			"name":"\u7acb\u65b9\u4f53.007",
			"primitives":[
				{
					"attributes":{
						"POSITION":23,
						"NORMAL":24,
						"TEXCOORD_0":25
					},
					"indices":3
				}
			]
		}
	],
	"textures":[
		{
			"sampler":0,
			"source":0
		}
	],
	"images":[
		{
			"mimeType":"image/jpeg",
			"name":"1391444321",
			"uri":"1391444321.jpg"
		}
	],
	"accessors":[
		{
			"bufferView":0,
			"componentType":5126,
			"count":24,
			"max":[
				1,
				1,
				1
			],
			"min":[
				-1,
				-1,
				-1
			],
			"type":"VEC3"
		},
		{
			"bufferView":1,
			"componentType":5126,
			"count":24,
			"type":"VEC3"
		},
		{
			"bufferView":2,
			"componentType":5126,
			"count":24,
			"type":"VEC2"
		},
		{
			"bufferView":3,
			"componentType":5123,
			"count":36,
			"type":"SCALAR"
		},
		{
			"bufferView":4,
			"componentType":5126,
			"count":24,
			"max":[
				1,
				1,
				1
			],
			"min":[
				-1,
				-1,
				-1
			],
			"type":"VEC3"
		},
		{
			"bufferView":5,
			"componentType":5126,
			"count":24,
			"type":"VEC3"
		},
		{
			"bufferView":6,
			"componentType":5126,
			"count":24,
			"type":"VEC2"
		},
		{
			"bufferView":7,
			"componentType":5126,
			"count":24,
			"max":[
				1,
				1,
				1
			],
			"min":[
				-1,
				-1,
				-1
			],
			"type":"VEC3"
		},
		{
			"bufferView":8,
			"componentType":5126,
			"count":24,
			"type":"VEC3"
		},
		{
			"bufferView":9,
			"componentType":5126,
			"count":24,
			"type":"VEC2"
		},
		{
			"bufferView":10,
			"componentType":5126,
			"count":140,
			"max":[
				0.23776279389858246,
				-1.8203346598966164e-06,
				0.38345909118652344
			],
			"min":[
				-0.17311133444309235,
				-1.2885231971740723,
				-0.38345909118652344
			],
			"type":"VEC3"
		},
		{
			"bufferView":11,
			"componentType":5126,
			"count":140,
			"type":"VEC3"
		},
		{
			"bufferView":12,
			"componentType":5126,
			"count":140,
			"type":"VEC2"
		},
		{
			"bufferView":13,
			"componentType":5123,
			"count":396,
			"type":"SCALAR"
		},
		{
			"bufferView":14,
			"componentType":5126,
			"count":150,
			"max":[
				2.412144660949707,
				1,
				2.4832205772399902
			],
			"min":[
				-2.416656017303467,
				-39.16510772705078,
				-2.4684500694274902
			],
			"type":"VEC3"
		},
		{
			"bufferView":15,
			"componentType":5126,
			"count":150,
			"type":"VEC3"
		},
		{
			"bufferView":16,
			"componentType":5126,
			"count":150,
			"type":"VEC2"
		},
		{
			"bufferView":17,
			"componentType":5123,
			"count":312,
			"type":"SCALAR"
		},
		{
			"bufferView":18,
			"componentType":5126,
			"count":12616,
			"max":[
				31.529888153076172,
				38.32852554321289,
				15.960066795349121
			],
			"min":[
				-15.988136291503906,
				-0.9918714761734009,
				-31.479900360107422
			],
			"type":"VEC3"
		},
		{
			"bufferView":19,
			"componentType":5126,
			"count":12616,
			"type":"VEC3"
		},
		{
			"bufferView":20,
			"componentType":5126,
			"count":12616,
			"type":"VEC2"
		},
		{
			"bufferView":21,
			"componentType":5126,
			"count":12616,
			"type":"VEC2"
		},
		{
			"bufferView":22,
			"componentType":5123,
			"count":30720,
			"type":"SCALAR"
		},
		{
			"bufferView":23,
			"componentType":5126,
			"count":24,
			"max":[
				1,
				1,
				1
			],
			"min":[
				-1,
				-1,
				-1
			],
			"type":"VEC3"
		},
		{
			"bufferView":24,
			"componentType":5126,
			"count":24,
			"type":"VEC3"
		},
		{
			"bufferView":25,
			"componentType":5126,
			"count":24,
			"type":"VEC2"
		}
	],
	"bufferViews":[
		{
			"buffer":0,
			"byteLength":288,
			"byteOffset":0,
			"target":34962
		},
		{
			"buffer":0,
			"byteLength":288,
			"byteOffset":288,
			"target":34962
		},
		{
			"buffer":0,
			"byteLength":192,
			"byteOffset":576,
			"target":34962
		},
		{
			"buffer":0,
			"byteLength":72,
			"byteOffset":768,
			"target":34963
		},
		{
			"buffer":0,
			"byteLength":288,
			"byteOffset":840,
			"target":34962
		},
		{
			"buffer":0,
			"byteLength":288,
			"byteOffset":1128,
			"target":34962
		},
		{
			"buffer":0,
			"byteLength":192,
			"byteOffset":1416,
			"target":34962
		},
		{
			"buffer":0,
			"byteLength":288,
			"byteOffset":1608,
			"target":34962
		},
		{
			"buffer":0,
			"byteLength":288,
			"byteOffset":1896,
			"target":34962
		},
		{
			"buffer":0,
			"byteLength":192,
			"byteOffset":2184,
			"target":34962
		},
		{
			"buffer":0,
			"byteLength":1680,
			"byteOffset":2376,
			"target":34962
		},
		{
			"buffer":0,
			"byteLength":1680,
			"byteOffset":4056,
			"target":34962
		},
		{
			"buffer":0,
			"byteLength":1120,
			"byteOffset":5736,
			"target":34962
		},
		{
			"buffer":0,
			"byteLength":792,
			"byteOffset":6856,
			"target":34963
		},
		{
			"buffer":0,
			"byteLength":1800,
			"byteOffset":7648,
			"target":34962
		},
		{
			"buffer":0,
			"byteLength":1800,
			"byteOffset":9448,
			"target":34962
		},
		{
			"buffer":0,
			"byteLength":1200,
			"byteOffset":11248,
			"target":34962
		},
		{
			"buffer":0,
			"byteLength":624,
			"byteOffset":12448,
			"target":34963
		},
		{
			"buffer":0,
			"byteLength":151392,
			"byteOffset":13072,
			"target":34962
		},
		{
			"buffer":0,
			"byteLength":151392,
			"byteOffset":164464,
			"target":34962
		},
		{
			"buffer":0,
			"byteLength":100928,
			"byteOffset":315856,
			"target":34962
		},
		{
			"buffer":0,
			"byteLength":100928,
			"byteOffset":416784,
			"target":34962
		},
		{
			"buffer":0,
			"byteLength":61440,
			"byteOffset":517712,
			"target":34963
		},
		{
			"buffer":0,
			"byteLength":288,
			"byteOffset":579152,
			"target":34962
		},
		{
			"buffer":0,
			"byteLength":288,
			"byteOffset":579440,
			"target":34962
		},
		{
			"buffer":0,
			"byteLength":192,
			"byteOffset":579728,
			"target":34962
		}
	],
	"samplers":[
		{
			"magFilter":9729,
			"minFilter":9987
		}
	],
	"buffers":[
		{
			"byteLength":579920,
			"uri":"Sentral.bin"
		}
	]
}
