{
	"asset":{
		"generator":"Khronos glTF Blender I/O v4.1.63",
		"version":"2.0"
	},
	"scene":0,
	"scenes":[
		{
			"name":"Scene",
			"nodes":[
				0,
				1
			]
		}
	],
	"nodes":[
		{
			"mesh":0,
			"name":"COL.002",
			"scale":[
				1,
				12.043006896972656,
				1
			],
			"translation":[
				-14.971436500549316,
				11.581636428833008,
				-0.8575096130371094
			]
		},
		{
			"mesh":1,
			"name":"Pedestal.001",
			"translation":[
				0,
				0,
				-15.019359588623047
			]
		}
	],
	"materials":[
		{
			"doubleSided":true,
			"name":"Material",
			"pbrMetallicRoughness":{
				"baseColorFactor":[
					0,
					0.21739670634269714,
					0.8004578351974487,
					1
				],
				"metallicFactor":0,
				"roughnessFactor":0.5
			}
		}
	],
	"meshes":[
		{
			"name":"\u7acb\u65b9\u4f53.011",
			"primitives":[
				{
					"attributes":{
						"POSITION":0,
						"NORMAL":1,
						"TEXCOORD_0":2
					},
					"indices":3
				}
			]
		},
		{
			"name":"Cube.001",
			"primitives":[
				{
					"attributes":{
						"POSITION":4,
						"NORMAL":5,
						"TEXCOORD_0":6,
						"TEXCOORD_1":7
					},
					"indices":8,
					"material":0
				}
			]
		}
	],
	"accessors":[
		{
			"bufferView":0,
			"componentType":5126,
			"count":144,
			"max":[
				29.003536224365234,
				2.3360462188720703,
				2.9887473583221436
			],
			"min":[
				-1,
				-1.0158143043518066,
				-16.120365142822266
			],
			"type":"VEC3"
		},
		{
			"bufferView":1,
			"componentType":5126,
			"count":144,
			"type":"VEC3"
		},
		{
			"bufferView":2,
			"componentType":5126,
			"count":144,
			"type":"VEC2"
		},
		{
			"bufferView":3,
			"componentType":5123,
			"count":276,
			"type":"SCALAR"
		},
		{
			"bufferView":4,
			"componentType":5126,
			"count":6712,
			"max":[
				14.025338172912598,
				39.84226989746094,
				17.105928421020508
			],
			"min":[
				-15.959667205810547,
				-0.9918714761734009,
				-2.0723841190338135
			],
			"type":"VEC3"
		},
		{
			"bufferView":5,
			"componentType":5126,
			"count":6712,
			"type":"VEC3"
		},
		{
			"bufferView":6,
			"componentType":5126,
			"count":6712,
			"type":"VEC2"
		},
		{
			"bufferView":7,
			"componentType":5126,
			"count":6712,
			"type":"VEC2"
		},
		{
			"bufferView":8,
			"componentType":5123,
			"count":16224,
			"type":"SCALAR"
		}
	],
	"bufferViews":[
		{
			"buffer":0,
			"byteLength":1728,
			"byteOffset":0,
			"target":34962
		},
		{
			"buffer":0,
			"byteLength":1728,
			"byteOffset":1728,
			"target":34962
		},
		{
			"buffer":0,
			"byteLength":1152,
			"byteOffset":3456,
			"target":34962
		},
		{
			"buffer":0,
			"byteLength":552,
			"byteOffset":4608,
			"target":34963
		},
		{
			"buffer":0,
			"byteLength":80544,
			"byteOffset":5160,
			"target":34962
		},
		{
			"buffer":0,
			"byteLength":80544,
			"byteOffset":85704,
			"target":34962
		},
		{
			"buffer":0,
			"byteLength":53696,
			"byteOffset":166248,
			"target":34962
		},
		{
			"buffer":0,
			"byteLength":53696,
			"byteOffset":219944,
			"target":34962
		},
		{
			"buffer":0,
			"byteLength":32448,
			"byteOffset":273640,
			"target":34963
		}
	],
	"buffers":[
		{
			"byteLength":306088,
			"uri":"Rod.bin"
		}
	]
}
