{
	"asset":{
		"generator":"Khronos glTF Blender I/O v4.1.63",
		"version":"2.0"
	},
	"scene":0,
	"scenes":[
		{
			"name":"Scene",
			"nodes":[
				0,
				1
			]
		}
	],
	"nodes":[
		{
			"mesh":0,
			"name":"Cube",
			"translation":[
				0,
				0.9715035557746887,
				0
			]
		},
		{
			"mesh":1,
			"name":"\u7acb\u65b9\u4f53",
			"translation":[
				0,
				0.9908403754234314,
				0
			]
		}
	],
	"materials":[
		{
			"doubleSided":true,
			"name":"Material",
			"pbrMetallicRoughness":{
				"baseColorFactor":[
					0.03823631629347801,
					0.11044427752494812,
					0.8000937700271606,
					1
				],
				"metallicFactor":0,
				"roughnessFactor":0.5
			}
		}
	],
	"meshes":[
		{
			"name":"Cube",
			"primitives":[
				{
					"attributes":{
						"POSITION":0,
						"NORMAL":1,
						"TEXCOORD_0":2,
						"TEXCOORD_1":3
					},
					"indices":4,
					"material":0
				},
				{
					"attributes":{
						"POSITION":5,
						"NORMAL":6,
						"TEXCOORD_0":7,
						"TEXCOORD_1":8
					},
					"indices":9,
					"material":0
				}
			]
		},
		{
			"name":"\u7acb\u65b9\u4f53",
			"primitives":[
				{
					"attributes":{
						"POSITION":10,
						"NORMAL":11,
						"TEXCOORD_0":12
					},
					"indices":13
				}
			]
		}
	],
	"accessors":[
		{
			"bufferView":0,
			"componentType":5126,
			"count":140,
			"max":[
				0.44960716366767883,
				2.6234896183013916,
				2.5113086700439453
			],
			"min":[
				-1.3957232236862183,
				-1,
				-2.487889289855957
			],
			"type":"VEC3"
		},
		{
			"bufferView":1,
			"componentType":5126,
			"count":140,
			"type":"VEC3"
		},
		{
			"bufferView":2,
			"componentType":5126,
			"count":140,
			"type":"VEC2"
		},
		{
			"bufferView":3,
			"componentType":5126,
			"count":140,
			"type":"VEC2"
		},
		{
			"bufferView":4,
			"componentType":5123,
			"count":336,
			"type":"SCALAR"
		},
		{
			"bufferView":5,
			"componentType":5126,
			"count":164,
			"max":[
				0.44960716366767883,
				2.333462953567505,
				2.5113086700439453
			],
			"min":[
				-1.3957232236862183,
				1.8005119562149048,
				-2.487889289855957
			],
			"type":"VEC3"
		},
		{
			"bufferView":6,
			"componentType":5126,
			"count":164,
			"type":"VEC3"
		},
		{
			"bufferView":7,
			"componentType":5126,
			"count":164,
			"type":"VEC2"
		},
		{
			"bufferView":8,
			"componentType":5126,
			"count":164,
			"type":"VEC2"
		},
		{
			"bufferView":9,
			"componentType":5123,
			"count":252,
			"type":"SCALAR"
		},
		{
			"bufferView":10,
			"componentType":5126,
			"count":48,
			"max":[
				0.46756792068481445,
				2.6252269744873047,
				2.517261505126953
			],
			"min":[
				-1.4184460639953613,
				-1,
				-2.4916021823883057
			],
			"type":"VEC3"
		},
		{
			"bufferView":11,
			"componentType":5126,
			"count":48,
			"type":"VEC3"
		},
		{
			"bufferView":12,
			"componentType":5126,
			"count":48,
			"type":"VEC2"
		},
		{
			"bufferView":13,
			"componentType":5123,
			"count":84,
			"type":"SCALAR"
		}
	],
	"bufferViews":[
		{
			"buffer":0,
			"byteLength":1680,
			"byteOffset":0,
			"target":34962
		},
		{
			"buffer":0,
			"byteLength":1680,
			"byteOffset":1680,
			"target":34962
		},
		{
			"buffer":0,
			"byteLength":1120,
			"byteOffset":3360,
			"target":34962
		},
		{
			"buffer":0,
			"byteLength":1120,
			"byteOffset":4480,
			"target":34962
		},
		{
			"buffer":0,
			"byteLength":672,
			"byteOffset":5600,
			"target":34963
		},
		{
			"buffer":0,
			"byteLength":1968,
			"byteOffset":6272,
			"target":34962
		},
		{
			"buffer":0,
			"byteLength":1968,
			"byteOffset":8240,
			"target":34962
		},
		{
			"buffer":0,
			"byteLength":1312,
			"byteOffset":10208,
			"target":34962
		},
		{
			"buffer":0,
			"byteLength":1312,
			"byteOffset":11520,
			"target":34962
		},
		{
			"buffer":0,
			"byteLength":504,
			"byteOffset":12832,
			"target":34963
		},
		{
			"buffer":0,
			"byteLength":576,
			"byteOffset":13336,
			"target":34962
		},
		{
			"buffer":0,
			"byteLength":576,
			"byteOffset":13912,
			"target":34962
		},
		{
			"buffer":0,
			"byteLength":384,
			"byteOffset":14488,
			"target":34962
		},
		{
			"buffer":0,
			"byteLength":168,
			"byteOffset":14872,
			"target":34963
		}
	],
	"buffers":[
		{
			"byteLength":15040,
			"uri":"Normal.bin"
		}
	]
}
