{
	"asset":{
		"generator":"Khronos glTF Blender I/O v4.1.63",
		"version":"2.0"
	},
	"extensionsUsed":[
		"KHR_materials_transmission",
		"KHR_materials_specular"
	],
	"scene":0,
	"scenes":[
		{
			"name":"Scene",
			"nodes":[
				0,
				1
			]
		}
	],
	"nodes":[
		{
			"mesh":0,
			"name":"peri",
			"rotation":[
				0,
				-0.7071068286895752,
				0.7071068286895752,
				1.1520234011186403e-07
			],
			"scale":[
				0.016683267429471016,
				0.016683267429471016,
				0.016683267429471016
			],
			"translation":[
				-0.024692296981811523,
				-0.0178985595703125,
				0.039763420820236206
			]
		},
		{
			"name":"AttachPoint",
			"rotation":[
				0,
				0.70710688829422,
				0,
				0.7071066498756409
			],
			"translation":[
				0.5282630920410156,
				1.5946030616760254,
				-0.022942543029785156
			]
		}
	],
	"materials":[
		{
			"doubleSided":true,
			"extensions":{
				"KHR_materials_transmission":{
					"transmissionFactor":1
				},
				"KHR_materials_specular":{
					"specularFactor":0
				}
			},
			"name":"___",
			"pbrMetallicRoughness":{
				"baseColorFactor":[
					0.22349999845027924,
					0.22349999845027924,
					0.22349999845027924,
					1
				],
				"metallicFactor":0,
				"roughnessFactor":0.9683772325515747
			}
		},
		{
			"doubleSided":true,
			"extensions":{
				"KHR_materials_transmission":{
					"transmissionFactor":1
				},
				"KHR_materials_specular":{
					"specularFactor":0
				}
			},
			"name":"Material__277",
			"pbrMetallicRoughness":{
				"baseColorTexture":{
					"index":0
				},
				"metallicFactor":0,
				"roughnessFactor":0.8999999761581421
			}
		},
		{
			"doubleSided":true,
			"extensions":{
				"KHR_materials_transmission":{
					"transmissionFactor":1
				},
				"KHR_materials_specular":{
					"specularFactor":0
				}
			},
			"name":"Material__280",
			"pbrMetallicRoughness":{
				"baseColorTexture":{
					"index":1
				},
				"metallicFactor":0,
				"roughnessFactor":0.8999999761581421
			}
		},
		{
			"doubleSided":true,
			"extensions":{
				"KHR_materials_transmission":{
					"transmissionFactor":1
				},
				"KHR_materials_specular":{
					"specularFactor":0
				}
			},
			"name":"Material__276",
			"pbrMetallicRoughness":{
				"baseColorTexture":{
					"index":2
				},
				"metallicFactor":0,
				"roughnessFactor":0.8999999761581421
			}
		},
		{
			"doubleSided":true,
			"extensions":{
				"KHR_materials_transmission":{
					"transmissionFactor":1
				},
				"KHR_materials_specular":{
					"specularFactor":0
				}
			},
			"name":"Material__271",
			"pbrMetallicRoughness":{
				"baseColorTexture":{
					"index":3
				},
				"metallicFactor":0,
				"roughnessFactor":0.8999999761581421
			}
		},
		{
			"doubleSided":true,
			"extensions":{
				"KHR_materials_transmission":{
					"transmissionFactor":1
				},
				"KHR_materials_specular":{
					"specularFactor":0
				}
			},
			"name":"Material__272",
			"pbrMetallicRoughness":{
				"baseColorTexture":{
					"index":4
				},
				"metallicFactor":0,
				"roughnessFactor":0.8999999761581421
			}
		},
		{
			"doubleSided":true,
			"extensions":{
				"KHR_materials_transmission":{
					"transmissionFactor":1
				},
				"KHR_materials_specular":{
					"specularFactor":0
				}
			},
			"name":"Material__52",
			"pbrMetallicRoughness":{
				"baseColorFactor":[
					0.5879999995231628,
					0.5879999995231628,
					0.5879999995231628,
					1
				],
				"metallicFactor":0,
				"roughnessFactor":0.8999999761581421
			}
		},
		{
			"doubleSided":true,
			"extensions":{
				"KHR_materials_transmission":{
					"transmissionFactor":1
				},
				"KHR_materials_specular":{
					"specularFactor":0
				}
			},
			"name":"Material__273",
			"pbrMetallicRoughness":{
				"baseColorTexture":{
					"index":5
				},
				"metallicFactor":0,
				"roughnessFactor":0.8999999761581421
			}
		},
		{
			"doubleSided":true,
			"extensions":{
				"KHR_materials_transmission":{
					"transmissionFactor":1
				},
				"KHR_materials_specular":{
					"specularFactor":0
				}
			},
			"name":"Material__275",
			"pbrMetallicRoughness":{
				"baseColorTexture":{
					"index":6
				},
				"metallicFactor":0,
				"roughnessFactor":0.8999999761581421
			}
		},
		{
			"doubleSided":true,
			"extensions":{
				"KHR_materials_transmission":{
					"transmissionFactor":1
				},
				"KHR_materials_specular":{
					"specularFactor":0
				}
			},
			"name":"Material__274",
			"pbrMetallicRoughness":{
				"baseColorTexture":{
					"index":7
				},
				"metallicFactor":0,
				"roughnessFactor":0.8999999761581421
			}
		}
	],
	"meshes":[
		{
			"name":"peri",
			"primitives":[
				{
					"attributes":{
						"POSITION":0,
						"NORMAL":1,
						"TEXCOORD_0":2
					},
					"indices":3,
					"material":0
				},
				{
					"attributes":{
						"POSITION":4,
						"NORMAL":5,
						"TEXCOORD_0":6
					},
					"indices":7,
					"material":1
				},
				{
					"attributes":{
						"POSITION":8,
						"NORMAL":9,
						"TEXCOORD_0":10
					},
					"indices":11,
					"material":2
				},
				{
					"attributes":{
						"POSITION":12,
						"NORMAL":13,
						"TEXCOORD_0":14
					},
					"indices":15,
					"material":3
				},
				{
					"attributes":{
						"POSITION":16,
						"NORMAL":17,
						"TEXCOORD_0":18
					},
					"indices":19,
					"material":4
				},
				{
					"attributes":{
						"POSITION":20,
						"NORMAL":21,
						"TEXCOORD_0":22
					},
					"indices":23,
					"material":5
				},
				{
					"attributes":{
						"POSITION":24,
						"NORMAL":25,
						"TEXCOORD_0":26
					},
					"indices":27,
					"material":6
				},
				{
					"attributes":{
						"POSITION":28,
						"NORMAL":29,
						"TEXCOORD_0":30
					},
					"indices":31,
					"material":7
				},
				{
					"attributes":{
						"POSITION":32,
						"NORMAL":33,
						"TEXCOORD_0":34
					},
					"indices":35,
					"material":8
				},
				{
					"attributes":{
						"POSITION":36,
						"NORMAL":37,
						"TEXCOORD_0":38
					},
					"indices":39,
					"material":9
				}
			]
		}
	],
	"textures":[
		{
			"sampler":0,
			"source":0
		},
		{
			"sampler":0,
			"source":1
		},
		{
			"sampler":0,
			"source":2
		},
		{
			"sampler":0,
			"source":3
		},
		{
			"sampler":0,
			"source":4
		},
		{
			"sampler":0,
			"source":5
		},
		{
			"sampler":0,
			"source":6
		},
		{
			"sampler":0,
			"source":6
		}
	],
	"images":[
		{
			"mimeType":"image/jpeg",
			"name":"hudiejie",
			"uri":"hudiejie.jpg"
		},
		{
			"mimeType":"image/jpeg",
			"name":"tex_white",
			"uri":"tex_white.jpg"
		},
		{
			"mimeType":"image/jpeg",
			"name":"qunzi",
			"uri":"qunzi.jpg"
		},
		{
			"mimeType":"image/jpeg",
			"name":"lian",
			"uri":"lian.jpg"
		},
		{
			"mimeType":"image/jpeg",
			"name":"shenti",
			"uri":"shenti.jpg"
		},
		{
			"mimeType":"image/jpeg",
			"name":"siwang",
			"uri":"siwang.jpg"
		},
		{
			"mimeType":"image/jpeg",
			"name":"toufa",
			"uri":"toufa.jpg"
		}
	],
	"accessors":[
		{
			"bufferView":0,
			"componentType":5126,
			"count":17,
			"max":[
				32.0614013671875,
				2.7060999870300293,
				-91.24430084228516
			],
			"min":[
				30.761699676513672,
				-0.9200000166893005,
				-93.82779693603516
			],
			"type":"VEC3"
		},
		{
			"bufferView":1,
			"componentType":5126,
			"count":17,
			"type":"VEC3"
		},
		{
			"bufferView":2,
			"componentType":5126,
			"count":17,
			"type":"VEC2"
		},
		{
			"bufferView":3,
			"componentType":5123,
			"count":48,
			"type":"SCALAR"
		},
		{
			"bufferView":4,
			"componentType":5126,
			"count":350,
			"max":[
				5.50600004196167,
				15.552399635314941,
				-150.07640075683594
			],
			"min":[
				-5.50600004196167,
				7.2754998207092285,
				-160.435302734375
			],
			"type":"VEC3"
		},
		{
			"bufferView":5,
			"componentType":5126,
			"count":350,
			"type":"VEC3"
		},
		{
			"bufferView":6,
			"componentType":5126,
			"count":350,
			"type":"VEC2"
		},
		{
			"bufferView":7,
			"componentType":5123,
			"count":1674,
			"type":"SCALAR"
		},
		{
			"bufferView":8,
			"componentType":5126,
			"count":3742,
			"max":[
				24.97369956970215,
				21.847400665283203,
				-40.70199966430664
			],
			"min":[
				-25.87579917907715,
				-18.176799774169922,
				-170.40609741210938
			],
			"type":"VEC3"
		},
		{
			"bufferView":9,
			"componentType":5126,
			"count":3742,
			"type":"VEC3"
		},
		{
			"bufferView":10,
			"componentType":5126,
			"count":3742,
			"type":"VEC2"
		},
		{
			"bufferView":11,
			"componentType":5123,
			"count":22260,
			"type":"SCALAR"
		},
		{
			"bufferView":12,
			"componentType":5126,
			"count":14196,
			"max":[
				51.69670104980469,
				39.940799713134766,
				-32.274200439453125
			],
			"min":[
				-51.69670104980469,
				-42.09510040283203,
				-162.3885955810547
			],
			"type":"VEC3"
		},
		{
			"bufferView":13,
			"componentType":5126,
			"count":14196,
			"type":"VEC3"
		},
		{
			"bufferView":14,
			"componentType":5126,
			"count":14196,
			"type":"VEC2"
		},
		{
			"bufferView":15,
			"componentType":5123,
			"count":72285,
			"type":"SCALAR"
		},
		{
			"bufferView":16,
			"componentType":5126,
			"count":3363,
			"max":[
				9.335200309753418,
				15.810099601745605,
				-161.81149291992188
			],
			"min":[
				-10.330300331115723,
				-3.8777999877929688,
				-188.381103515625
			],
			"type":"VEC3"
		},
		{
			"bufferView":17,
			"componentType":5126,
			"count":3363,
			"type":"VEC3"
		},
		{
			"bufferView":18,
			"componentType":5126,
			"count":3363,
			"type":"VEC2"
		},
		{
			"bufferView":19,
			"componentType":5123,
			"count":18777,
			"type":"SCALAR"
		},
		{
			"bufferView":20,
			"componentType":5126,
			"count":792,
			"max":[
				19.573699951171875,
				20.338199615478516,
				-92.13009643554688
			],
			"min":[
				-20.102800369262695,
				-6.511499881744385,
				-164.50660705566406
			],
			"type":"VEC3"
		},
		{
			"bufferView":21,
			"componentType":5126,
			"count":792,
			"type":"VEC3"
		},
		{
			"bufferView":22,
			"componentType":5126,
			"count":792,
			"type":"VEC2"
		},
		{
			"bufferView":23,
			"componentType":5123,
			"count":4173,
			"type":"SCALAR"
		},
		{
			"bufferView":24,
			"componentType":5126,
			"count":2847,
			"max":[
				37.05839920043945,
				35.93989944458008,
				-0.4577000141143799
			],
			"min":[
				-37.8578987121582,
				-20.798799514770508,
				-135.26870727539062
			],
			"type":"VEC3"
		},
		{
			"bufferView":25,
			"componentType":5126,
			"count":2847,
			"type":"VEC3"
		},
		{
			"bufferView":26,
			"componentType":5126,
			"count":2847,
			"type":"VEC2"
		},
		{
			"bufferView":27,
			"componentType":5123,
			"count":16332,
			"type":"SCALAR"
		},
		{
			"bufferView":28,
			"componentType":5126,
			"count":432,
			"max":[
				24.55419921875,
				24.57699966430664,
				-20.33209991455078
			],
			"min":[
				-25.39150047302246,
				-17.427600860595703,
				-143.27349853515625
			],
			"type":"VEC3"
		},
		{
			"bufferView":29,
			"componentType":5126,
			"count":432,
			"type":"VEC3"
		},
		{
			"bufferView":30,
			"componentType":5126,
			"count":432,
			"type":"VEC2"
		},
		{
			"bufferView":31,
			"componentType":5123,
			"count":2154,
			"type":"SCALAR"
		},
		{
			"bufferView":32,
			"componentType":5126,
			"count":2533,
			"max":[
				49.109798431396484,
				18.141300201416016,
				-52.42250061035156
			],
			"min":[
				-12.276800155639648,
				-63.96179962158203,
				-193.77830505371094
			],
			"type":"VEC3"
		},
		{
			"bufferView":33,
			"componentType":5126,
			"count":2533,
			"type":"VEC3"
		},
		{
			"bufferView":34,
			"componentType":5126,
			"count":2533,
			"type":"VEC2"
		},
		{
			"bufferView":35,
			"componentType":5123,
			"count":14679,
			"type":"SCALAR"
		},
		{
			"bufferView":36,
			"componentType":5126,
			"count":671,
			"max":[
				72.54000091552734,
				-0.46860000491142273,
				-46.602298736572266
			],
			"min":[
				-53.44160079956055,
				-36.50080108642578,
				-193.52920532226562
			],
			"type":"VEC3"
		},
		{
			"bufferView":37,
			"componentType":5126,
			"count":671,
			"type":"VEC3"
		},
		{
			"bufferView":38,
			"componentType":5126,
			"count":671,
			"type":"VEC2"
		},
		{
			"bufferView":39,
			"componentType":5123,
			"count":3438,
			"type":"SCALAR"
		}
	],
	"bufferViews":[
		{
			"buffer":0,
			"byteLength":204,
			"byteOffset":0,
			"target":34962
		},
		{
			"buffer":0,
			"byteLength":204,
			"byteOffset":204,
			"target":34962
		},
		{
			"buffer":0,
			"byteLength":136,
			"byteOffset":408,
			"target":34962
		},
		{
			"buffer":0,
			"byteLength":96,
			"byteOffset":544,
			"target":34963
		},
		{
			"buffer":0,
			"byteLength":4200,
			"byteOffset":640,
			"target":34962
		},
		{
			"buffer":0,
			"byteLength":4200,
			"byteOffset":4840,
			"target":34962
		},
		{
			"buffer":0,
			"byteLength":2800,
			"byteOffset":9040,
			"target":34962
		},
		{
			"buffer":0,
			"byteLength":3348,
			"byteOffset":11840,
			"target":34963
		},
		{
			"buffer":0,
			"byteLength":44904,
			"byteOffset":15188,
			"target":34962
		},
		{
			"buffer":0,
			"byteLength":44904,
			"byteOffset":60092,
			"target":34962
		},
		{
			"buffer":0,
			"byteLength":29936,
			"byteOffset":104996,
			"target":34962
		},
		{
			"buffer":0,
			"byteLength":44520,
			"byteOffset":134932,
			"target":34963
		},
		{
			"buffer":0,
			"byteLength":170352,
			"byteOffset":179452,
			"target":34962
		},
		{
			"buffer":0,
			"byteLength":170352,
			"byteOffset":349804,
			"target":34962
		},
		{
			"buffer":0,
			"byteLength":113568,
			"byteOffset":520156,
			"target":34962
		},
		{
			"buffer":0,
			"byteLength":144570,
			"byteOffset":633724,
			"target":34963
		},
		{
			"buffer":0,
			"byteLength":40356,
			"byteOffset":778296,
			"target":34962
		},
		{
			"buffer":0,
			"byteLength":40356,
			"byteOffset":818652,
			"target":34962
		},
		{
			"buffer":0,
			"byteLength":26904,
			"byteOffset":859008,
			"target":34962
		},
		{
			"buffer":0,
			"byteLength":37554,
			"byteOffset":885912,
			"target":34963
		},
		{
			"buffer":0,
			"byteLength":9504,
			"byteOffset":923468,
			"target":34962
		},
		{
			"buffer":0,
			"byteLength":9504,
			"byteOffset":932972,
			"target":34962
		},
		{
			"buffer":0,
			"byteLength":6336,
			"byteOffset":942476,
			"target":34962
		},
		{
			"buffer":0,
			"byteLength":8346,
			"byteOffset":948812,
			"target":34963
		},
		{
			"buffer":0,
			"byteLength":34164,
			"byteOffset":957160,
			"target":34962
		},
		{
			"buffer":0,
			"byteLength":34164,
			"byteOffset":991324,
			"target":34962
		},
		{
			"buffer":0,
			"byteLength":22776,
			"byteOffset":1025488,
			"target":34962
		},
		{
			"buffer":0,
			"byteLength":32664,
			"byteOffset":1048264,
			"target":34963
		},
		{
			"buffer":0,
			"byteLength":5184,
			"byteOffset":1080928,
			"target":34962
		},
		{
			"buffer":0,
			"byteLength":5184,
			"byteOffset":1086112,
			"target":34962
		},
		{
			"buffer":0,
			"byteLength":3456,
			"byteOffset":1091296,
			"target":34962
		},
		{
			"buffer":0,
			"byteLength":4308,
			"byteOffset":1094752,
			"target":34963
		},
		{
			"buffer":0,
			"byteLength":30396,
			"byteOffset":1099060,
			"target":34962
		},
		{
			"buffer":0,
			"byteLength":30396,
			"byteOffset":1129456,
			"target":34962
		},
		{
			"buffer":0,
			"byteLength":20264,
			"byteOffset":1159852,
			"target":34962
		},
		{
			"buffer":0,
			"byteLength":29358,
			"byteOffset":1180116,
			"target":34963
		},
		{
			"buffer":0,
			"byteLength":8052,
			"byteOffset":1209476,
			"target":34962
		},
		{
			"buffer":0,
			"byteLength":8052,
			"byteOffset":1217528,
			"target":34962
		},
		{
			"buffer":0,
			"byteLength":5368,
			"byteOffset":1225580,
			"target":34962
		},
		{
			"buffer":0,
			"byteLength":6876,
			"byteOffset":1230948,
			"target":34963
		}
	],
	"samplers":[
		{
			"magFilter":9729,
			"minFilter":9987
		}
	],
	"buffers":[
		{
			"byteLength":1237824,
			"uri":"Stella.bin"
		}
	]
}
