{
	"asset":{
		"generator":"Khronos glTF Blender I/O v4.1.63",
		"version":"2.0"
	},
	"extensionsUsed":[
		"KHR_materials_specular"
	],
	"scene":0,
	"scenes":[
		{
			"name":"Scene",
			"nodes":[
				0,
				1
			]
		}
	],
	"nodes":[
		{
			"mesh":0,
			"name":"Shark_01SG1",
			"rotation":[
				0.7071067690849304,
				0,
				0,
				0.7071068286895752
			],
			"scale":[
				0.12121714651584625,
				0.12121714651584625,
				0.12121714651584625
			]
		},
		{
			"mesh":1,
			"name":"COL",
			"scale":[
				2.6835477352142334,
				2.7579336166381836,
				13.202547073364258
			],
			"translation":[
				0,
				4.185911178588867,
				-3.260934591293335
			]
		}
	],
	"materials":[
		{
			"doubleSided":true,
			"extensions":{
				"KHR_materials_specular":{
					"specularFactor":0
				}
			},
			"name":"01 - Default",
			"pbrMetallicRoughness":{
				"baseColorTexture":{
					"index":0
				},
				"roughnessFactor":0.858578622341156
			}
		}
	],
	"meshes":[
		{
			"name":"\u30e1\u30c3\u30b7\u30e5",
			"primitives":[
				{
					"attributes":{
						"POSITION":0,
						"NORMAL":1,
						"TEXCOORD_0":2,
						"TEXCOORD_1":3
					},
					"indices":4,
					"material":0
				}
			]
		},
		{
			"name":"\u7acb\u65b9\u4f53",
			"primitives":[
				{
					"attributes":{
						"POSITION":5,
						"NORMAL":6,
						"TEXCOORD_0":7
					},
					"indices":8
				}
			]
		}
	],
	"textures":[
		{
			"sampler":0,
			"source":0
		}
	],
	"images":[
		{
			"mimeType":"image/png",
			"name":"megalodon",
			"uri":"megalodon.png"
		}
	],
	"accessors":[
		{
			"bufferView":0,
			"componentType":5126,
			"count":2539,
			"max":[
				44.103515625,
				80.818359375,
				0.18403244018554688
			],
			"min":[
				-44.1416015625,
				-152.49609375,
				-77.314453125
			],
			"type":"VEC3"
		},
		{
			"bufferView":1,
			"componentType":5126,
			"count":2539,
			"type":"VEC3"
		},
		{
			"bufferView":2,
			"componentType":5126,
			"count":2539,
			"type":"VEC2"
		},
		{
			"bufferView":3,
			"componentType":5126,
			"count":2539,
			"type":"VEC2"
		},
		{
			"bufferView":4,
			"componentType":5123,
			"count":11250,
			"type":"SCALAR"
		},
		{
			"bufferView":5,
			"componentType":5126,
			"count":24,
			"max":[
				1,
				1,
				1
			],
			"min":[
				-1,
				-1,
				-1
			],
			"type":"VEC3"
		},
		{
			"bufferView":6,
			"componentType":5126,
			"count":24,
			"type":"VEC3"
		},
		{
			"bufferView":7,
			"componentType":5126,
			"count":24,
			"type":"VEC2"
		},
		{
			"bufferView":8,
			"componentType":5123,
			"count":36,
			"type":"SCALAR"
		}
	],
	"bufferViews":[
		{
			"buffer":0,
			"byteLength":30468,
			"byteOffset":0,
			"target":34962
		},
		{
			"buffer":0,
			"byteLength":30468,
			"byteOffset":30468,
			"target":34962
		},
		{
			"buffer":0,
			"byteLength":20312,
			"byteOffset":60936,
			"target":34962
		},
		{
			"buffer":0,
			"byteLength":20312,
			"byteOffset":81248,
			"target":34962
		},
		{
			"buffer":0,
			"byteLength":22500,
			"byteOffset":101560,
			"target":34963
		},
		{
			"buffer":0,
			"byteLength":288,
			"byteOffset":124060,
			"target":34962
		},
		{
			"buffer":0,
			"byteLength":288,
			"byteOffset":124348,
			"target":34962
		},
		{
			"buffer":0,
			"byteLength":192,
			"byteOffset":124636,
			"target":34962
		},
		{
			"buffer":0,
			"byteLength":72,
			"byteOffset":124828,
			"target":34963
		}
	],
	"samplers":[
		{
			"magFilter":9729,
			"minFilter":9987
		}
	],
	"buffers":[
		{
			"byteLength":124900,
			"uri":"Megaro.bin"
		}
	]
}
